<svg width="1451" height="700" viewBox="0 0 1451 700" fill="none" xmlns="http://www.w3.org/2000/svg">
<g clip-path="url(#clip0_926_52)">
<rect width="1451" height="700" fill="white"/>
<path d="M1279.38 7.36318L1288.98 -2.23084L1318.21 27.0038L1308.62 36.5978L1279.38 7.36318ZM1398.38 57.5692L1371.31 30.5068L1355.29 45.0788L1355.47 45.2599C1360 46.7684 1364.07 49.3328 1367.69 52.9532C1374.21 59.4699 1377.47 66.2883 1377.47 73.4084C1377.47 80.5285 1374.21 87.3469 1367.69 93.8635C1352.19 109.371 1335.59 108.285 1317.91 90.6052C1311.46 84.1488 1306.72 76.8176 1303.7 68.6114L1316.65 61.0991C1319.48 69.1242 1323.22 75.4599 1327.87 80.1061C1337.4 89.6398 1346.51 90.0621 1355.2 81.3732C1362.38 74.1928 1362.5 67.133 1355.56 60.194C1352 56.6339 1347.66 54.7634 1342.53 54.5824L1331.67 43.7212L1370.14 8.87498L1408.6 47.3416L1398.38 57.5692ZM1471.11 109.852L1482.25 120.985L1379.97 150.853L1368.84 139.72L1471.11 109.852ZM1431.74 141.983C1437.78 141.742 1443.42 144.246 1448.67 149.495C1453.92 154.745 1456.42 160.387 1456.18 166.42C1455.94 172.454 1452.95 178.338 1447.22 184.07C1441.49 189.802 1435.6 192.789 1429.57 193.03C1423.6 193.211 1417.98 190.677 1412.73 185.428C1407.49 180.178 1404.95 174.566 1405.13 168.593C1405.37 162.559 1408.36 156.676 1414.09 150.943C1419.82 145.211 1425.71 142.224 1431.74 141.983ZM1421.42 67.7649C1427.46 67.5236 1433.1 70.0277 1438.35 75.2772C1443.6 80.5268 1446.1 86.1686 1445.86 92.2026C1445.74 98.2365 1442.81 104.12 1437.08 109.852C1431.35 115.584 1425.44 118.541 1419.34 118.722C1413.31 118.963 1407.67 116.459 1402.42 111.21C1397.17 105.96 1394.66 100.318 1394.9 94.2843C1395.15 88.2503 1398.13 82.3672 1403.86 76.6349C1409.6 70.9026 1415.45 67.946 1421.42 67.7649ZM1424.95 161.804C1418.56 168.201 1417.26 173.299 1421.06 177.101C1424.86 180.902 1429.96 179.605 1436.36 173.209C1442.81 166.752 1444.14 161.623 1440.34 157.822C1436.54 154.021 1431.41 155.348 1424.95 161.804ZM1410.74 102.883C1414.61 106.744 1419.76 105.447 1426.22 98.9908C1432.62 92.5948 1433.88 87.4659 1430.02 83.6041C1426.22 79.8027 1421.12 81.1 1414.73 87.496C1408.27 93.9524 1406.94 99.0813 1410.74 102.883Z" fill="black" fill-opacity="0.05"/>
<path d="M1054.38 7.36318L1063.98 -2.23084L1093.21 27.0038L1083.62 36.5978L1054.38 7.36318ZM1173.38 57.5692L1146.31 30.5068L1130.29 45.0788L1130.47 45.2599C1135 46.7684 1139.07 49.3328 1142.69 52.9532C1149.21 59.4699 1152.47 66.2883 1152.47 73.4084C1152.47 80.5285 1149.21 87.3469 1142.69 93.8635C1127.19 109.371 1110.59 108.285 1092.91 90.6052C1086.46 84.1488 1081.72 76.8176 1078.7 68.6114L1091.65 61.0991C1094.48 69.1242 1098.22 75.4599 1102.87 80.1061C1112.4 89.6398 1121.51 90.0621 1130.2 81.3732C1137.38 74.1928 1137.5 67.133 1130.56 60.194C1127 56.6339 1122.66 54.7634 1117.53 54.5824L1106.67 43.7212L1145.14 8.87498L1183.6 47.3416L1173.38 57.5692ZM1246.11 109.852L1257.25 120.985L1154.97 150.853L1143.84 139.72L1246.11 109.852ZM1206.74 141.983C1212.78 141.742 1218.42 144.246 1223.67 149.495C1228.92 154.745 1231.42 160.387 1231.18 166.42C1230.94 172.454 1227.95 178.338 1222.22 184.07C1216.49 189.802 1210.6 192.789 1204.57 193.03C1198.6 193.211 1192.98 190.677 1187.73 185.428C1182.49 180.178 1179.95 174.566 1180.13 168.593C1180.37 162.559 1183.36 156.676 1189.09 150.943C1194.82 145.211 1200.71 142.224 1206.74 141.983ZM1196.42 67.7649C1202.46 67.5236 1208.1 70.0277 1213.35 75.2772C1218.6 80.5268 1221.1 86.1686 1220.86 92.2026C1220.74 98.2365 1217.81 104.12 1212.08 109.852C1206.35 115.584 1200.44 118.541 1194.34 118.722C1188.31 118.963 1182.67 116.459 1177.42 111.21C1172.17 105.96 1169.66 100.318 1169.9 94.2843C1170.15 88.2503 1173.13 82.3672 1178.86 76.6349C1184.6 70.9026 1190.45 67.946 1196.42 67.7649ZM1199.95 161.804C1193.56 168.201 1192.26 173.299 1196.06 177.101C1199.86 180.902 1204.96 179.605 1211.36 173.209C1217.81 166.752 1219.14 161.623 1215.34 157.822C1211.54 154.021 1206.41 155.348 1199.95 161.804ZM1185.74 102.883C1189.61 106.744 1194.76 105.447 1201.22 98.9908C1207.62 92.5948 1208.88 87.4659 1205.02 83.6041C1201.22 79.8027 1196.12 81.1 1189.73 87.496C1183.27 93.9524 1181.94 99.0813 1185.74 102.883Z" fill="black" fill-opacity="0.05"/>
<path d="M792.383 7.36318L801.977 -2.23084L831.211 27.0038L821.617 36.5978L792.383 7.36318ZM911.376 57.5692L884.314 30.5068L868.293 45.0788L868.474 45.2599C873 46.7684 877.073 49.3328 880.693 52.9532C887.21 59.4699 890.468 66.2883 890.468 73.4084C890.468 80.5285 887.21 87.3469 880.693 93.8635C865.186 109.371 848.592 108.285 830.913 90.6052C824.456 84.1488 819.72 76.8176 816.703 68.6114L829.646 61.0991C832.482 69.1242 836.223 75.4599 840.869 80.1061C850.403 89.6398 859.514 90.0621 868.203 81.3732C875.383 74.1928 875.504 67.133 868.565 60.194C865.005 56.6339 860.66 54.7634 855.531 54.5824L844.67 43.7212L883.137 8.87498L921.604 47.3416L911.376 57.5692ZM984.114 109.852L995.247 120.985L892.971 150.853L881.838 139.72L984.114 109.852ZM944.742 141.983C950.776 141.742 956.418 144.246 961.667 149.495C966.917 154.745 969.421 160.387 969.18 166.42C968.938 172.454 965.952 178.338 960.219 184.07C954.487 189.802 948.604 192.789 942.57 193.03C936.596 193.211 930.985 190.677 925.735 185.428C920.486 180.178 917.951 174.566 918.132 168.593C918.374 162.559 921.361 156.676 927.093 150.943C932.825 145.211 938.708 142.224 944.742 141.983ZM934.424 67.7649C940.458 67.5236 946.1 70.0277 951.349 75.2772C956.599 80.5268 959.103 86.1686 958.862 92.2026C958.741 98.2365 955.815 104.12 950.082 109.852C944.35 115.584 938.437 118.541 932.342 118.722C926.308 118.963 920.667 116.459 915.417 111.21C910.167 105.96 907.663 100.318 907.905 94.2843C908.146 88.2503 911.133 82.3672 916.865 76.6349C922.597 70.9026 928.45 67.946 934.424 67.7649ZM937.954 161.804C931.558 168.201 930.261 173.299 934.062 177.101C937.863 180.902 942.962 179.605 949.358 173.209C955.815 166.752 957.142 161.623 953.341 157.822C949.539 154.021 944.41 155.348 937.954 161.804ZM923.744 102.883C927.606 106.744 932.765 105.447 939.221 98.9908C945.617 92.5948 946.884 87.4659 943.022 83.6041C939.221 79.8027 934.122 81.1 927.726 87.496C921.27 93.9524 919.943 99.0813 923.744 102.883Z" fill="black" fill-opacity="0.05"/>
<path d="M526.383 8.36318L535.977 -1.23084L565.211 28.0038L555.617 37.5978L526.383 8.36318ZM645.376 58.5692L618.314 31.5068L602.293 46.0788L602.474 46.2599C607 47.7684 611.073 50.3328 614.693 53.9532C621.21 60.4699 624.468 67.2883 624.468 74.4084C624.468 81.5285 621.21 88.3469 614.693 94.8635C599.186 110.371 582.592 109.285 564.913 91.6052C558.456 85.1488 553.72 77.8176 550.703 69.6114L563.646 62.0991C566.482 70.1242 570.223 76.4599 574.869 81.1061C584.403 90.6398 593.514 91.0621 602.203 82.3732C609.383 75.1928 609.504 68.133 602.565 61.194C599.005 57.6339 594.66 55.7634 589.531 55.5824L578.67 44.7212L617.137 9.87498L655.604 48.3416L645.376 58.5692ZM718.114 110.852L729.247 121.985L626.971 151.853L615.838 140.72L718.114 110.852ZM678.742 142.983C684.776 142.742 690.418 145.246 695.667 150.495C700.917 155.745 703.421 161.387 703.18 167.42C702.938 173.454 699.952 179.338 694.219 185.07C688.487 190.802 682.604 193.789 676.57 194.03C670.596 194.211 664.985 191.677 659.735 186.428C654.486 181.178 651.951 175.566 652.132 169.593C652.374 163.559 655.361 157.676 661.093 151.943C666.825 146.211 672.708 143.224 678.742 142.983ZM668.424 68.7649C674.458 68.5236 680.1 71.0277 685.349 76.2772C690.599 81.5268 693.103 87.1686 692.862 93.2026C692.741 99.2365 689.815 105.12 684.082 110.852C678.35 116.584 672.437 119.541 666.342 119.722C660.308 119.963 654.667 117.459 649.417 112.21C644.167 106.96 641.663 101.318 641.905 95.2843C642.146 89.2503 645.133 83.3672 650.865 77.6349C656.597 71.9026 662.45 68.946 668.424 68.7649ZM671.954 162.804C665.558 169.201 664.261 174.299 668.062 178.101C671.863 181.902 676.962 180.605 683.358 174.209C689.815 167.752 691.142 162.623 687.341 158.822C683.539 155.021 678.41 156.348 671.954 162.804ZM657.744 103.883C661.606 107.744 666.765 106.447 673.221 99.9908C679.617 93.5948 680.884 88.4659 677.022 84.6041C673.221 80.8027 668.122 82.1 661.726 88.496C655.27 94.9524 653.943 100.081 657.744 103.883Z" fill="black" fill-opacity="0.05"/>
<path d="M254.383 8.36318L263.977 -1.23084L293.211 28.0038L283.617 37.5978L254.383 8.36318ZM373.376 58.5692L346.314 31.5068L330.293 46.0788L330.474 46.2599C335 47.7684 339.073 50.3328 342.693 53.9532C349.21 60.4699 352.468 67.2883 352.468 74.4084C352.468 81.5285 349.21 88.3469 342.693 94.8635C327.186 110.371 310.592 109.285 292.913 91.6052C286.456 85.1488 281.72 77.8176 278.703 69.6114L291.646 62.0991C294.482 70.1242 298.223 76.4599 302.869 81.1061C312.403 90.6398 321.514 91.0621 330.203 82.3732C337.383 75.1928 337.504 68.133 330.565 61.194C327.005 57.6339 322.66 55.7634 317.531 55.5824L306.67 44.7212L345.137 9.87498L383.604 48.3416L373.376 58.5692ZM446.114 110.852L457.247 121.985L354.971 151.853L343.838 140.72L446.114 110.852ZM406.742 142.983C412.776 142.742 418.418 145.246 423.667 150.495C428.917 155.745 431.421 161.387 431.18 167.42C430.938 173.454 427.952 179.338 422.219 185.07C416.487 190.802 410.604 193.789 404.57 194.03C398.596 194.211 392.985 191.677 387.735 186.428C382.486 181.178 379.951 175.566 380.132 169.593C380.374 163.559 383.361 157.676 389.093 151.943C394.825 146.211 400.708 143.224 406.742 142.983ZM396.424 68.7649C402.458 68.5236 408.1 71.0277 413.349 76.2772C418.599 81.5268 421.103 87.1686 420.862 93.2026C420.741 99.2365 417.815 105.12 412.082 110.852C406.35 116.584 400.437 119.541 394.342 119.722C388.308 119.963 382.667 117.459 377.417 112.21C372.167 106.96 369.663 101.318 369.905 95.2843C370.146 89.2503 373.133 83.3672 378.865 77.6349C384.597 71.9026 390.45 68.946 396.424 68.7649ZM399.954 162.804C393.558 169.201 392.261 174.299 396.062 178.101C399.863 181.902 404.962 180.605 411.358 174.209C417.815 167.752 419.142 162.623 415.341 158.822C411.539 155.021 406.41 156.348 399.954 162.804ZM385.744 103.883C389.606 107.744 394.765 106.447 401.221 99.9908C407.617 93.5948 408.884 88.4659 405.022 84.6041C401.221 80.8027 396.122 82.1 389.726 88.496C383.27 94.9524 381.943 100.081 385.744 103.883Z" fill="black" fill-opacity="0.05"/>
<path d="M-5.61741 8.36318L3.97661 -1.23084L33.2112 28.0038L23.6172 37.5978L-5.61741 8.36318ZM113.376 58.5692L86.3135 31.5068L70.2933 46.0788L70.4743 46.2599C74.9998 47.7684 79.0728 50.3328 82.6931 53.9532C89.2098 60.4699 92.4682 67.2883 92.4682 74.4084C92.4682 81.5285 89.2098 88.3469 82.6931 94.8635C67.1858 110.371 50.5924 109.285 32.9128 91.6052C26.4565 85.1488 21.7198 77.8176 18.7028 69.6114L31.6457 62.0991C34.4817 70.1242 38.2227 76.4599 42.8689 81.1061C52.4026 90.6398 61.5139 91.0621 70.2028 82.3732C77.3832 75.1928 77.5039 68.133 70.5649 61.194C67.0048 57.6339 62.6603 55.7634 57.5315 55.5824L46.6703 44.7212L85.1369 9.87498L123.604 48.3416L113.376 58.5692ZM186.114 110.852L197.247 121.985L94.9706 151.853L83.8379 140.72L186.114 110.852ZM146.742 142.983C152.776 142.742 158.418 145.246 163.667 150.495C168.917 155.745 171.421 161.387 171.18 167.42C170.938 173.454 167.952 179.338 162.219 185.07C156.487 190.802 150.604 193.789 144.57 194.03C138.596 194.211 132.985 191.677 127.735 186.428C122.486 181.178 119.951 175.566 120.132 169.593C120.374 163.559 123.361 157.676 129.093 151.943C134.825 146.211 140.708 143.224 146.742 142.983ZM136.424 68.7649C142.458 68.5236 148.1 71.0277 153.349 76.2772C158.599 81.5268 161.103 87.1686 160.862 93.2026C160.741 99.2365 157.815 105.12 152.082 110.852C146.35 116.584 140.437 119.541 134.342 119.722C128.308 119.963 122.667 117.459 117.417 112.21C112.167 106.96 109.663 101.318 109.905 95.2843C110.146 89.2503 113.133 83.3672 118.865 77.6349C124.597 71.9026 130.45 68.946 136.424 68.7649ZM139.954 162.804C133.558 169.201 132.261 174.299 136.062 178.101C139.863 181.902 144.962 180.605 151.358 174.209C157.815 167.752 159.142 162.623 155.341 158.822C151.539 155.021 146.41 156.348 139.954 162.804ZM125.744 103.883C129.606 107.744 134.765 106.447 141.221 99.9908C147.617 93.5948 148.884 88.4659 145.022 84.6041C141.221 80.8027 136.122 82.1 129.726 88.496C123.27 94.9524 121.943 100.081 125.744 103.883Z" fill="black" fill-opacity="0.05"/>
<path d="M1279.38 189.363L1288.98 179.769L1318.21 209.004L1308.62 218.598L1279.38 189.363ZM1398.38 239.569L1371.31 212.507L1355.29 227.079L1355.47 227.26C1360 228.768 1364.07 231.333 1367.69 234.953C1374.21 241.47 1377.47 248.288 1377.47 255.408C1377.47 262.528 1374.21 269.347 1367.69 275.864C1352.19 291.371 1335.59 290.285 1317.91 272.605C1311.46 266.149 1306.72 258.818 1303.7 250.611L1316.65 243.099C1319.48 251.124 1323.22 257.46 1327.87 262.106C1337.4 271.64 1346.51 272.062 1355.2 263.373C1362.38 256.193 1362.5 249.133 1355.56 242.194C1352 238.634 1347.66 236.763 1342.53 236.582L1331.67 225.721L1370.14 190.875L1408.6 229.342L1398.38 239.569ZM1471.11 291.852L1482.25 302.985L1379.97 332.853L1368.84 321.72L1471.11 291.852ZM1431.74 323.983C1437.78 323.742 1443.42 326.246 1448.67 331.495C1453.92 336.745 1456.42 342.387 1456.18 348.42C1455.94 354.454 1452.95 360.338 1447.22 366.07C1441.49 371.802 1435.6 374.789 1429.57 375.03C1423.6 375.211 1417.98 372.677 1412.73 367.428C1407.49 362.178 1404.95 356.566 1405.13 350.593C1405.37 344.559 1408.36 338.676 1414.09 332.943C1419.82 327.211 1425.71 324.224 1431.74 323.983ZM1421.42 249.765C1427.46 249.524 1433.1 252.028 1438.35 257.277C1443.6 262.527 1446.1 268.169 1445.86 274.203C1445.74 280.237 1442.81 286.12 1437.08 291.852C1431.35 297.584 1425.44 300.541 1419.34 300.722C1413.31 300.963 1407.67 298.459 1402.42 293.21C1397.17 287.96 1394.66 282.318 1394.9 276.284C1395.15 270.25 1398.13 264.367 1403.86 258.635C1409.6 252.903 1415.45 249.946 1421.42 249.765ZM1424.95 343.804C1418.56 350.201 1417.26 355.299 1421.06 359.101C1424.86 362.902 1429.96 361.605 1436.36 355.209C1442.81 348.752 1444.14 343.623 1440.34 339.822C1436.54 336.021 1431.41 337.348 1424.95 343.804ZM1410.74 284.883C1414.61 288.744 1419.76 287.447 1426.22 280.991C1432.62 274.595 1433.88 269.466 1430.02 265.604C1426.22 261.803 1421.12 263.1 1414.73 269.496C1408.27 275.952 1406.94 281.081 1410.74 284.883Z" fill="black" fill-opacity="0.05"/>
<path d="M1054.38 189.363L1063.98 179.769L1093.21 209.004L1083.62 218.598L1054.38 189.363ZM1173.38 239.569L1146.31 212.507L1130.29 227.079L1130.47 227.26C1135 228.768 1139.07 231.333 1142.69 234.953C1149.21 241.47 1152.47 248.288 1152.47 255.408C1152.47 262.528 1149.21 269.347 1142.69 275.864C1127.19 291.371 1110.59 290.285 1092.91 272.605C1086.46 266.149 1081.72 258.818 1078.7 250.611L1091.65 243.099C1094.48 251.124 1098.22 257.46 1102.87 262.106C1112.4 271.64 1121.51 272.062 1130.2 263.373C1137.38 256.193 1137.5 249.133 1130.56 242.194C1127 238.634 1122.66 236.763 1117.53 236.582L1106.67 225.721L1145.14 190.875L1183.6 229.342L1173.38 239.569ZM1246.11 291.852L1257.25 302.985L1154.97 332.853L1143.84 321.72L1246.11 291.852ZM1206.74 323.983C1212.78 323.742 1218.42 326.246 1223.67 331.495C1228.92 336.745 1231.42 342.387 1231.18 348.42C1230.94 354.454 1227.95 360.338 1222.22 366.07C1216.49 371.802 1210.6 374.789 1204.57 375.03C1198.6 375.211 1192.98 372.677 1187.73 367.428C1182.49 362.178 1179.95 356.566 1180.13 350.593C1180.37 344.559 1183.36 338.676 1189.09 332.943C1194.82 327.211 1200.71 324.224 1206.74 323.983ZM1196.42 249.765C1202.46 249.524 1208.1 252.028 1213.35 257.277C1218.6 262.527 1221.1 268.169 1220.86 274.203C1220.74 280.237 1217.81 286.12 1212.08 291.852C1206.35 297.584 1200.44 300.541 1194.34 300.722C1188.31 300.963 1182.67 298.459 1177.42 293.21C1172.17 287.96 1169.66 282.318 1169.9 276.284C1170.15 270.25 1173.13 264.367 1178.86 258.635C1184.6 252.903 1190.45 249.946 1196.42 249.765ZM1199.95 343.804C1193.56 350.201 1192.26 355.299 1196.06 359.101C1199.86 362.902 1204.96 361.605 1211.36 355.209C1217.81 348.752 1219.14 343.623 1215.34 339.822C1211.54 336.021 1206.41 337.348 1199.95 343.804ZM1185.74 284.883C1189.61 288.744 1194.76 287.447 1201.22 280.991C1207.62 274.595 1208.88 269.466 1205.02 265.604C1201.22 261.803 1196.12 263.1 1189.73 269.496C1183.27 275.952 1181.94 281.081 1185.74 284.883Z" fill="black" fill-opacity="0.05"/>
<path d="M792.383 189.363L801.977 179.769L831.211 209.004L821.617 218.598L792.383 189.363ZM911.376 239.569L884.314 212.507L868.293 227.079L868.474 227.26C873 228.768 877.073 231.333 880.693 234.953C887.21 241.47 890.468 248.288 890.468 255.408C890.468 262.528 887.21 269.347 880.693 275.864C865.186 291.371 848.592 290.285 830.913 272.605C824.456 266.149 819.72 258.818 816.703 250.611L829.646 243.099C832.482 251.124 836.223 257.46 840.869 262.106C850.403 271.64 859.514 272.062 868.203 263.373C875.383 256.193 875.504 249.133 868.565 242.194C865.005 238.634 860.66 236.763 855.531 236.582L844.67 225.721L883.137 190.875L921.604 229.342L911.376 239.569ZM984.114 291.852L995.247 302.985L892.971 332.853L881.838 321.72L984.114 291.852ZM944.742 323.983C950.776 323.742 956.418 326.246 961.667 331.495C966.917 336.745 969.421 342.387 969.18 348.42C968.938 354.454 965.952 360.338 960.219 366.07C954.487 371.802 948.604 374.789 942.57 375.03C936.596 375.211 930.985 372.677 925.735 367.428C920.486 362.178 917.951 356.566 918.132 350.593C918.374 344.559 921.361 338.676 927.093 332.943C932.825 327.211 938.708 324.224 944.742 323.983ZM934.424 249.765C940.458 249.524 946.1 252.028 951.349 257.277C956.599 262.527 959.103 268.169 958.862 274.203C958.741 280.237 955.815 286.12 950.082 291.852C944.35 297.584 938.437 300.541 932.342 300.722C926.308 300.963 920.667 298.459 915.417 293.21C910.167 287.96 907.663 282.318 907.905 276.284C908.146 270.25 911.133 264.367 916.865 258.635C922.597 252.903 928.45 249.946 934.424 249.765ZM937.954 343.804C931.558 350.201 930.261 355.299 934.062 359.101C937.863 362.902 942.962 361.605 949.358 355.209C955.815 348.752 957.142 343.623 953.341 339.822C949.539 336.021 944.41 337.348 937.954 343.804ZM923.744 284.883C927.606 288.744 932.765 287.447 939.221 280.991C945.617 274.595 946.884 269.466 943.022 265.604C939.221 261.803 934.122 263.1 927.726 269.496C921.27 275.952 919.943 281.081 923.744 284.883Z" fill="black" fill-opacity="0.05"/>
<path d="M526.383 190.363L535.977 180.769L565.211 210.004L555.617 219.598L526.383 190.363ZM645.376 240.569L618.314 213.507L602.293 228.079L602.474 228.26C607 229.768 611.073 232.333 614.693 235.953C621.21 242.47 624.468 249.288 624.468 256.408C624.468 263.528 621.21 270.347 614.693 276.864C599.186 292.371 582.592 291.285 564.913 273.605C558.456 267.149 553.72 259.818 550.703 251.611L563.646 244.099C566.482 252.124 570.223 258.46 574.869 263.106C584.403 272.64 593.514 273.062 602.203 264.373C609.383 257.193 609.504 250.133 602.565 243.194C599.005 239.634 594.66 237.763 589.531 237.582L578.67 226.721L617.137 191.875L655.604 230.342L645.376 240.569ZM718.114 292.852L729.247 303.985L626.971 333.853L615.838 322.72L718.114 292.852ZM678.742 324.983C684.776 324.742 690.418 327.246 695.667 332.495C700.917 337.745 703.421 343.387 703.18 349.42C702.938 355.454 699.952 361.338 694.219 367.07C688.487 372.802 682.604 375.789 676.57 376.03C670.596 376.211 664.985 373.677 659.735 368.428C654.486 363.178 651.951 357.566 652.132 351.593C652.374 345.559 655.361 339.676 661.093 333.943C666.825 328.211 672.708 325.224 678.742 324.983ZM668.424 250.765C674.458 250.524 680.1 253.028 685.349 258.277C690.599 263.527 693.103 269.169 692.862 275.203C692.741 281.237 689.815 287.12 684.082 292.852C678.35 298.584 672.437 301.541 666.342 301.722C660.308 301.963 654.667 299.459 649.417 294.21C644.167 288.96 641.663 283.318 641.905 277.284C642.146 271.25 645.133 265.367 650.865 259.635C656.597 253.903 662.45 250.946 668.424 250.765ZM671.954 344.804C665.558 351.201 664.261 356.299 668.062 360.101C671.863 363.902 676.962 362.605 683.358 356.209C689.815 349.752 691.142 344.623 687.341 340.822C683.539 337.021 678.41 338.348 671.954 344.804ZM657.744 285.883C661.606 289.744 666.765 288.447 673.221 281.991C679.617 275.595 680.884 270.466 677.022 266.604C673.221 262.803 668.122 264.1 661.726 270.496C655.27 276.952 653.943 282.081 657.744 285.883Z" fill="black" fill-opacity="0.05"/>
<path d="M254.383 190.363L263.977 180.769L293.211 210.004L283.617 219.598L254.383 190.363ZM373.376 240.569L346.314 213.507L330.293 228.079L330.474 228.26C335 229.768 339.073 232.333 342.693 235.953C349.21 242.47 352.468 249.288 352.468 256.408C352.468 263.528 349.21 270.347 342.693 276.864C327.186 292.371 310.592 291.285 292.913 273.605C286.456 267.149 281.72 259.818 278.703 251.611L291.646 244.099C294.482 252.124 298.223 258.46 302.869 263.106C312.403 272.64 321.514 273.062 330.203 264.373C337.383 257.193 337.504 250.133 330.565 243.194C327.005 239.634 322.66 237.763 317.531 237.582L306.67 226.721L345.137 191.875L383.604 230.342L373.376 240.569ZM446.114 292.852L457.247 303.985L354.971 333.853L343.838 322.72L446.114 292.852ZM406.742 324.983C412.776 324.742 418.418 327.246 423.667 332.495C428.917 337.745 431.421 343.387 431.18 349.42C430.938 355.454 427.952 361.338 422.219 367.07C416.487 372.802 410.604 375.789 404.57 376.03C398.596 376.211 392.985 373.677 387.735 368.428C382.486 363.178 379.951 357.566 380.132 351.593C380.374 345.559 383.361 339.676 389.093 333.943C394.825 328.211 400.708 325.224 406.742 324.983ZM396.424 250.765C402.458 250.524 408.1 253.028 413.349 258.277C418.599 263.527 421.103 269.169 420.862 275.203C420.741 281.237 417.815 287.12 412.082 292.852C406.35 298.584 400.437 301.541 394.342 301.722C388.308 301.963 382.667 299.459 377.417 294.21C372.167 288.96 369.663 283.318 369.905 277.284C370.146 271.25 373.133 265.367 378.865 259.635C384.597 253.903 390.45 250.946 396.424 250.765ZM399.954 344.804C393.558 351.201 392.261 356.299 396.062 360.101C399.863 363.902 404.962 362.605 411.358 356.209C417.815 349.752 419.142 344.623 415.341 340.822C411.539 337.021 406.41 338.348 399.954 344.804ZM385.744 285.883C389.606 289.744 394.765 288.447 401.221 281.991C407.617 275.595 408.884 270.466 405.022 266.604C401.221 262.803 396.122 264.1 389.726 270.496C383.27 276.952 381.943 282.081 385.744 285.883Z" fill="black" fill-opacity="0.05"/>
<path d="M-5.61741 190.363L3.97661 180.769L33.2112 210.004L23.6172 219.598L-5.61741 190.363ZM113.376 240.569L86.3135 213.507L70.2933 228.079L70.4743 228.26C74.9998 229.768 79.0728 232.333 82.6931 235.953C89.2098 242.47 92.4682 249.288 92.4682 256.408C92.4682 263.528 89.2098 270.347 82.6931 276.864C67.1858 292.371 50.5924 291.285 32.9128 273.605C26.4565 267.149 21.7198 259.818 18.7028 251.611L31.6457 244.099C34.4817 252.124 38.2227 258.46 42.8689 263.106C52.4026 272.64 61.5139 273.062 70.2028 264.373C77.3832 257.193 77.5039 250.133 70.5649 243.194C67.0048 239.634 62.6603 237.763 57.5315 237.582L46.6703 226.721L85.1369 191.875L123.604 230.342L113.376 240.569ZM186.114 292.852L197.247 303.985L94.9706 333.853L83.8379 322.72L186.114 292.852ZM146.742 324.983C152.776 324.742 158.418 327.246 163.667 332.495C168.917 337.745 171.421 343.387 171.18 349.42C170.938 355.454 167.952 361.338 162.219 367.07C156.487 372.802 150.604 375.789 144.57 376.03C138.596 376.211 132.985 373.677 127.735 368.428C122.486 363.178 119.951 357.566 120.132 351.593C120.374 345.559 123.361 339.676 129.093 333.943C134.825 328.211 140.708 325.224 146.742 324.983ZM136.424 250.765C142.458 250.524 148.1 253.028 153.349 258.277C158.599 263.527 161.103 269.169 160.862 275.203C160.741 281.237 157.815 287.12 152.082 292.852C146.35 298.584 140.437 301.541 134.342 301.722C128.308 301.963 122.667 299.459 117.417 294.21C112.167 288.96 109.663 283.318 109.905 277.284C110.146 271.25 113.133 265.367 118.865 259.635C124.597 253.903 130.45 250.946 136.424 250.765ZM139.954 344.804C133.558 351.201 132.261 356.299 136.062 360.101C139.863 363.902 144.962 362.605 151.358 356.209C157.815 349.752 159.142 344.623 155.341 340.822C151.539 337.021 146.41 338.348 139.954 344.804ZM125.744 285.883C129.606 289.744 134.765 288.447 141.221 281.991C147.617 275.595 148.884 270.466 145.022 266.604C141.221 262.803 136.122 264.1 129.726 270.496C123.27 276.952 121.943 282.081 125.744 285.883Z" fill="black" fill-opacity="0.05"/>
<path d="M1274.38 348.363L1283.98 338.769L1313.21 368.004L1303.62 377.598L1274.38 348.363ZM1393.38 398.569L1366.31 371.507L1350.29 386.079L1350.47 386.26C1355 387.768 1359.07 390.333 1362.69 393.953C1369.21 400.47 1372.47 407.288 1372.47 414.408C1372.47 421.528 1369.21 428.347 1362.69 434.864C1347.19 450.371 1330.59 449.285 1312.91 431.605C1306.46 425.149 1301.72 417.818 1298.7 409.611L1311.65 402.099C1314.48 410.124 1318.22 416.46 1322.87 421.106C1332.4 430.64 1341.51 431.062 1350.2 422.373C1357.38 415.193 1357.5 408.133 1350.56 401.194C1347 397.634 1342.66 395.763 1337.53 395.582L1326.67 384.721L1365.14 349.875L1403.6 388.342L1393.38 398.569ZM1466.11 450.852L1477.25 461.985L1374.97 491.853L1363.84 480.72L1466.11 450.852ZM1426.74 482.983C1432.78 482.742 1438.42 485.246 1443.67 490.495C1448.92 495.745 1451.42 501.387 1451.18 507.42C1450.94 513.454 1447.95 519.338 1442.22 525.07C1436.49 530.802 1430.6 533.789 1424.57 534.03C1418.6 534.211 1412.98 531.677 1407.73 526.428C1402.49 521.178 1399.95 515.566 1400.13 509.593C1400.37 503.559 1403.36 497.676 1409.09 491.943C1414.82 486.211 1420.71 483.224 1426.74 482.983ZM1416.42 408.765C1422.46 408.524 1428.1 411.028 1433.35 416.277C1438.6 421.527 1441.1 427.169 1440.86 433.203C1440.74 439.237 1437.81 445.12 1432.08 450.852C1426.35 456.584 1420.44 459.541 1414.34 459.722C1408.31 459.963 1402.67 457.459 1397.42 452.21C1392.17 446.96 1389.66 441.318 1389.9 435.284C1390.15 429.25 1393.13 423.367 1398.86 417.635C1404.6 411.903 1410.45 408.946 1416.42 408.765ZM1419.95 502.804C1413.56 509.201 1412.26 514.299 1416.06 518.101C1419.86 521.902 1424.96 520.605 1431.36 514.209C1437.81 507.752 1439.14 502.623 1435.34 498.822C1431.54 495.021 1426.41 496.348 1419.95 502.804ZM1405.74 443.883C1409.61 447.744 1414.76 446.447 1421.22 439.991C1427.62 433.595 1428.88 428.466 1425.02 424.604C1421.22 420.803 1416.12 422.1 1409.73 428.496C1403.27 434.952 1401.94 440.081 1405.74 443.883Z" fill="black" fill-opacity="0.05"/>
<path d="M1049.38 348.363L1058.98 338.769L1088.21 368.004L1078.62 377.598L1049.38 348.363ZM1168.38 398.569L1141.31 371.507L1125.29 386.079L1125.47 386.26C1130 387.768 1134.07 390.333 1137.69 393.953C1144.21 400.47 1147.47 407.288 1147.47 414.408C1147.47 421.528 1144.21 428.347 1137.69 434.864C1122.19 450.371 1105.59 449.285 1087.91 431.605C1081.46 425.149 1076.72 417.818 1073.7 409.611L1086.65 402.099C1089.48 410.124 1093.22 416.46 1097.87 421.106C1107.4 430.64 1116.51 431.062 1125.2 422.373C1132.38 415.193 1132.5 408.133 1125.56 401.194C1122 397.634 1117.66 395.763 1112.53 395.582L1101.67 384.721L1140.14 349.875L1178.6 388.342L1168.38 398.569ZM1241.11 450.852L1252.25 461.985L1149.97 491.853L1138.84 480.72L1241.11 450.852ZM1201.74 482.983C1207.78 482.742 1213.42 485.246 1218.67 490.495C1223.92 495.745 1226.42 501.387 1226.18 507.42C1225.94 513.454 1222.95 519.338 1217.22 525.07C1211.49 530.802 1205.6 533.789 1199.57 534.03C1193.6 534.211 1187.98 531.677 1182.73 526.428C1177.49 521.178 1174.95 515.566 1175.13 509.593C1175.37 503.559 1178.36 497.676 1184.09 491.943C1189.82 486.211 1195.71 483.224 1201.74 482.983ZM1191.42 408.765C1197.46 408.524 1203.1 411.028 1208.35 416.277C1213.6 421.527 1216.1 427.169 1215.86 433.203C1215.74 439.237 1212.81 445.12 1207.08 450.852C1201.35 456.584 1195.44 459.541 1189.34 459.722C1183.31 459.963 1177.67 457.459 1172.42 452.21C1167.17 446.96 1164.66 441.318 1164.9 435.284C1165.15 429.25 1168.13 423.367 1173.86 417.635C1179.6 411.903 1185.45 408.946 1191.42 408.765ZM1194.95 502.804C1188.56 509.201 1187.26 514.299 1191.06 518.101C1194.86 521.902 1199.96 520.605 1206.36 514.209C1212.81 507.752 1214.14 502.623 1210.34 498.822C1206.54 495.021 1201.41 496.348 1194.95 502.804ZM1180.74 443.883C1184.61 447.744 1189.76 446.447 1196.22 439.991C1202.62 433.595 1203.88 428.466 1200.02 424.604C1196.22 420.803 1191.12 422.1 1184.73 428.496C1178.27 434.952 1176.94 440.081 1180.74 443.883Z" fill="black" fill-opacity="0.05"/>
<path d="M787.383 348.363L796.977 338.769L826.211 368.004L816.617 377.598L787.383 348.363ZM906.376 398.569L879.314 371.507L863.293 386.079L863.474 386.26C868 387.768 872.073 390.333 875.693 393.953C882.21 400.47 885.468 407.288 885.468 414.408C885.468 421.528 882.21 428.347 875.693 434.864C860.186 450.371 843.592 449.285 825.913 431.605C819.456 425.149 814.72 417.818 811.703 409.611L824.646 402.099C827.482 410.124 831.223 416.46 835.869 421.106C845.403 430.64 854.514 431.062 863.203 422.373C870.383 415.193 870.504 408.133 863.565 401.194C860.005 397.634 855.66 395.763 850.531 395.582L839.67 384.721L878.137 349.875L916.604 388.342L906.376 398.569ZM979.114 450.852L990.247 461.985L887.971 491.853L876.838 480.72L979.114 450.852ZM939.742 482.983C945.776 482.742 951.418 485.246 956.667 490.495C961.917 495.745 964.421 501.387 964.18 507.42C963.938 513.454 960.952 519.338 955.219 525.07C949.487 530.802 943.604 533.789 937.57 534.03C931.596 534.211 925.985 531.677 920.735 526.428C915.486 521.178 912.951 515.566 913.132 509.593C913.374 503.559 916.361 497.676 922.093 491.943C927.825 486.211 933.708 483.224 939.742 482.983ZM929.424 408.765C935.458 408.524 941.1 411.028 946.349 416.277C951.599 421.527 954.103 427.169 953.862 433.203C953.741 439.237 950.815 445.12 945.082 450.852C939.35 456.584 933.437 459.541 927.342 459.722C921.308 459.963 915.667 457.459 910.417 452.21C905.167 446.96 902.663 441.318 902.905 435.284C903.146 429.25 906.133 423.367 911.865 417.635C917.597 411.903 923.45 408.946 929.424 408.765ZM932.954 502.804C926.558 509.201 925.261 514.299 929.062 518.101C932.863 521.902 937.962 520.605 944.358 514.209C950.815 507.752 952.142 502.623 948.341 498.822C944.539 495.021 939.41 496.348 932.954 502.804ZM918.744 443.883C922.606 447.744 927.765 446.447 934.221 439.991C940.617 433.595 941.884 428.466 938.022 424.604C934.221 420.803 929.122 422.1 922.726 428.496C916.27 434.952 914.943 440.081 918.744 443.883Z" fill="black" fill-opacity="0.05"/>
<path d="M521.383 349.363L530.977 339.769L560.211 369.004L550.617 378.598L521.383 349.363ZM640.376 399.569L613.314 372.507L597.293 387.079L597.474 387.26C602 388.768 606.073 391.333 609.693 394.953C616.21 401.47 619.468 408.288 619.468 415.408C619.468 422.528 616.21 429.347 609.693 435.864C594.186 451.371 577.592 450.285 559.913 432.605C553.456 426.149 548.72 418.818 545.703 410.611L558.646 403.099C561.482 411.124 565.223 417.46 569.869 422.106C579.403 431.64 588.514 432.062 597.203 423.373C604.383 416.193 604.504 409.133 597.565 402.194C594.005 398.634 589.66 396.763 584.531 396.582L573.67 385.721L612.137 350.875L650.604 389.342L640.376 399.569ZM713.114 451.852L724.247 462.985L621.971 492.853L610.838 481.72L713.114 451.852ZM673.742 483.983C679.776 483.742 685.418 486.246 690.667 491.495C695.917 496.745 698.421 502.387 698.18 508.42C697.938 514.454 694.952 520.338 689.219 526.07C683.487 531.802 677.604 534.789 671.57 535.03C665.596 535.211 659.985 532.677 654.735 527.428C649.486 522.178 646.951 516.566 647.132 510.593C647.374 504.559 650.361 498.676 656.093 492.943C661.825 487.211 667.708 484.224 673.742 483.983ZM663.424 409.765C669.458 409.524 675.1 412.028 680.349 417.277C685.599 422.527 688.103 428.169 687.862 434.203C687.741 440.237 684.815 446.12 679.082 451.852C673.35 457.584 667.437 460.541 661.342 460.722C655.308 460.963 649.667 458.459 644.417 453.21C639.167 447.96 636.663 442.318 636.905 436.284C637.146 430.25 640.133 424.367 645.865 418.635C651.597 412.903 657.45 409.946 663.424 409.765ZM666.954 503.804C660.558 510.201 659.261 515.299 663.062 519.101C666.863 522.902 671.962 521.605 678.358 515.209C684.815 508.752 686.142 503.623 682.341 499.822C678.539 496.021 673.41 497.348 666.954 503.804ZM652.744 444.883C656.606 448.744 661.765 447.447 668.221 440.991C674.617 434.595 675.884 429.466 672.022 425.604C668.221 421.803 663.122 423.1 656.726 429.496C650.27 435.952 648.943 441.081 652.744 444.883Z" fill="black" fill-opacity="0.05"/>
<path d="M249.383 349.363L258.977 339.769L288.211 369.004L278.617 378.598L249.383 349.363ZM368.376 399.569L341.314 372.507L325.293 387.079L325.474 387.26C330 388.768 334.073 391.333 337.693 394.953C344.21 401.47 347.468 408.288 347.468 415.408C347.468 422.528 344.21 429.347 337.693 435.864C322.186 451.371 305.592 450.285 287.913 432.605C281.456 426.149 276.72 418.818 273.703 410.611L286.646 403.099C289.482 411.124 293.223 417.46 297.869 422.106C307.403 431.64 316.514 432.062 325.203 423.373C332.383 416.193 332.504 409.133 325.565 402.194C322.005 398.634 317.66 396.763 312.531 396.582L301.67 385.721L340.137 350.875L378.604 389.342L368.376 399.569ZM441.114 451.852L452.247 462.985L349.971 492.853L338.838 481.72L441.114 451.852ZM401.742 483.983C407.776 483.742 413.418 486.246 418.667 491.495C423.917 496.745 426.421 502.387 426.18 508.42C425.938 514.454 422.952 520.338 417.219 526.07C411.487 531.802 405.604 534.789 399.57 535.03C393.596 535.211 387.985 532.677 382.735 527.428C377.486 522.178 374.951 516.566 375.132 510.593C375.374 504.559 378.361 498.676 384.093 492.943C389.825 487.211 395.708 484.224 401.742 483.983ZM391.424 409.765C397.458 409.524 403.1 412.028 408.349 417.277C413.599 422.527 416.103 428.169 415.862 434.203C415.741 440.237 412.815 446.12 407.082 451.852C401.35 457.584 395.437 460.541 389.342 460.722C383.308 460.963 377.667 458.459 372.417 453.21C367.167 447.96 364.663 442.318 364.905 436.284C365.146 430.25 368.133 424.367 373.865 418.635C379.597 412.903 385.45 409.946 391.424 409.765ZM394.954 503.804C388.558 510.201 387.261 515.299 391.062 519.101C394.863 522.902 399.962 521.605 406.358 515.209C412.815 508.752 414.142 503.623 410.341 499.822C406.539 496.021 401.41 497.348 394.954 503.804ZM380.744 444.883C384.606 448.744 389.765 447.447 396.221 440.991C402.617 434.595 403.884 429.466 400.022 425.604C396.221 421.803 391.122 423.1 384.726 429.496C378.27 435.952 376.943 441.081 380.744 444.883Z" fill="black" fill-opacity="0.05"/>
<path d="M-10.6174 349.363L-1.02339 339.769L28.2112 369.004L18.6172 378.598L-10.6174 349.363ZM108.376 399.569L81.3135 372.507L65.2933 387.079L65.4743 387.26C69.9998 388.768 74.0728 391.333 77.6931 394.953C84.2098 401.47 87.4682 408.288 87.4682 415.408C87.4682 422.528 84.2098 429.347 77.6931 435.864C62.1858 451.371 45.5924 450.285 27.9128 432.605C21.4565 426.149 16.7198 418.818 13.7028 410.611L26.6457 403.099C29.4817 411.124 33.2227 417.46 37.8689 422.106C47.4026 431.64 56.5139 432.062 65.2028 423.373C72.3832 416.193 72.5039 409.133 65.5649 402.194C62.0048 398.634 57.6603 396.763 52.5315 396.582L41.6703 385.721L80.1369 350.875L118.604 389.342L108.376 399.569ZM181.114 451.852L192.247 462.985L89.9706 492.853L78.8379 481.72L181.114 451.852ZM141.742 483.983C147.776 483.742 153.418 486.246 158.667 491.495C163.917 496.745 166.421 502.387 166.18 508.42C165.938 514.454 162.952 520.338 157.219 526.07C151.487 531.802 145.604 534.789 139.57 535.03C133.596 535.211 127.985 532.677 122.735 527.428C117.486 522.178 114.951 516.566 115.132 510.593C115.374 504.559 118.361 498.676 124.093 492.943C129.825 487.211 135.708 484.224 141.742 483.983ZM131.424 409.765C137.458 409.524 143.1 412.028 148.349 417.277C153.599 422.527 156.103 428.169 155.862 434.203C155.741 440.237 152.815 446.12 147.082 451.852C141.35 457.584 135.437 460.541 129.342 460.722C123.308 460.963 117.667 458.459 112.417 453.21C107.167 447.96 104.663 442.318 104.905 436.284C105.146 430.25 108.133 424.367 113.865 418.635C119.597 412.903 125.45 409.946 131.424 409.765ZM134.954 503.804C128.558 510.201 127.261 515.299 131.062 519.101C134.863 522.902 139.962 521.605 146.358 515.209C152.815 508.752 154.142 503.623 150.341 499.822C146.539 496.021 141.41 497.348 134.954 503.804ZM120.744 444.883C124.606 448.744 129.765 447.447 136.221 440.991C142.617 434.595 143.884 429.466 140.022 425.604C136.221 421.803 131.122 423.1 124.726 429.496C118.27 435.952 116.943 441.081 120.744 444.883Z" fill="black" fill-opacity="0.05"/>
<path d="M1274.38 547.363L1283.98 537.769L1313.21 567.004L1303.62 576.598L1274.38 547.363ZM1393.38 597.569L1366.31 570.507L1350.29 585.079L1350.47 585.26C1355 586.768 1359.07 589.333 1362.69 592.953C1369.21 599.47 1372.47 606.288 1372.47 613.408C1372.47 620.528 1369.21 627.347 1362.69 633.864C1347.19 649.371 1330.59 648.285 1312.91 630.605C1306.46 624.149 1301.72 616.818 1298.7 608.611L1311.65 601.099C1314.48 609.124 1318.22 615.46 1322.87 620.106C1332.4 629.64 1341.51 630.062 1350.2 621.373C1357.38 614.193 1357.5 607.133 1350.56 600.194C1347 596.634 1342.66 594.763 1337.53 594.582L1326.67 583.721L1365.14 548.875L1403.6 587.342L1393.38 597.569ZM1466.11 649.852L1477.25 660.985L1374.97 690.853L1363.84 679.72L1466.11 649.852ZM1426.74 681.983C1432.78 681.742 1438.42 684.246 1443.67 689.495C1448.92 694.745 1451.42 700.387 1451.18 706.42C1450.94 712.454 1447.95 718.338 1442.22 724.07C1436.49 729.802 1430.6 732.789 1424.57 733.03C1418.6 733.211 1412.98 730.677 1407.73 725.428C1402.49 720.178 1399.95 714.566 1400.13 708.593C1400.37 702.559 1403.36 696.676 1409.09 690.943C1414.82 685.211 1420.71 682.224 1426.74 681.983ZM1416.42 607.765C1422.46 607.524 1428.1 610.028 1433.35 615.277C1438.6 620.527 1441.1 626.169 1440.86 632.203C1440.74 638.237 1437.81 644.12 1432.08 649.852C1426.35 655.584 1420.44 658.541 1414.34 658.722C1408.31 658.963 1402.67 656.459 1397.42 651.21C1392.17 645.96 1389.66 640.318 1389.9 634.284C1390.15 628.25 1393.13 622.367 1398.86 616.635C1404.6 610.903 1410.45 607.946 1416.42 607.765ZM1419.95 701.804C1413.56 708.201 1412.26 713.299 1416.06 717.101C1419.86 720.902 1424.96 719.605 1431.36 713.209C1437.81 706.752 1439.14 701.623 1435.34 697.822C1431.54 694.021 1426.41 695.348 1419.95 701.804ZM1405.74 642.883C1409.61 646.744 1414.76 645.447 1421.22 638.991C1427.62 632.595 1428.88 627.466 1425.02 623.604C1421.22 619.803 1416.12 621.1 1409.73 627.496C1403.27 633.952 1401.94 639.081 1405.74 642.883Z" fill="black" fill-opacity="0.05"/>
<path d="M1049.38 547.363L1058.98 537.769L1088.21 567.004L1078.62 576.598L1049.38 547.363ZM1168.38 597.569L1141.31 570.507L1125.29 585.079L1125.47 585.26C1130 586.768 1134.07 589.333 1137.69 592.953C1144.21 599.47 1147.47 606.288 1147.47 613.408C1147.47 620.528 1144.21 627.347 1137.69 633.864C1122.19 649.371 1105.59 648.285 1087.91 630.605C1081.46 624.149 1076.72 616.818 1073.7 608.611L1086.65 601.099C1089.48 609.124 1093.22 615.46 1097.87 620.106C1107.4 629.64 1116.51 630.062 1125.2 621.373C1132.38 614.193 1132.5 607.133 1125.56 600.194C1122 596.634 1117.66 594.763 1112.53 594.582L1101.67 583.721L1140.14 548.875L1178.6 587.342L1168.38 597.569ZM1241.11 649.852L1252.25 660.985L1149.97 690.853L1138.84 679.72L1241.11 649.852ZM1201.74 681.983C1207.78 681.742 1213.42 684.246 1218.67 689.495C1223.92 694.745 1226.42 700.387 1226.18 706.42C1225.94 712.454 1222.95 718.338 1217.22 724.07C1211.49 729.802 1205.6 732.789 1199.57 733.03C1193.6 733.211 1187.98 730.677 1182.73 725.428C1177.49 720.178 1174.95 714.566 1175.13 708.593C1175.37 702.559 1178.36 696.676 1184.09 690.943C1189.82 685.211 1195.71 682.224 1201.74 681.983ZM1191.42 607.765C1197.46 607.524 1203.1 610.028 1208.35 615.277C1213.6 620.527 1216.1 626.169 1215.86 632.203C1215.74 638.237 1212.81 644.12 1207.08 649.852C1201.35 655.584 1195.44 658.541 1189.34 658.722C1183.31 658.963 1177.67 656.459 1172.42 651.21C1167.17 645.96 1164.66 640.318 1164.9 634.284C1165.15 628.25 1168.13 622.367 1173.86 616.635C1179.6 610.903 1185.45 607.946 1191.42 607.765ZM1194.95 701.804C1188.56 708.201 1187.26 713.299 1191.06 717.101C1194.86 720.902 1199.96 719.605 1206.36 713.209C1212.81 706.752 1214.14 701.623 1210.34 697.822C1206.54 694.021 1201.41 695.348 1194.95 701.804ZM1180.74 642.883C1184.61 646.744 1189.76 645.447 1196.22 638.991C1202.62 632.595 1203.88 627.466 1200.02 623.604C1196.22 619.803 1191.12 621.1 1184.73 627.496C1178.27 633.952 1176.94 639.081 1180.74 642.883Z" fill="black" fill-opacity="0.05"/>
<path d="M787.383 547.363L796.977 537.769L826.211 567.004L816.617 576.598L787.383 547.363ZM906.376 597.569L879.314 570.507L863.293 585.079L863.474 585.26C868 586.768 872.073 589.333 875.693 592.953C882.21 599.47 885.468 606.288 885.468 613.408C885.468 620.528 882.21 627.347 875.693 633.864C860.186 649.371 843.592 648.285 825.913 630.605C819.456 624.149 814.72 616.818 811.703 608.611L824.646 601.099C827.482 609.124 831.223 615.46 835.869 620.106C845.403 629.64 854.514 630.062 863.203 621.373C870.383 614.193 870.504 607.133 863.565 600.194C860.005 596.634 855.66 594.763 850.531 594.582L839.67 583.721L878.137 548.875L916.604 587.342L906.376 597.569ZM979.114 649.852L990.247 660.985L887.971 690.853L876.838 679.72L979.114 649.852ZM939.742 681.983C945.776 681.742 951.418 684.246 956.667 689.495C961.917 694.745 964.421 700.387 964.18 706.42C963.938 712.454 960.952 718.338 955.219 724.07C949.487 729.802 943.604 732.789 937.57 733.03C931.596 733.211 925.985 730.677 920.735 725.428C915.486 720.178 912.951 714.566 913.132 708.593C913.374 702.559 916.361 696.676 922.093 690.943C927.825 685.211 933.708 682.224 939.742 681.983ZM929.424 607.765C935.458 607.524 941.1 610.028 946.349 615.277C951.599 620.527 954.103 626.169 953.862 632.203C953.741 638.237 950.815 644.12 945.082 649.852C939.35 655.584 933.437 658.541 927.342 658.722C921.308 658.963 915.667 656.459 910.417 651.21C905.167 645.96 902.663 640.318 902.905 634.284C903.146 628.25 906.133 622.367 911.865 616.635C917.597 610.903 923.45 607.946 929.424 607.765ZM932.954 701.804C926.558 708.201 925.261 713.299 929.062 717.101C932.863 720.902 937.962 719.605 944.358 713.209C950.815 706.752 952.142 701.623 948.341 697.822C944.539 694.021 939.41 695.348 932.954 701.804ZM918.744 642.883C922.606 646.744 927.765 645.447 934.221 638.991C940.617 632.595 941.884 627.466 938.022 623.604C934.221 619.803 929.122 621.1 922.726 627.496C916.27 633.952 914.943 639.081 918.744 642.883Z" fill="black" fill-opacity="0.05"/>
<path d="M521.383 548.363L530.977 538.769L560.211 568.004L550.617 577.598L521.383 548.363ZM640.376 598.569L613.314 571.507L597.293 586.079L597.474 586.26C602 587.768 606.073 590.333 609.693 593.953C616.21 600.47 619.468 607.288 619.468 614.408C619.468 621.528 616.21 628.347 609.693 634.864C594.186 650.371 577.592 649.285 559.913 631.605C553.456 625.149 548.72 617.818 545.703 609.611L558.646 602.099C561.482 610.124 565.223 616.46 569.869 621.106C579.403 630.64 588.514 631.062 597.203 622.373C604.383 615.193 604.504 608.133 597.565 601.194C594.005 597.634 589.66 595.763 584.531 595.582L573.67 584.721L612.137 549.875L650.604 588.342L640.376 598.569ZM713.114 650.852L724.247 661.985L621.971 691.853L610.838 680.72L713.114 650.852ZM673.742 682.983C679.776 682.742 685.418 685.246 690.667 690.495C695.917 695.745 698.421 701.387 698.18 707.42C697.938 713.454 694.952 719.338 689.219 725.07C683.487 730.802 677.604 733.789 671.57 734.03C665.596 734.211 659.985 731.677 654.735 726.428C649.486 721.178 646.951 715.566 647.132 709.593C647.374 703.559 650.361 697.676 656.093 691.943C661.825 686.211 667.708 683.224 673.742 682.983ZM663.424 608.765C669.458 608.524 675.1 611.028 680.349 616.277C685.599 621.527 688.103 627.169 687.862 633.203C687.741 639.237 684.815 645.12 679.082 650.852C673.35 656.584 667.437 659.541 661.342 659.722C655.308 659.963 649.667 657.459 644.417 652.21C639.167 646.96 636.663 641.318 636.905 635.284C637.146 629.25 640.133 623.367 645.865 617.635C651.597 611.903 657.45 608.946 663.424 608.765ZM666.954 702.804C660.558 709.201 659.261 714.299 663.062 718.101C666.863 721.902 671.962 720.605 678.358 714.209C684.815 707.752 686.142 702.623 682.341 698.822C678.539 695.021 673.41 696.348 666.954 702.804ZM652.744 643.883C656.606 647.744 661.765 646.447 668.221 639.991C674.617 633.595 675.884 628.466 672.022 624.604C668.221 620.803 663.122 622.1 656.726 628.496C650.27 634.952 648.943 640.081 652.744 643.883Z" fill="black" fill-opacity="0.05"/>
<path d="M249.383 548.363L258.977 538.769L288.211 568.004L278.617 577.598L249.383 548.363ZM368.376 598.569L341.314 571.507L325.293 586.079L325.474 586.26C330 587.768 334.073 590.333 337.693 593.953C344.21 600.47 347.468 607.288 347.468 614.408C347.468 621.528 344.21 628.347 337.693 634.864C322.186 650.371 305.592 649.285 287.913 631.605C281.456 625.149 276.72 617.818 273.703 609.611L286.646 602.099C289.482 610.124 293.223 616.46 297.869 621.106C307.403 630.64 316.514 631.062 325.203 622.373C332.383 615.193 332.504 608.133 325.565 601.194C322.005 597.634 317.66 595.763 312.531 595.582L301.67 584.721L340.137 549.875L378.604 588.342L368.376 598.569ZM441.114 650.852L452.247 661.985L349.971 691.853L338.838 680.72L441.114 650.852ZM401.742 682.983C407.776 682.742 413.418 685.246 418.667 690.495C423.917 695.745 426.421 701.387 426.18 707.42C425.938 713.454 422.952 719.338 417.219 725.07C411.487 730.802 405.604 733.789 399.57 734.03C393.596 734.211 387.985 731.677 382.735 726.428C377.486 721.178 374.951 715.566 375.132 709.593C375.374 703.559 378.361 697.676 384.093 691.943C389.825 686.211 395.708 683.224 401.742 682.983ZM391.424 608.765C397.458 608.524 403.1 611.028 408.349 616.277C413.599 621.527 416.103 627.169 415.862 633.203C415.741 639.237 412.815 645.12 407.082 650.852C401.35 656.584 395.437 659.541 389.342 659.722C383.308 659.963 377.667 657.459 372.417 652.21C367.167 646.96 364.663 641.318 364.905 635.284C365.146 629.25 368.133 623.367 373.865 617.635C379.597 611.903 385.45 608.946 391.424 608.765ZM394.954 702.804C388.558 709.201 387.261 714.299 391.062 718.101C394.863 721.902 399.962 720.605 406.358 714.209C412.815 707.752 414.142 702.623 410.341 698.822C406.539 695.021 401.41 696.348 394.954 702.804ZM380.744 643.883C384.606 647.744 389.765 646.447 396.221 639.991C402.617 633.595 403.884 628.466 400.022 624.604C396.221 620.803 391.122 622.1 384.726 628.496C378.27 634.952 376.943 640.081 380.744 643.883Z" fill="black" fill-opacity="0.05"/>
<path d="M-10.6174 548.363L-1.02339 538.769L28.2112 568.004L18.6172 577.598L-10.6174 548.363ZM108.376 598.569L81.3135 571.507L65.2933 586.079L65.4743 586.26C69.9998 587.768 74.0728 590.333 77.6931 593.953C84.2098 600.47 87.4682 607.288 87.4682 614.408C87.4682 621.528 84.2098 628.347 77.6931 634.864C62.1858 650.371 45.5924 649.285 27.9128 631.605C21.4565 625.149 16.7198 617.818 13.7028 609.611L26.6457 602.099C29.4817 610.124 33.2227 616.46 37.8689 621.106C47.4026 630.64 56.5139 631.062 65.2028 622.373C72.3832 615.193 72.5039 608.133 65.5649 601.194C62.0048 597.634 57.6603 595.763 52.5315 595.582L41.6703 584.721L80.1369 549.875L118.604 588.342L108.376 598.569ZM181.114 650.852L192.247 661.985L89.9706 691.853L78.8379 680.72L181.114 650.852ZM141.742 682.983C147.776 682.742 153.418 685.246 158.667 690.495C163.917 695.745 166.421 701.387 166.18 707.42C165.938 713.454 162.952 719.338 157.219 725.07C151.487 730.802 145.604 733.789 139.57 734.03C133.596 734.211 127.985 731.677 122.735 726.428C117.486 721.178 114.951 715.566 115.132 709.593C115.374 703.559 118.361 697.676 124.093 691.943C129.825 686.211 135.708 683.224 141.742 682.983ZM131.424 608.765C137.458 608.524 143.1 611.028 148.349 616.277C153.599 621.527 156.103 627.169 155.862 633.203C155.741 639.237 152.815 645.12 147.082 650.852C141.35 656.584 135.437 659.541 129.342 659.722C123.308 659.963 117.667 657.459 112.417 652.21C107.167 646.96 104.663 641.318 104.905 635.284C105.146 629.25 108.133 623.367 113.865 617.635C119.597 611.903 125.45 608.946 131.424 608.765ZM134.954 702.804C128.558 709.201 127.261 714.299 131.062 718.101C134.863 721.902 139.962 720.605 146.358 714.209C152.815 707.752 154.142 702.623 150.341 698.822C146.539 695.021 141.41 696.348 134.954 702.804ZM120.744 643.883C124.606 647.744 129.765 646.447 136.221 639.991C142.617 633.595 143.884 628.466 140.022 624.604C136.221 620.803 131.122 622.1 124.726 628.496C118.27 634.952 116.943 640.081 120.744 643.883Z" fill="black" fill-opacity="0.05"/>
<path d="M109.74 113.51H144.08V58.09H119.43C119.43 78.3767 118.977 91.0133 118.07 96C117.277 100.873 114.5 106.71 109.74 113.51ZM85.09 113.51C89.6233 108.07 92.6267 103.707 94.1 100.42C95.5733 97.02 96.5367 92.6567 96.99 87.33C97.5567 81.89 97.84 72.1433 97.84 58.09V41.6H165.84V113.51H177.57V150.4H155.64V130H99.54V150.4H77.78V113.51H85.09ZM211.276 78.66H252.756C252.643 71.2933 250.773 65.6833 247.146 61.83C243.633 57.8633 238.646 55.88 232.186 55.88C225.953 55.88 220.966 57.8633 217.226 61.83C213.6 65.7967 211.616 71.4067 211.276 78.66ZM211.276 93.79C211.843 100.477 214.393 105.803 218.926 109.77C223.573 113.623 229.41 115.55 236.436 115.55C244.823 115.55 253.153 113.453 261.426 109.26L266.526 124.9C256.326 129.433 245.56 131.7 234.226 131.7C220.853 131.7 209.973 127.563 201.586 119.29C193.313 111.017 189.176 99.8533 189.176 85.8C189.176 71.52 193.03 60.3 200.736 52.14C208.443 43.98 218.87 39.9 232.016 39.9C245.163 39.9 255.363 43.81 262.616 51.63C269.983 59.45 273.666 70.67 273.666 85.29C273.666 88.1233 273.496 90.9567 273.156 93.79H211.276ZM315.03 91.58V130H292.08V41.6H315.03V75.6H350.9V41.6H374.02V130H350.9V91.58H315.03ZM397.5 41.6H419.6V66.25C424.02 65.4567 428.27 65.06 432.35 65.06C444.93 65.06 454.563 67.95 461.25 73.73C468.05 79.51 471.45 87.3867 471.45 97.36C471.45 108.92 467.88 117.533 460.74 123.2C453.6 128.867 442.436 131.7 427.25 131.7C416.823 131.7 406.906 130.85 397.5 129.15V41.6ZM419.6 82.74V114.02C422.433 114.813 425.663 115.21 429.29 115.21C436.543 115.21 441.813 113.793 445.1 110.96C448.5 108.013 450.2 103.48 450.2 97.36C450.2 92.3733 448.386 88.52 444.76 85.8C441.246 82.9667 435.976 81.55 428.95 81.55C425.89 81.55 422.773 81.9467 419.6 82.74ZM603.165 85.8C603.165 76.28 601.352 69.14 597.725 64.38C594.212 59.62 589.225 57.24 582.765 57.24C576.758 57.24 571.885 59.7333 568.145 64.72C564.518 69.5933 562.705 76.3367 562.705 84.95V86.65C562.705 95.49 564.518 102.347 568.145 107.22C571.885 111.98 576.758 114.36 582.765 114.36C588.772 114.36 593.645 111.923 597.385 107.05C601.238 102.063 603.165 94.98 603.165 85.8ZM624.415 85.8C624.415 100.42 621.128 111.753 614.555 119.8C608.095 127.733 599.595 131.7 589.055 131.7C578.175 131.7 569.505 127.563 563.045 119.29H562.705V167.4H540.605V41.6H561.345L561.685 54.01H562.025C568.825 44.6033 577.835 39.9 589.055 39.9C600.048 39.9 608.662 43.81 614.895 51.63C621.242 59.45 624.415 70.84 624.415 85.8ZM648.485 52.31C656.418 44.0367 667.128 39.9 680.615 39.9C694.101 39.9 704.811 44.0367 712.745 52.31C720.678 60.5833 724.645 71.7467 724.645 85.8C724.645 99.8533 720.678 111.017 712.745 119.29C704.811 127.563 694.101 131.7 680.615 131.7C667.128 131.7 656.418 127.563 648.485 119.29C640.665 111.017 636.755 99.8533 636.755 85.8C636.755 71.7467 640.665 60.5833 648.485 52.31ZM680.615 114.87C687.528 114.87 692.911 112.433 696.765 107.56C700.618 102.573 702.545 95.32 702.545 85.8C702.545 76.28 700.618 69.0833 696.765 64.21C692.911 59.2233 687.528 56.73 680.615 56.73C673.815 56.73 668.488 59.2233 664.635 64.21C660.781 69.0833 658.855 76.28 658.855 85.8C658.855 95.32 660.781 102.573 664.635 107.56C668.488 112.433 673.815 114.87 680.615 114.87ZM787.538 41.6H808.958V76.79H815.588L835.308 41.6H857.748L832.588 84.44L858.598 130H836.158L815.588 93.11H808.958V130H787.538V93.11H780.908L760.338 130H737.898L763.908 84.61L738.748 41.6H761.188L780.908 76.79H787.538V41.6ZM903.793 113.51H938.133V58.09H913.483C913.483 78.3767 913.029 91.0133 912.123 96C911.329 100.873 908.553 106.71 903.793 113.51ZM879.143 113.51C883.676 108.07 886.679 103.707 888.153 100.42C889.626 97.02 890.589 92.6567 891.043 87.33C891.609 81.89 891.893 72.1433 891.893 58.09V41.6H959.893V113.51H971.623V150.4H949.693V130H893.593V150.4H871.833V113.51H879.143ZM1005.33 78.66H1046.81C1046.7 71.2933 1044.83 65.6833 1041.2 61.83C1037.69 57.8633 1032.7 55.88 1026.24 55.88C1020.01 55.88 1015.02 57.8633 1011.28 61.83C1007.65 65.7967 1005.67 71.4067 1005.33 78.66ZM1005.33 93.79C1005.9 100.477 1008.45 105.803 1012.98 109.77C1017.63 113.623 1023.46 115.55 1030.49 115.55C1038.88 115.55 1047.21 113.453 1055.48 109.26L1060.58 124.9C1050.38 129.433 1039.61 131.7 1028.28 131.7C1014.91 131.7 1004.03 127.563 995.639 119.29C987.366 111.017 983.229 99.8533 983.229 85.8C983.229 71.52 987.083 60.3 994.789 52.14C1002.5 43.98 1012.92 39.9 1026.07 39.9C1039.22 39.9 1049.42 43.81 1056.67 51.63C1064.04 59.45 1067.72 70.67 1067.72 85.29C1067.72 88.1233 1067.55 90.9567 1067.21 93.79H1005.33ZM1109.08 91.58V130H1086.13V41.6H1109.08V75.6H1144.95V41.6H1168.07V130H1144.95V91.58H1109.08ZM1214.16 41.6V99.23H1214.33L1250.88 41.6H1273.83V130H1251.39V72.37H1251.05L1214.5 130H1191.55V41.6H1214.16ZM1315.83 89.71V89.54C1309.49 87.9533 1304.27 85.12 1300.19 81.04C1296.23 76.96 1294.24 72.0867 1294.24 66.42C1294.24 49.08 1308.01 40.41 1335.55 40.41C1346.89 40.41 1357.71 41.0333 1368.02 42.28V130H1345.41V96.68H1338.44C1334.02 96.68 1330.96 97.2467 1329.26 98.38C1327.68 99.4 1325.86 102.12 1323.82 106.54L1313.62 130H1291.35L1302.74 105.35C1304.9 100.703 1306.94 97.2467 1308.86 94.98C1310.79 92.7133 1313.11 90.9567 1315.83 89.71ZM1345.41 81.04V57.07C1342.58 56.73 1339.63 56.56 1336.57 56.56C1322.75 56.56 1315.83 60.5833 1315.83 68.63C1315.83 76.9033 1323.09 81.04 1337.59 81.04H1345.41Z" fill="black"/>
<path d="M96.08 537.128C100.496 532.456 106.32 530.12 113.552 530.12C120.784 530.12 126.576 532.456 130.928 537.128C135.344 541.8 137.552 548.104 137.552 556.04C137.552 563.976 135.344 570.28 130.928 574.952C126.576 579.624 120.784 581.96 113.552 581.96C106.32 581.96 100.496 579.624 96.08 574.952C91.728 570.28 89.552 563.976 89.552 556.04C89.552 548.104 91.728 541.8 96.08 537.128ZM103.184 569.48C105.744 572.68 109.2 574.28 113.552 574.28C117.904 574.28 121.36 572.68 123.92 569.48C126.48 566.28 127.76 561.8 127.76 556.04C127.76 550.28 126.48 545.8 123.92 542.6C121.36 539.4 117.904 537.8 113.552 537.8C109.2 537.8 105.744 539.4 103.184 542.6C100.624 545.8 99.344 550.28 99.344 556.04C99.344 561.8 100.624 566.28 103.184 569.48ZM190.277 538.856H172.901V581H162.533V538.856H145.157V531.08H190.277V538.856ZM239.677 531.08V567.368H239.869L264.445 531.08H274.813V581H264.829V544.712H264.637L240.157 581H229.693V531.08H239.677ZM330.902 538.856H313.526V581H303.158V538.856H285.782V531.08H330.902V538.856ZM344.986 537.128C349.402 532.456 355.226 530.12 362.458 530.12C369.69 530.12 375.482 532.456 379.834 537.128C384.25 541.8 386.458 548.104 386.458 556.04C386.458 563.976 384.25 570.28 379.834 574.952C375.482 579.624 369.69 581.96 362.458 581.96C355.226 581.96 349.402 579.624 344.986 574.952C340.634 570.28 338.458 563.976 338.458 556.04C338.458 548.104 340.634 541.8 344.986 537.128ZM352.09 569.48C354.65 572.68 358.106 574.28 362.458 574.28C366.81 574.28 370.266 572.68 372.826 569.48C375.386 566.28 376.666 561.8 376.666 556.04C376.666 550.28 375.386 545.8 372.826 542.6C370.266 539.4 366.81 537.8 362.458 537.8C358.106 537.8 354.65 539.4 352.09 542.6C349.53 545.8 348.25 550.28 348.25 556.04C348.25 561.8 349.53 566.28 352.09 569.48ZM407.023 581H396.943V531.08H434.383V539.24H407.023V581ZM448.018 537.128C452.434 532.456 458.258 530.12 465.49 530.12C472.722 530.12 478.514 532.456 482.866 537.128C487.282 541.8 489.49 548.104 489.49 556.04C489.49 563.976 487.282 570.28 482.866 574.952C478.514 579.624 472.722 581.96 465.49 581.96C458.258 581.96 452.434 579.624 448.018 574.952C443.666 570.28 441.49 563.976 441.49 556.04C441.49 548.104 443.666 541.8 448.018 537.128ZM455.122 569.48C457.682 572.68 461.138 574.28 465.49 574.28C469.842 574.28 473.298 572.68 475.858 569.48C478.418 566.28 479.698 561.8 479.698 556.04C479.698 550.28 478.418 545.8 475.858 542.6C473.298 539.4 469.842 537.8 465.49 537.8C461.138 537.8 457.682 539.4 455.122 542.6C452.562 545.8 451.282 550.28 451.282 556.04C451.282 561.8 452.562 566.28 455.122 569.48ZM509.959 574.568C512.071 574.888 514.119 575.048 516.103 575.048C525.255 575.048 529.831 572.008 529.831 565.928C529.831 560.424 525.063 557.672 515.527 557.672H509.959V574.568ZM509.959 551.336H515.335C519.239 551.336 522.247 550.696 524.359 549.416C526.535 548.072 527.623 546.216 527.623 543.848C527.623 539.304 523.655 537.032 515.719 537.032C513.927 537.032 512.007 537.192 509.959 537.512V551.336ZM539.527 566.6C539.527 576.648 531.591 581.672 515.719 581.672C510.343 581.672 505.095 581.32 499.975 580.616V531.464C504.775 530.76 509.735 530.408 514.855 530.408C529.639 530.408 537.031 534.504 537.031 542.696C537.031 545.576 536.007 548.04 533.959 550.088C531.975 552.072 529.191 553.384 525.607 554.024V554.12C530.023 554.76 533.447 556.2 535.879 558.44C538.311 560.616 539.527 563.336 539.527 566.6ZM553.674 537.128C558.09 532.456 563.914 530.12 571.146 530.12C578.378 530.12 584.17 532.456 588.522 537.128C592.938 541.8 595.146 548.104 595.146 556.04C595.146 563.976 592.938 570.28 588.522 574.952C584.17 579.624 578.378 581.96 571.146 581.96C563.914 581.96 558.09 579.624 553.674 574.952C549.322 570.28 547.146 563.976 547.146 556.04C547.146 548.104 549.322 541.8 553.674 537.128ZM560.778 569.48C563.338 572.68 566.794 574.28 571.146 574.28C575.498 574.28 578.954 572.68 581.514 569.48C584.074 566.28 585.354 561.8 585.354 556.04C585.354 550.28 584.074 545.8 581.514 542.6C578.954 539.4 575.498 537.8 571.146 537.8C566.794 537.8 563.338 539.4 560.778 542.6C558.218 545.8 556.938 550.28 556.938 556.04C556.938 561.8 558.218 566.28 560.778 569.48ZM615.615 531.08V567.368H615.807L640.383 531.08H650.751V581H640.767V544.712H640.575L616.095 581H605.631V531.08H615.615ZM609.471 509.48H617.631C617.759 511.784 618.847 513.736 620.895 515.336C622.943 516.872 625.375 517.64 628.191 517.64C631.007 517.64 633.439 516.872 635.487 515.336C637.535 513.736 638.623 511.784 638.751 509.48H646.911C646.911 513.832 645.151 517.48 641.631 520.424C638.111 523.368 633.631 524.84 628.191 524.84C622.751 524.84 618.271 523.368 614.751 520.424C611.231 517.48 609.471 513.832 609.471 509.48ZM728.62 541.352C724.46 539.112 720.14 537.992 715.66 537.992C710.732 537.992 706.86 539.56 704.044 542.696C701.228 545.832 699.82 550.28 699.82 556.04C699.82 561.672 701.292 566.12 704.236 569.384C707.244 572.648 711.052 574.28 715.66 574.28C720.14 574.28 724.46 573.16 728.62 570.92L731.02 578.6C725.9 580.84 720.62 581.96 715.18 581.96C707.628 581.96 701.484 579.624 696.748 574.952C692.076 570.28 689.74 563.976 689.74 556.04C689.74 547.912 691.98 541.576 696.46 537.032C700.94 532.424 707.18 530.12 715.18 530.12C720.62 530.12 725.9 531.24 731.02 533.48L728.62 541.352ZM751.304 531.08L765.128 569.48H765.32L778.184 531.08H788.552L769.832 581C766.568 589.704 762.984 595.56 759.08 598.568C755.24 601.576 749.544 603.08 741.992 603.08L741.512 595.208C746.76 595.208 750.664 594.248 753.224 592.328C755.784 590.472 758.12 586.696 760.232 581L740.552 531.08H751.304ZM845.8 544.52L831.4 567.368H822.856L808.456 544.52H808.264V581H798.568V531.08H809.704L827.08 560.168H827.176L844.552 531.08H855.784V581H845.896V544.52H845.8ZM916.863 544.52L902.463 567.368H893.919L879.519 544.52H879.327V581H869.631V531.08H880.767L898.143 560.168H898.239L915.615 531.08H926.847V581H916.959V544.52H916.863ZM988.213 581V531.08H997.525V581H988.213ZM940.693 531.08H950.293V545.672C952.533 545.224 955.253 545 958.453 545C965.749 545 971.317 546.6 975.157 549.8C979.061 552.936 981.013 557.256 981.013 562.76C981.013 569.224 978.997 574.056 974.965 577.256C970.997 580.392 964.853 581.96 956.533 581.96C950.965 581.96 945.685 581.48 940.693 580.52V531.08ZM950.293 553.352V573.512C952.661 574.024 954.965 574.28 957.205 574.28C962.133 574.28 965.749 573.352 968.053 571.496C970.421 569.576 971.605 566.664 971.605 562.76C971.605 559.56 970.389 557.096 967.957 555.368C965.525 553.576 961.877 552.68 957.013 552.68C954.389 552.68 952.149 552.904 950.293 553.352ZM1067.53 554.696C1071.3 555.336 1074.34 556.872 1076.65 559.304C1078.95 561.672 1080.1 564.424 1080.1 567.56C1080.1 571.912 1078.09 575.4 1074.06 578.024C1070.09 580.648 1064.36 581.96 1056.87 581.96C1050.22 581.96 1043.59 580.744 1037 578.312L1039.3 571.208C1045.38 573.256 1051.08 574.28 1056.39 574.28C1065.48 574.28 1070.02 571.656 1070.02 566.408C1070.02 563.72 1068.55 561.736 1065.61 560.456C1062.66 559.112 1057.51 558.44 1050.15 558.44H1046.31V551.048H1050.15C1062.95 551.048 1069.35 548.712 1069.35 544.04C1069.35 539.752 1064.87 537.608 1055.91 537.608C1050.86 537.608 1045.54 538.696 1039.98 540.872L1037.67 533.768C1044.01 531.336 1050.41 530.12 1056.87 530.12C1063.98 530.12 1069.51 531.304 1073.48 533.672C1077.45 536.04 1079.43 539.016 1079.43 542.6C1079.43 545.288 1078.38 547.72 1076.26 549.896C1074.15 552.072 1071.24 553.608 1067.53 554.504V554.696ZM1120.83 556.232H1116.03C1110.27 556.232 1105.82 557.224 1102.68 559.208C1099.61 561.192 1098.08 563.816 1098.08 567.08C1098.08 569.448 1098.78 571.336 1100.19 572.744C1101.66 574.088 1103.58 574.76 1105.95 574.76C1109.98 574.76 1113.47 573.384 1116.41 570.632C1119.36 567.816 1120.83 564.392 1120.83 560.36V556.232ZM1088.67 567.56C1088.67 561.992 1091 557.544 1095.68 554.216C1100.41 550.824 1107.2 549.128 1116.03 549.128H1120.83V548.648C1120.83 544.616 1120 541.8 1118.33 540.2C1116.73 538.6 1113.88 537.8 1109.79 537.8C1103.71 537.8 1098.11 539.24 1092.99 542.12L1091.55 534.44C1096.92 531.56 1103 530.12 1109.79 530.12C1117.02 530.12 1122.27 531.592 1125.53 534.536C1128.8 537.416 1130.43 542.024 1130.43 548.36V567.56C1130.43 572.104 1130.91 576.584 1131.87 581H1122.75C1122.24 578.184 1121.95 575.624 1121.88 573.32H1121.69C1119.9 576.008 1117.4 578.12 1114.2 579.656C1111.07 581.192 1107.52 581.96 1103.55 581.96C1099 581.96 1095.39 580.68 1092.7 578.12C1090.01 575.56 1088.67 572.04 1088.67 567.56ZM1155.06 551.624L1175.7 531.08H1187.8L1163.03 554.984L1188.66 581H1176.57L1155.06 558.44H1154.87V581H1144.69V531.08H1154.87V551.624H1155.06ZM1229.39 556.232H1224.59C1218.83 556.232 1214.38 557.224 1211.25 559.208C1208.17 561.192 1206.64 563.816 1206.64 567.08C1206.64 569.448 1207.34 571.336 1208.75 572.744C1210.22 574.088 1212.14 574.76 1214.51 574.76C1218.54 574.76 1222.03 573.384 1224.97 570.632C1227.92 567.816 1229.39 564.392 1229.39 560.36V556.232ZM1197.23 567.56C1197.23 561.992 1199.57 557.544 1204.24 554.216C1208.97 550.824 1215.76 549.128 1224.59 549.128H1229.39V548.648C1229.39 544.616 1228.56 541.8 1226.89 540.2C1225.29 538.6 1222.45 537.8 1218.35 537.8C1212.27 537.8 1206.67 539.24 1201.55 542.12L1200.11 534.44C1205.49 531.56 1211.57 530.12 1218.35 530.12C1225.58 530.12 1230.83 531.592 1234.09 534.536C1237.36 537.416 1238.99 542.024 1238.99 548.36V567.56C1238.99 572.104 1239.47 576.584 1240.43 581H1231.31C1230.8 578.184 1230.51 575.624 1230.45 573.32H1230.25C1228.46 576.008 1225.97 578.12 1222.77 579.656C1219.63 581.192 1216.08 581.96 1212.11 581.96C1207.57 581.96 1203.95 580.68 1201.26 578.12C1198.57 575.56 1197.23 572.04 1197.23 567.56ZM1280.9 554.696C1284.68 555.336 1287.72 556.872 1290.02 559.304C1292.33 561.672 1293.48 564.424 1293.48 567.56C1293.48 571.912 1291.46 575.4 1287.43 578.024C1283.46 580.648 1277.74 581.96 1270.25 581.96C1263.59 581.96 1256.97 580.744 1250.38 578.312L1252.68 571.208C1258.76 573.256 1264.46 574.28 1269.77 574.28C1278.86 574.28 1283.4 571.656 1283.4 566.408C1283.4 563.72 1281.93 561.736 1278.98 560.456C1276.04 559.112 1270.89 558.44 1263.53 558.44H1259.69V551.048H1263.53C1276.33 551.048 1282.73 548.712 1282.73 544.04C1282.73 539.752 1278.25 537.608 1269.29 537.608C1264.23 537.608 1258.92 538.696 1253.35 540.872L1251.05 533.768C1257.38 531.336 1263.78 530.12 1270.25 530.12C1277.35 530.12 1282.89 531.304 1286.86 533.672C1290.82 536.04 1292.81 539.016 1292.81 542.6C1292.81 545.288 1291.75 547.72 1289.64 549.896C1287.53 552.072 1284.62 553.608 1280.9 554.504V554.696ZM1334.2 556.232H1329.4C1323.64 556.232 1319.2 557.224 1316.06 559.208C1312.99 561.192 1311.45 563.816 1311.45 567.08C1311.45 569.448 1312.16 571.336 1313.56 572.744C1315.04 574.088 1316.96 574.76 1319.32 574.76C1323.36 574.76 1326.84 573.384 1329.79 570.632C1332.73 567.816 1334.2 564.392 1334.2 560.36V556.232ZM1302.04 567.56C1302.04 561.992 1304.38 557.544 1309.05 554.216C1313.79 550.824 1320.57 549.128 1329.4 549.128H1334.2V548.648C1334.2 544.616 1333.37 541.8 1331.71 540.2C1330.11 538.6 1327.26 537.8 1323.16 537.8C1317.08 537.8 1311.48 539.24 1306.36 542.12L1304.92 534.44C1310.3 531.56 1316.38 530.12 1323.16 530.12C1330.4 530.12 1335.64 531.592 1338.91 534.536C1342.17 537.416 1343.8 542.024 1343.8 548.36V567.56C1343.8 572.104 1344.28 576.584 1345.24 581H1336.12C1335.61 578.184 1335.32 575.624 1335.26 573.32H1335.07C1333.28 576.008 1330.78 578.12 1327.58 579.656C1324.44 581.192 1320.89 581.96 1316.92 581.96C1312.38 581.96 1308.76 580.68 1306.08 578.12C1303.39 575.56 1302.04 572.04 1302.04 567.56Z" fill="black"/>
<rect x="445" y="265.457" width="535" height="197" rx="98.5" transform="rotate(-8 445 265.457)" fill="#E81D1D"/>
<path d="M599.875 356.578L597.595 340.353L640.311 334.35L642.592 350.575L599.875 356.578ZM714.834 292.984L677.948 298.168L679.483 315.531L679.737 315.496C683.387 313.259 687.324 311.844 691.549 311.25C701.013 309.92 708.679 311.428 714.546 315.774C720.414 320.119 723.995 326.898 725.289 336.108C728.353 357.91 716.914 370.634 690.972 374.28C681.507 375.61 672.385 375.083 663.605 372.697L665.636 354.962C674.501 357.335 681.849 358.112 687.679 357.293C700.101 355.547 705.582 349.477 704.121 339.083C702.933 330.633 698.115 327.002 689.664 328.189C685.946 328.712 682.496 330.834 679.314 334.556L660.934 337.139L655.987 283.546L712.393 275.619L714.834 292.984ZM800.537 263.231L817.902 260.79L781.472 360.268L764.107 362.709L800.537 263.231ZM804.696 313.057C808.376 307.973 814.061 304.89 821.751 303.809C829.44 302.729 835.713 304.131 840.567 308.015C845.494 311.804 848.528 317.754 849.668 325.867C850.808 333.979 849.538 340.577 845.858 345.662C842.262 350.734 836.619 353.811 828.93 354.891C821.24 355.972 814.926 354.576 809.986 350.703C805.132 346.818 802.135 340.82 800.994 332.707C799.854 324.595 801.088 318.045 804.696 313.057ZM736.024 277.856C739.704 272.771 745.389 269.689 753.079 268.608C760.769 267.527 767.041 268.929 771.896 272.814C776.75 276.699 779.748 282.698 780.888 290.81C782.028 298.922 780.8 305.514 777.204 310.587C773.597 315.575 767.948 318.609 760.258 319.69C752.569 320.771 746.26 319.417 741.333 315.628C736.478 311.743 733.481 305.745 732.341 297.633C731.201 289.52 732.429 282.928 736.024 277.856ZM818.106 330.302C819.27 338.584 822.26 342.386 827.077 341.709C831.894 341.032 833.72 336.553 832.556 328.272C831.404 320.075 828.42 316.315 823.603 316.992C818.787 317.669 816.954 322.106 818.106 330.302ZM758.406 306.507C760.772 306.175 762.416 304.996 763.337 302.971C764.259 300.945 764.405 297.693 763.776 293.215C762.612 284.933 759.664 281.125 754.932 281.79C750.115 282.467 748.289 286.946 749.453 295.228C750.605 303.424 753.589 307.184 758.406 306.507Z" fill="white"/>
</g>
<rect x="3" y="3" width="1445" height="694" stroke="#FDFD3E" stroke-width="6"/>
<defs>
<clipPath id="clip0_926_52">
<rect width="1451" height="700" fill="white"/>
</clipPath>
</defs>
</svg>
