<svg width="1451" height="700" viewBox="0 0 1451 700" fill="none" xmlns="http://www.w3.org/2000/svg">
<g clip-path="url(#clip0_927_320)">
<rect width="1451" height="700" fill="white"/>
<path d="M1279.38 7.36318L1288.98 -2.23084L1318.21 27.0038L1308.62 36.5978L1279.38 7.36318ZM1398.38 57.5692L1371.31 30.5068L1355.29 45.0788L1355.47 45.2599C1360 46.7684 1364.07 49.3328 1367.69 52.9532C1374.21 59.4699 1377.47 66.2883 1377.47 73.4084C1377.47 80.5285 1374.21 87.3469 1367.69 93.8635C1352.19 109.371 1335.59 108.285 1317.91 90.6052C1311.46 84.1488 1306.72 76.8176 1303.7 68.6114L1316.65 61.0991C1319.48 69.1242 1323.22 75.4599 1327.87 80.1061C1337.4 89.6398 1346.51 90.0621 1355.2 81.3732C1362.38 74.1928 1362.5 67.133 1355.56 60.194C1352 56.6339 1347.66 54.7634 1342.53 54.5824L1331.67 43.7212L1370.14 8.87498L1408.6 47.3416L1398.38 57.5692ZM1471.11 109.852L1482.25 120.985L1379.97 150.853L1368.84 139.72L1471.11 109.852ZM1431.74 141.983C1437.78 141.742 1443.42 144.246 1448.67 149.495C1453.92 154.745 1456.42 160.387 1456.18 166.42C1455.94 172.454 1452.95 178.338 1447.22 184.07C1441.49 189.802 1435.6 192.789 1429.57 193.03C1423.6 193.211 1417.98 190.677 1412.73 185.428C1407.49 180.178 1404.95 174.566 1405.13 168.593C1405.37 162.559 1408.36 156.676 1414.09 150.943C1419.82 145.211 1425.71 142.224 1431.74 141.983ZM1421.42 67.7649C1427.46 67.5236 1433.1 70.0277 1438.35 75.2772C1443.6 80.5268 1446.1 86.1686 1445.86 92.2026C1445.74 98.2365 1442.81 104.12 1437.08 109.852C1431.35 115.584 1425.44 118.541 1419.34 118.722C1413.31 118.963 1407.67 116.459 1402.42 111.21C1397.17 105.96 1394.66 100.318 1394.9 94.2843C1395.15 88.2503 1398.13 82.3672 1403.86 76.6349C1409.6 70.9026 1415.45 67.946 1421.42 67.7649ZM1424.95 161.804C1418.56 168.201 1417.26 173.299 1421.06 177.101C1424.86 180.902 1429.96 179.605 1436.36 173.209C1442.81 166.752 1444.14 161.623 1440.34 157.822C1436.54 154.021 1431.41 155.348 1424.95 161.804ZM1410.74 102.883C1414.61 106.744 1419.76 105.447 1426.22 98.9908C1432.62 92.5948 1433.88 87.4659 1430.02 83.6041C1426.22 79.8027 1421.12 81.1 1414.73 87.496C1408.27 93.9524 1406.94 99.0813 1410.74 102.883Z" fill="black" fill-opacity="0.05"/>
<path d="M1054.38 7.36318L1063.98 -2.23084L1093.21 27.0038L1083.62 36.5978L1054.38 7.36318ZM1173.38 57.5692L1146.31 30.5068L1130.29 45.0788L1130.47 45.2599C1135 46.7684 1139.07 49.3328 1142.69 52.9532C1149.21 59.4699 1152.47 66.2883 1152.47 73.4084C1152.47 80.5285 1149.21 87.3469 1142.69 93.8635C1127.19 109.371 1110.59 108.285 1092.91 90.6052C1086.46 84.1488 1081.72 76.8176 1078.7 68.6114L1091.65 61.0991C1094.48 69.1242 1098.22 75.4599 1102.87 80.1061C1112.4 89.6398 1121.51 90.0621 1130.2 81.3732C1137.38 74.1928 1137.5 67.133 1130.56 60.194C1127 56.6339 1122.66 54.7634 1117.53 54.5824L1106.67 43.7212L1145.14 8.87498L1183.6 47.3416L1173.38 57.5692ZM1246.11 109.852L1257.25 120.985L1154.97 150.853L1143.84 139.72L1246.11 109.852ZM1206.74 141.983C1212.78 141.742 1218.42 144.246 1223.67 149.495C1228.92 154.745 1231.42 160.387 1231.18 166.42C1230.94 172.454 1227.95 178.338 1222.22 184.07C1216.49 189.802 1210.6 192.789 1204.57 193.03C1198.6 193.211 1192.98 190.677 1187.73 185.428C1182.49 180.178 1179.95 174.566 1180.13 168.593C1180.37 162.559 1183.36 156.676 1189.09 150.943C1194.82 145.211 1200.71 142.224 1206.74 141.983ZM1196.42 67.7649C1202.46 67.5236 1208.1 70.0277 1213.35 75.2772C1218.6 80.5268 1221.1 86.1686 1220.86 92.2026C1220.74 98.2365 1217.81 104.12 1212.08 109.852C1206.35 115.584 1200.44 118.541 1194.34 118.722C1188.31 118.963 1182.67 116.459 1177.42 111.21C1172.17 105.96 1169.66 100.318 1169.9 94.2843C1170.15 88.2503 1173.13 82.3672 1178.86 76.6349C1184.6 70.9026 1190.45 67.946 1196.42 67.7649ZM1199.95 161.804C1193.56 168.201 1192.26 173.299 1196.06 177.101C1199.86 180.902 1204.96 179.605 1211.36 173.209C1217.81 166.752 1219.14 161.623 1215.34 157.822C1211.54 154.021 1206.41 155.348 1199.95 161.804ZM1185.74 102.883C1189.61 106.744 1194.76 105.447 1201.22 98.9908C1207.62 92.5948 1208.88 87.4659 1205.02 83.6041C1201.22 79.8027 1196.12 81.1 1189.73 87.496C1183.27 93.9524 1181.94 99.0813 1185.74 102.883Z" fill="black" fill-opacity="0.05"/>
<path d="M792.383 7.36318L801.977 -2.23084L831.211 27.0038L821.617 36.5978L792.383 7.36318ZM911.376 57.5692L884.314 30.5068L868.293 45.0788L868.474 45.2599C873 46.7684 877.073 49.3328 880.693 52.9532C887.21 59.4699 890.468 66.2883 890.468 73.4084C890.468 80.5285 887.21 87.3469 880.693 93.8635C865.186 109.371 848.592 108.285 830.913 90.6052C824.456 84.1488 819.72 76.8176 816.703 68.6114L829.646 61.0991C832.482 69.1242 836.223 75.4599 840.869 80.1061C850.403 89.6398 859.514 90.0621 868.203 81.3732C875.383 74.1928 875.504 67.133 868.565 60.194C865.005 56.6339 860.66 54.7634 855.531 54.5824L844.67 43.7212L883.137 8.87498L921.604 47.3416L911.376 57.5692ZM984.114 109.852L995.247 120.985L892.971 150.853L881.838 139.72L984.114 109.852ZM944.742 141.983C950.776 141.742 956.418 144.246 961.667 149.495C966.917 154.745 969.421 160.387 969.18 166.42C968.938 172.454 965.952 178.338 960.219 184.07C954.487 189.802 948.604 192.789 942.57 193.03C936.596 193.211 930.985 190.677 925.735 185.428C920.486 180.178 917.951 174.566 918.132 168.593C918.374 162.559 921.361 156.676 927.093 150.943C932.825 145.211 938.708 142.224 944.742 141.983ZM934.424 67.7649C940.458 67.5236 946.1 70.0277 951.349 75.2772C956.599 80.5268 959.103 86.1686 958.862 92.2026C958.741 98.2365 955.815 104.12 950.082 109.852C944.35 115.584 938.437 118.541 932.342 118.722C926.308 118.963 920.667 116.459 915.417 111.21C910.167 105.96 907.663 100.318 907.905 94.2843C908.146 88.2503 911.133 82.3672 916.865 76.6349C922.597 70.9026 928.45 67.946 934.424 67.7649ZM937.954 161.804C931.558 168.201 930.261 173.299 934.062 177.101C937.863 180.902 942.962 179.605 949.358 173.209C955.815 166.752 957.142 161.623 953.341 157.822C949.539 154.021 944.41 155.348 937.954 161.804ZM923.744 102.883C927.606 106.744 932.765 105.447 939.221 98.9908C945.617 92.5948 946.884 87.4659 943.022 83.6041C939.221 79.8027 934.122 81.1 927.726 87.496C921.27 93.9524 919.943 99.0813 923.744 102.883Z" fill="black" fill-opacity="0.05"/>
<path d="M526.383 8.36318L535.977 -1.23084L565.211 28.0038L555.617 37.5978L526.383 8.36318ZM645.376 58.5692L618.314 31.5068L602.293 46.0788L602.474 46.2599C607 47.7684 611.073 50.3328 614.693 53.9532C621.21 60.4699 624.468 67.2883 624.468 74.4084C624.468 81.5285 621.21 88.3469 614.693 94.8635C599.186 110.371 582.592 109.285 564.913 91.6052C558.456 85.1488 553.72 77.8176 550.703 69.6114L563.646 62.0991C566.482 70.1242 570.223 76.4599 574.869 81.1061C584.403 90.6398 593.514 91.0621 602.203 82.3732C609.383 75.1928 609.504 68.133 602.565 61.194C599.005 57.6339 594.66 55.7634 589.531 55.5824L578.67 44.7212L617.137 9.87498L655.604 48.3416L645.376 58.5692ZM718.114 110.852L729.247 121.985L626.971 151.853L615.838 140.72L718.114 110.852ZM678.742 142.983C684.776 142.742 690.418 145.246 695.667 150.495C700.917 155.745 703.421 161.387 703.18 167.42C702.938 173.454 699.952 179.338 694.219 185.07C688.487 190.802 682.604 193.789 676.57 194.03C670.596 194.211 664.985 191.677 659.735 186.428C654.486 181.178 651.951 175.566 652.132 169.593C652.374 163.559 655.361 157.676 661.093 151.943C666.825 146.211 672.708 143.224 678.742 142.983ZM668.424 68.7649C674.458 68.5236 680.1 71.0277 685.349 76.2772C690.599 81.5268 693.103 87.1686 692.862 93.2026C692.741 99.2365 689.815 105.12 684.082 110.852C678.35 116.584 672.437 119.541 666.342 119.722C660.308 119.963 654.667 117.459 649.417 112.21C644.167 106.96 641.663 101.318 641.905 95.2843C642.146 89.2503 645.133 83.3672 650.865 77.6349C656.597 71.9026 662.45 68.946 668.424 68.7649ZM671.954 162.804C665.558 169.201 664.261 174.299 668.062 178.101C671.863 181.902 676.962 180.605 683.358 174.209C689.815 167.752 691.142 162.623 687.341 158.822C683.539 155.021 678.41 156.348 671.954 162.804ZM657.744 103.883C661.606 107.744 666.765 106.447 673.221 99.9908C679.617 93.5948 680.884 88.4659 677.022 84.6041C673.221 80.8027 668.122 82.1 661.726 88.496C655.27 94.9524 653.943 100.081 657.744 103.883Z" fill="black" fill-opacity="0.05"/>
<path d="M254.383 8.36318L263.977 -1.23084L293.211 28.0038L283.617 37.5978L254.383 8.36318ZM373.376 58.5692L346.314 31.5068L330.293 46.0788L330.474 46.2599C335 47.7684 339.073 50.3328 342.693 53.9532C349.21 60.4699 352.468 67.2883 352.468 74.4084C352.468 81.5285 349.21 88.3469 342.693 94.8635C327.186 110.371 310.592 109.285 292.913 91.6052C286.456 85.1488 281.72 77.8176 278.703 69.6114L291.646 62.0991C294.482 70.1242 298.223 76.4599 302.869 81.1061C312.403 90.6398 321.514 91.0621 330.203 82.3732C337.383 75.1928 337.504 68.133 330.565 61.194C327.005 57.6339 322.66 55.7634 317.531 55.5824L306.67 44.7212L345.137 9.87498L383.604 48.3416L373.376 58.5692ZM446.114 110.852L457.247 121.985L354.971 151.853L343.838 140.72L446.114 110.852ZM406.742 142.983C412.776 142.742 418.418 145.246 423.667 150.495C428.917 155.745 431.421 161.387 431.18 167.42C430.938 173.454 427.952 179.338 422.219 185.07C416.487 190.802 410.604 193.789 404.57 194.03C398.596 194.211 392.985 191.677 387.735 186.428C382.486 181.178 379.951 175.566 380.132 169.593C380.374 163.559 383.361 157.676 389.093 151.943C394.825 146.211 400.708 143.224 406.742 142.983ZM396.424 68.7649C402.458 68.5236 408.1 71.0277 413.349 76.2772C418.599 81.5268 421.103 87.1686 420.862 93.2026C420.741 99.2365 417.815 105.12 412.082 110.852C406.35 116.584 400.437 119.541 394.342 119.722C388.308 119.963 382.667 117.459 377.417 112.21C372.167 106.96 369.663 101.318 369.905 95.2843C370.146 89.2503 373.133 83.3672 378.865 77.6349C384.597 71.9026 390.45 68.946 396.424 68.7649ZM399.954 162.804C393.558 169.201 392.261 174.299 396.062 178.101C399.863 181.902 404.962 180.605 411.358 174.209C417.815 167.752 419.142 162.623 415.341 158.822C411.539 155.021 406.41 156.348 399.954 162.804ZM385.744 103.883C389.606 107.744 394.765 106.447 401.221 99.9908C407.617 93.5948 408.884 88.4659 405.022 84.6041C401.221 80.8027 396.122 82.1 389.726 88.496C383.27 94.9524 381.943 100.081 385.744 103.883Z" fill="black" fill-opacity="0.05"/>
<path d="M-5.61741 8.36318L3.97661 -1.23084L33.2112 28.0038L23.6172 37.5978L-5.61741 8.36318ZM113.376 58.5692L86.3135 31.5068L70.2933 46.0788L70.4743 46.2599C74.9998 47.7684 79.0728 50.3328 82.6931 53.9532C89.2098 60.4699 92.4682 67.2883 92.4682 74.4084C92.4682 81.5285 89.2098 88.3469 82.6931 94.8635C67.1858 110.371 50.5924 109.285 32.9128 91.6052C26.4565 85.1488 21.7198 77.8176 18.7028 69.6114L31.6457 62.0991C34.4817 70.1242 38.2227 76.4599 42.8689 81.1061C52.4026 90.6398 61.5139 91.0621 70.2028 82.3732C77.3832 75.1928 77.5039 68.133 70.5649 61.194C67.0048 57.6339 62.6603 55.7634 57.5315 55.5824L46.6703 44.7212L85.1369 9.87498L123.604 48.3416L113.376 58.5692ZM186.114 110.852L197.247 121.985L94.9706 151.853L83.8379 140.72L186.114 110.852ZM146.742 142.983C152.776 142.742 158.418 145.246 163.667 150.495C168.917 155.745 171.421 161.387 171.18 167.42C170.938 173.454 167.952 179.338 162.219 185.07C156.487 190.802 150.604 193.789 144.57 194.03C138.596 194.211 132.985 191.677 127.735 186.428C122.486 181.178 119.951 175.566 120.132 169.593C120.374 163.559 123.361 157.676 129.093 151.943C134.825 146.211 140.708 143.224 146.742 142.983ZM136.424 68.7649C142.458 68.5236 148.1 71.0277 153.349 76.2772C158.599 81.5268 161.103 87.1686 160.862 93.2026C160.741 99.2365 157.815 105.12 152.082 110.852C146.35 116.584 140.437 119.541 134.342 119.722C128.308 119.963 122.667 117.459 117.417 112.21C112.167 106.96 109.663 101.318 109.905 95.2843C110.146 89.2503 113.133 83.3672 118.865 77.6349C124.597 71.9026 130.45 68.946 136.424 68.7649ZM139.954 162.804C133.558 169.201 132.261 174.299 136.062 178.101C139.863 181.902 144.962 180.605 151.358 174.209C157.815 167.752 159.142 162.623 155.341 158.822C151.539 155.021 146.41 156.348 139.954 162.804ZM125.744 103.883C129.606 107.744 134.765 106.447 141.221 99.9908C147.617 93.5948 148.884 88.4659 145.022 84.6041C141.221 80.8027 136.122 82.1 129.726 88.496C123.27 94.9524 121.943 100.081 125.744 103.883Z" fill="black" fill-opacity="0.05"/>
<path d="M1279.38 189.363L1288.98 179.769L1318.21 209.004L1308.62 218.598L1279.38 189.363ZM1398.38 239.569L1371.31 212.507L1355.29 227.079L1355.47 227.26C1360 228.768 1364.07 231.333 1367.69 234.953C1374.21 241.47 1377.47 248.288 1377.47 255.408C1377.47 262.528 1374.21 269.347 1367.69 275.864C1352.19 291.371 1335.59 290.285 1317.91 272.605C1311.46 266.149 1306.72 258.818 1303.7 250.611L1316.65 243.099C1319.48 251.124 1323.22 257.46 1327.87 262.106C1337.4 271.64 1346.51 272.062 1355.2 263.373C1362.38 256.193 1362.5 249.133 1355.56 242.194C1352 238.634 1347.66 236.763 1342.53 236.582L1331.67 225.721L1370.14 190.875L1408.6 229.342L1398.38 239.569ZM1471.11 291.852L1482.25 302.985L1379.97 332.853L1368.84 321.72L1471.11 291.852ZM1431.74 323.983C1437.78 323.742 1443.42 326.246 1448.67 331.495C1453.92 336.745 1456.42 342.387 1456.18 348.42C1455.94 354.454 1452.95 360.338 1447.22 366.07C1441.49 371.802 1435.6 374.789 1429.57 375.03C1423.6 375.211 1417.98 372.677 1412.73 367.428C1407.49 362.178 1404.95 356.566 1405.13 350.593C1405.37 344.559 1408.36 338.676 1414.09 332.943C1419.82 327.211 1425.71 324.224 1431.74 323.983ZM1421.42 249.765C1427.46 249.524 1433.1 252.028 1438.35 257.277C1443.6 262.527 1446.1 268.169 1445.86 274.203C1445.74 280.237 1442.81 286.12 1437.08 291.852C1431.35 297.584 1425.44 300.541 1419.34 300.722C1413.31 300.963 1407.67 298.459 1402.42 293.21C1397.17 287.96 1394.66 282.318 1394.9 276.284C1395.15 270.25 1398.13 264.367 1403.86 258.635C1409.6 252.903 1415.45 249.946 1421.42 249.765ZM1424.95 343.804C1418.56 350.201 1417.26 355.299 1421.06 359.101C1424.86 362.902 1429.96 361.605 1436.36 355.209C1442.81 348.752 1444.14 343.623 1440.34 339.822C1436.54 336.021 1431.41 337.348 1424.95 343.804ZM1410.74 284.883C1414.61 288.744 1419.76 287.447 1426.22 280.991C1432.62 274.595 1433.88 269.466 1430.02 265.604C1426.22 261.803 1421.12 263.1 1414.73 269.496C1408.27 275.952 1406.94 281.081 1410.74 284.883Z" fill="black" fill-opacity="0.05"/>
<path d="M1054.38 189.363L1063.98 179.769L1093.21 209.004L1083.62 218.598L1054.38 189.363ZM1173.38 239.569L1146.31 212.507L1130.29 227.079L1130.47 227.26C1135 228.768 1139.07 231.333 1142.69 234.953C1149.21 241.47 1152.47 248.288 1152.47 255.408C1152.47 262.528 1149.21 269.347 1142.69 275.864C1127.19 291.371 1110.59 290.285 1092.91 272.605C1086.46 266.149 1081.72 258.818 1078.7 250.611L1091.65 243.099C1094.48 251.124 1098.22 257.46 1102.87 262.106C1112.4 271.64 1121.51 272.062 1130.2 263.373C1137.38 256.193 1137.5 249.133 1130.56 242.194C1127 238.634 1122.66 236.763 1117.53 236.582L1106.67 225.721L1145.14 190.875L1183.6 229.342L1173.38 239.569ZM1246.11 291.852L1257.25 302.985L1154.97 332.853L1143.84 321.72L1246.11 291.852ZM1206.74 323.983C1212.78 323.742 1218.42 326.246 1223.67 331.495C1228.92 336.745 1231.42 342.387 1231.18 348.42C1230.94 354.454 1227.95 360.338 1222.22 366.07C1216.49 371.802 1210.6 374.789 1204.57 375.03C1198.6 375.211 1192.98 372.677 1187.73 367.428C1182.49 362.178 1179.95 356.566 1180.13 350.593C1180.37 344.559 1183.36 338.676 1189.09 332.943C1194.82 327.211 1200.71 324.224 1206.74 323.983ZM1196.42 249.765C1202.46 249.524 1208.1 252.028 1213.35 257.277C1218.6 262.527 1221.1 268.169 1220.86 274.203C1220.74 280.237 1217.81 286.12 1212.08 291.852C1206.35 297.584 1200.44 300.541 1194.34 300.722C1188.31 300.963 1182.67 298.459 1177.42 293.21C1172.17 287.96 1169.66 282.318 1169.9 276.284C1170.15 270.25 1173.13 264.367 1178.86 258.635C1184.6 252.903 1190.45 249.946 1196.42 249.765ZM1199.95 343.804C1193.56 350.201 1192.26 355.299 1196.06 359.101C1199.86 362.902 1204.96 361.605 1211.36 355.209C1217.81 348.752 1219.14 343.623 1215.34 339.822C1211.54 336.021 1206.41 337.348 1199.95 343.804ZM1185.74 284.883C1189.61 288.744 1194.76 287.447 1201.22 280.991C1207.62 274.595 1208.88 269.466 1205.02 265.604C1201.22 261.803 1196.12 263.1 1189.73 269.496C1183.27 275.952 1181.94 281.081 1185.74 284.883Z" fill="black" fill-opacity="0.05"/>
<path d="M792.383 189.363L801.977 179.769L831.211 209.004L821.617 218.598L792.383 189.363ZM911.376 239.569L884.314 212.507L868.293 227.079L868.474 227.26C873 228.768 877.073 231.333 880.693 234.953C887.21 241.47 890.468 248.288 890.468 255.408C890.468 262.528 887.21 269.347 880.693 275.864C865.186 291.371 848.592 290.285 830.913 272.605C824.456 266.149 819.72 258.818 816.703 250.611L829.646 243.099C832.482 251.124 836.223 257.46 840.869 262.106C850.403 271.64 859.514 272.062 868.203 263.373C875.383 256.193 875.504 249.133 868.565 242.194C865.005 238.634 860.66 236.763 855.531 236.582L844.67 225.721L883.137 190.875L921.604 229.342L911.376 239.569ZM984.114 291.852L995.247 302.985L892.971 332.853L881.838 321.72L984.114 291.852ZM944.742 323.983C950.776 323.742 956.418 326.246 961.667 331.495C966.917 336.745 969.421 342.387 969.18 348.42C968.938 354.454 965.952 360.338 960.219 366.07C954.487 371.802 948.604 374.789 942.57 375.03C936.596 375.211 930.985 372.677 925.735 367.428C920.486 362.178 917.951 356.566 918.132 350.593C918.374 344.559 921.361 338.676 927.093 332.943C932.825 327.211 938.708 324.224 944.742 323.983ZM934.424 249.765C940.458 249.524 946.1 252.028 951.349 257.277C956.599 262.527 959.103 268.169 958.862 274.203C958.741 280.237 955.815 286.12 950.082 291.852C944.35 297.584 938.437 300.541 932.342 300.722C926.308 300.963 920.667 298.459 915.417 293.21C910.167 287.96 907.663 282.318 907.905 276.284C908.146 270.25 911.133 264.367 916.865 258.635C922.597 252.903 928.45 249.946 934.424 249.765ZM937.954 343.804C931.558 350.201 930.261 355.299 934.062 359.101C937.863 362.902 942.962 361.605 949.358 355.209C955.815 348.752 957.142 343.623 953.341 339.822C949.539 336.021 944.41 337.348 937.954 343.804ZM923.744 284.883C927.606 288.744 932.765 287.447 939.221 280.991C945.617 274.595 946.884 269.466 943.022 265.604C939.221 261.803 934.122 263.1 927.726 269.496C921.27 275.952 919.943 281.081 923.744 284.883Z" fill="black" fill-opacity="0.05"/>
<path d="M526.383 190.363L535.977 180.769L565.211 210.004L555.617 219.598L526.383 190.363ZM645.376 240.569L618.314 213.507L602.293 228.079L602.474 228.26C607 229.768 611.073 232.333 614.693 235.953C621.21 242.47 624.468 249.288 624.468 256.408C624.468 263.528 621.21 270.347 614.693 276.864C599.186 292.371 582.592 291.285 564.913 273.605C558.456 267.149 553.72 259.818 550.703 251.611L563.646 244.099C566.482 252.124 570.223 258.46 574.869 263.106C584.403 272.64 593.514 273.062 602.203 264.373C609.383 257.193 609.504 250.133 602.565 243.194C599.005 239.634 594.66 237.763 589.531 237.582L578.67 226.721L617.137 191.875L655.604 230.342L645.376 240.569ZM718.114 292.852L729.247 303.985L626.971 333.853L615.838 322.72L718.114 292.852ZM678.742 324.983C684.776 324.742 690.418 327.246 695.667 332.495C700.917 337.745 703.421 343.387 703.18 349.42C702.938 355.454 699.952 361.338 694.219 367.07C688.487 372.802 682.604 375.789 676.57 376.03C670.596 376.211 664.985 373.677 659.735 368.428C654.486 363.178 651.951 357.566 652.132 351.593C652.374 345.559 655.361 339.676 661.093 333.943C666.825 328.211 672.708 325.224 678.742 324.983ZM668.424 250.765C674.458 250.524 680.1 253.028 685.349 258.277C690.599 263.527 693.103 269.169 692.862 275.203C692.741 281.237 689.815 287.12 684.082 292.852C678.35 298.584 672.437 301.541 666.342 301.722C660.308 301.963 654.667 299.459 649.417 294.21C644.167 288.96 641.663 283.318 641.905 277.284C642.146 271.25 645.133 265.367 650.865 259.635C656.597 253.903 662.45 250.946 668.424 250.765ZM671.954 344.804C665.558 351.201 664.261 356.299 668.062 360.101C671.863 363.902 676.962 362.605 683.358 356.209C689.815 349.752 691.142 344.623 687.341 340.822C683.539 337.021 678.41 338.348 671.954 344.804ZM657.744 285.883C661.606 289.744 666.765 288.447 673.221 281.991C679.617 275.595 680.884 270.466 677.022 266.604C673.221 262.803 668.122 264.1 661.726 270.496C655.27 276.952 653.943 282.081 657.744 285.883Z" fill="black" fill-opacity="0.05"/>
<path d="M254.383 190.363L263.977 180.769L293.211 210.004L283.617 219.598L254.383 190.363ZM373.376 240.569L346.314 213.507L330.293 228.079L330.474 228.26C335 229.768 339.073 232.333 342.693 235.953C349.21 242.47 352.468 249.288 352.468 256.408C352.468 263.528 349.21 270.347 342.693 276.864C327.186 292.371 310.592 291.285 292.913 273.605C286.456 267.149 281.72 259.818 278.703 251.611L291.646 244.099C294.482 252.124 298.223 258.46 302.869 263.106C312.403 272.64 321.514 273.062 330.203 264.373C337.383 257.193 337.504 250.133 330.565 243.194C327.005 239.634 322.66 237.763 317.531 237.582L306.67 226.721L345.137 191.875L383.604 230.342L373.376 240.569ZM446.114 292.852L457.247 303.985L354.971 333.853L343.838 322.72L446.114 292.852ZM406.742 324.983C412.776 324.742 418.418 327.246 423.667 332.495C428.917 337.745 431.421 343.387 431.18 349.42C430.938 355.454 427.952 361.338 422.219 367.07C416.487 372.802 410.604 375.789 404.57 376.03C398.596 376.211 392.985 373.677 387.735 368.428C382.486 363.178 379.951 357.566 380.132 351.593C380.374 345.559 383.361 339.676 389.093 333.943C394.825 328.211 400.708 325.224 406.742 324.983ZM396.424 250.765C402.458 250.524 408.1 253.028 413.349 258.277C418.599 263.527 421.103 269.169 420.862 275.203C420.741 281.237 417.815 287.12 412.082 292.852C406.35 298.584 400.437 301.541 394.342 301.722C388.308 301.963 382.667 299.459 377.417 294.21C372.167 288.96 369.663 283.318 369.905 277.284C370.146 271.25 373.133 265.367 378.865 259.635C384.597 253.903 390.45 250.946 396.424 250.765ZM399.954 344.804C393.558 351.201 392.261 356.299 396.062 360.101C399.863 363.902 404.962 362.605 411.358 356.209C417.815 349.752 419.142 344.623 415.341 340.822C411.539 337.021 406.41 338.348 399.954 344.804ZM385.744 285.883C389.606 289.744 394.765 288.447 401.221 281.991C407.617 275.595 408.884 270.466 405.022 266.604C401.221 262.803 396.122 264.1 389.726 270.496C383.27 276.952 381.943 282.081 385.744 285.883Z" fill="black" fill-opacity="0.05"/>
<path d="M-5.61741 190.363L3.97661 180.769L33.2112 210.004L23.6172 219.598L-5.61741 190.363ZM113.376 240.569L86.3135 213.507L70.2933 228.079L70.4743 228.26C74.9998 229.768 79.0728 232.333 82.6931 235.953C89.2098 242.47 92.4682 249.288 92.4682 256.408C92.4682 263.528 89.2098 270.347 82.6931 276.864C67.1858 292.371 50.5924 291.285 32.9128 273.605C26.4565 267.149 21.7198 259.818 18.7028 251.611L31.6457 244.099C34.4817 252.124 38.2227 258.46 42.8689 263.106C52.4026 272.64 61.5139 273.062 70.2028 264.373C77.3832 257.193 77.5039 250.133 70.5649 243.194C67.0048 239.634 62.6603 237.763 57.5315 237.582L46.6703 226.721L85.1369 191.875L123.604 230.342L113.376 240.569ZM186.114 292.852L197.247 303.985L94.9706 333.853L83.8379 322.72L186.114 292.852ZM146.742 324.983C152.776 324.742 158.418 327.246 163.667 332.495C168.917 337.745 171.421 343.387 171.18 349.42C170.938 355.454 167.952 361.338 162.219 367.07C156.487 372.802 150.604 375.789 144.57 376.03C138.596 376.211 132.985 373.677 127.735 368.428C122.486 363.178 119.951 357.566 120.132 351.593C120.374 345.559 123.361 339.676 129.093 333.943C134.825 328.211 140.708 325.224 146.742 324.983ZM136.424 250.765C142.458 250.524 148.1 253.028 153.349 258.277C158.599 263.527 161.103 269.169 160.862 275.203C160.741 281.237 157.815 287.12 152.082 292.852C146.35 298.584 140.437 301.541 134.342 301.722C128.308 301.963 122.667 299.459 117.417 294.21C112.167 288.96 109.663 283.318 109.905 277.284C110.146 271.25 113.133 265.367 118.865 259.635C124.597 253.903 130.45 250.946 136.424 250.765ZM139.954 344.804C133.558 351.201 132.261 356.299 136.062 360.101C139.863 363.902 144.962 362.605 151.358 356.209C157.815 349.752 159.142 344.623 155.341 340.822C151.539 337.021 146.41 338.348 139.954 344.804ZM125.744 285.883C129.606 289.744 134.765 288.447 141.221 281.991C147.617 275.595 148.884 270.466 145.022 266.604C141.221 262.803 136.122 264.1 129.726 270.496C123.27 276.952 121.943 282.081 125.744 285.883Z" fill="black" fill-opacity="0.05"/>
<path d="M1274.38 348.363L1283.98 338.769L1313.21 368.004L1303.62 377.598L1274.38 348.363ZM1393.38 398.569L1366.31 371.507L1350.29 386.079L1350.47 386.26C1355 387.768 1359.07 390.333 1362.69 393.953C1369.21 400.47 1372.47 407.288 1372.47 414.408C1372.47 421.528 1369.21 428.347 1362.69 434.864C1347.19 450.371 1330.59 449.285 1312.91 431.605C1306.46 425.149 1301.72 417.818 1298.7 409.611L1311.65 402.099C1314.48 410.124 1318.22 416.46 1322.87 421.106C1332.4 430.64 1341.51 431.062 1350.2 422.373C1357.38 415.193 1357.5 408.133 1350.56 401.194C1347 397.634 1342.66 395.763 1337.53 395.582L1326.67 384.721L1365.14 349.875L1403.6 388.342L1393.38 398.569ZM1466.11 450.852L1477.25 461.985L1374.97 491.853L1363.84 480.72L1466.11 450.852ZM1426.74 482.983C1432.78 482.742 1438.42 485.246 1443.67 490.495C1448.92 495.745 1451.42 501.387 1451.18 507.42C1450.94 513.454 1447.95 519.338 1442.22 525.07C1436.49 530.802 1430.6 533.789 1424.57 534.03C1418.6 534.211 1412.98 531.677 1407.73 526.428C1402.49 521.178 1399.95 515.566 1400.13 509.593C1400.37 503.559 1403.36 497.676 1409.09 491.943C1414.82 486.211 1420.71 483.224 1426.74 482.983ZM1416.42 408.765C1422.46 408.524 1428.1 411.028 1433.35 416.277C1438.6 421.527 1441.1 427.169 1440.86 433.203C1440.74 439.237 1437.81 445.12 1432.08 450.852C1426.35 456.584 1420.44 459.541 1414.34 459.722C1408.31 459.963 1402.67 457.459 1397.42 452.21C1392.17 446.96 1389.66 441.318 1389.9 435.284C1390.15 429.25 1393.13 423.367 1398.86 417.635C1404.6 411.903 1410.45 408.946 1416.42 408.765ZM1419.95 502.804C1413.56 509.201 1412.26 514.299 1416.06 518.101C1419.86 521.902 1424.96 520.605 1431.36 514.209C1437.81 507.752 1439.14 502.623 1435.34 498.822C1431.54 495.021 1426.41 496.348 1419.95 502.804ZM1405.74 443.883C1409.61 447.744 1414.76 446.447 1421.22 439.991C1427.62 433.595 1428.88 428.466 1425.02 424.604C1421.22 420.803 1416.12 422.1 1409.73 428.496C1403.27 434.952 1401.94 440.081 1405.74 443.883Z" fill="black" fill-opacity="0.05"/>
<path d="M1049.38 348.363L1058.98 338.769L1088.21 368.004L1078.62 377.598L1049.38 348.363ZM1168.38 398.569L1141.31 371.507L1125.29 386.079L1125.47 386.26C1130 387.768 1134.07 390.333 1137.69 393.953C1144.21 400.47 1147.47 407.288 1147.47 414.408C1147.47 421.528 1144.21 428.347 1137.69 434.864C1122.19 450.371 1105.59 449.285 1087.91 431.605C1081.46 425.149 1076.72 417.818 1073.7 409.611L1086.65 402.099C1089.48 410.124 1093.22 416.46 1097.87 421.106C1107.4 430.64 1116.51 431.062 1125.2 422.373C1132.38 415.193 1132.5 408.133 1125.56 401.194C1122 397.634 1117.66 395.763 1112.53 395.582L1101.67 384.721L1140.14 349.875L1178.6 388.342L1168.38 398.569ZM1241.11 450.852L1252.25 461.985L1149.97 491.853L1138.84 480.72L1241.11 450.852ZM1201.74 482.983C1207.78 482.742 1213.42 485.246 1218.67 490.495C1223.92 495.745 1226.42 501.387 1226.18 507.42C1225.94 513.454 1222.95 519.338 1217.22 525.07C1211.49 530.802 1205.6 533.789 1199.57 534.03C1193.6 534.211 1187.98 531.677 1182.73 526.428C1177.49 521.178 1174.95 515.566 1175.13 509.593C1175.37 503.559 1178.36 497.676 1184.09 491.943C1189.82 486.211 1195.71 483.224 1201.74 482.983ZM1191.42 408.765C1197.46 408.524 1203.1 411.028 1208.35 416.277C1213.6 421.527 1216.1 427.169 1215.86 433.203C1215.74 439.237 1212.81 445.12 1207.08 450.852C1201.35 456.584 1195.44 459.541 1189.34 459.722C1183.31 459.963 1177.67 457.459 1172.42 452.21C1167.17 446.96 1164.66 441.318 1164.9 435.284C1165.15 429.25 1168.13 423.367 1173.86 417.635C1179.6 411.903 1185.45 408.946 1191.42 408.765ZM1194.95 502.804C1188.56 509.201 1187.26 514.299 1191.06 518.101C1194.86 521.902 1199.96 520.605 1206.36 514.209C1212.81 507.752 1214.14 502.623 1210.34 498.822C1206.54 495.021 1201.41 496.348 1194.95 502.804ZM1180.74 443.883C1184.61 447.744 1189.76 446.447 1196.22 439.991C1202.62 433.595 1203.88 428.466 1200.02 424.604C1196.22 420.803 1191.12 422.1 1184.73 428.496C1178.27 434.952 1176.94 440.081 1180.74 443.883Z" fill="black" fill-opacity="0.05"/>
<path d="M787.383 348.363L796.977 338.769L826.211 368.004L816.617 377.598L787.383 348.363ZM906.376 398.569L879.314 371.507L863.293 386.079L863.474 386.26C868 387.768 872.073 390.333 875.693 393.953C882.21 400.47 885.468 407.288 885.468 414.408C885.468 421.528 882.21 428.347 875.693 434.864C860.186 450.371 843.592 449.285 825.913 431.605C819.456 425.149 814.72 417.818 811.703 409.611L824.646 402.099C827.482 410.124 831.223 416.46 835.869 421.106C845.403 430.64 854.514 431.062 863.203 422.373C870.383 415.193 870.504 408.133 863.565 401.194C860.005 397.634 855.66 395.763 850.531 395.582L839.67 384.721L878.137 349.875L916.604 388.342L906.376 398.569ZM979.114 450.852L990.247 461.985L887.971 491.853L876.838 480.72L979.114 450.852ZM939.742 482.983C945.776 482.742 951.418 485.246 956.667 490.495C961.917 495.745 964.421 501.387 964.18 507.42C963.938 513.454 960.952 519.338 955.219 525.07C949.487 530.802 943.604 533.789 937.57 534.03C931.596 534.211 925.985 531.677 920.735 526.428C915.486 521.178 912.951 515.566 913.132 509.593C913.374 503.559 916.361 497.676 922.093 491.943C927.825 486.211 933.708 483.224 939.742 482.983ZM929.424 408.765C935.458 408.524 941.1 411.028 946.349 416.277C951.599 421.527 954.103 427.169 953.862 433.203C953.741 439.237 950.815 445.12 945.082 450.852C939.35 456.584 933.437 459.541 927.342 459.722C921.308 459.963 915.667 457.459 910.417 452.21C905.167 446.96 902.663 441.318 902.905 435.284C903.146 429.25 906.133 423.367 911.865 417.635C917.597 411.903 923.45 408.946 929.424 408.765ZM932.954 502.804C926.558 509.201 925.261 514.299 929.062 518.101C932.863 521.902 937.962 520.605 944.358 514.209C950.815 507.752 952.142 502.623 948.341 498.822C944.539 495.021 939.41 496.348 932.954 502.804ZM918.744 443.883C922.606 447.744 927.765 446.447 934.221 439.991C940.617 433.595 941.884 428.466 938.022 424.604C934.221 420.803 929.122 422.1 922.726 428.496C916.27 434.952 914.943 440.081 918.744 443.883Z" fill="black" fill-opacity="0.05"/>
<path d="M521.383 349.363L530.977 339.769L560.211 369.004L550.617 378.598L521.383 349.363ZM640.376 399.569L613.314 372.507L597.293 387.079L597.474 387.26C602 388.768 606.073 391.333 609.693 394.953C616.21 401.47 619.468 408.288 619.468 415.408C619.468 422.528 616.21 429.347 609.693 435.864C594.186 451.371 577.592 450.285 559.913 432.605C553.456 426.149 548.72 418.818 545.703 410.611L558.646 403.099C561.482 411.124 565.223 417.46 569.869 422.106C579.403 431.64 588.514 432.062 597.203 423.373C604.383 416.193 604.504 409.133 597.565 402.194C594.005 398.634 589.66 396.763 584.531 396.582L573.67 385.721L612.137 350.875L650.604 389.342L640.376 399.569ZM713.114 451.852L724.247 462.985L621.971 492.853L610.838 481.72L713.114 451.852ZM673.742 483.983C679.776 483.742 685.418 486.246 690.667 491.495C695.917 496.745 698.421 502.387 698.18 508.42C697.938 514.454 694.952 520.338 689.219 526.07C683.487 531.802 677.604 534.789 671.57 535.03C665.596 535.211 659.985 532.677 654.735 527.428C649.486 522.178 646.951 516.566 647.132 510.593C647.374 504.559 650.361 498.676 656.093 492.943C661.825 487.211 667.708 484.224 673.742 483.983ZM663.424 409.765C669.458 409.524 675.1 412.028 680.349 417.277C685.599 422.527 688.103 428.169 687.862 434.203C687.741 440.237 684.815 446.12 679.082 451.852C673.35 457.584 667.437 460.541 661.342 460.722C655.308 460.963 649.667 458.459 644.417 453.21C639.167 447.96 636.663 442.318 636.905 436.284C637.146 430.25 640.133 424.367 645.865 418.635C651.597 412.903 657.45 409.946 663.424 409.765ZM666.954 503.804C660.558 510.201 659.261 515.299 663.062 519.101C666.863 522.902 671.962 521.605 678.358 515.209C684.815 508.752 686.142 503.623 682.341 499.822C678.539 496.021 673.41 497.348 666.954 503.804ZM652.744 444.883C656.606 448.744 661.765 447.447 668.221 440.991C674.617 434.595 675.884 429.466 672.022 425.604C668.221 421.803 663.122 423.1 656.726 429.496C650.27 435.952 648.943 441.081 652.744 444.883Z" fill="black" fill-opacity="0.05"/>
<path d="M249.383 349.363L258.977 339.769L288.211 369.004L278.617 378.598L249.383 349.363ZM368.376 399.569L341.314 372.507L325.293 387.079L325.474 387.26C330 388.768 334.073 391.333 337.693 394.953C344.21 401.47 347.468 408.288 347.468 415.408C347.468 422.528 344.21 429.347 337.693 435.864C322.186 451.371 305.592 450.285 287.913 432.605C281.456 426.149 276.72 418.818 273.703 410.611L286.646 403.099C289.482 411.124 293.223 417.46 297.869 422.106C307.403 431.64 316.514 432.062 325.203 423.373C332.383 416.193 332.504 409.133 325.565 402.194C322.005 398.634 317.66 396.763 312.531 396.582L301.67 385.721L340.137 350.875L378.604 389.342L368.376 399.569ZM441.114 451.852L452.247 462.985L349.971 492.853L338.838 481.72L441.114 451.852ZM401.742 483.983C407.776 483.742 413.418 486.246 418.667 491.495C423.917 496.745 426.421 502.387 426.18 508.42C425.938 514.454 422.952 520.338 417.219 526.07C411.487 531.802 405.604 534.789 399.57 535.03C393.596 535.211 387.985 532.677 382.735 527.428C377.486 522.178 374.951 516.566 375.132 510.593C375.374 504.559 378.361 498.676 384.093 492.943C389.825 487.211 395.708 484.224 401.742 483.983ZM391.424 409.765C397.458 409.524 403.1 412.028 408.349 417.277C413.599 422.527 416.103 428.169 415.862 434.203C415.741 440.237 412.815 446.12 407.082 451.852C401.35 457.584 395.437 460.541 389.342 460.722C383.308 460.963 377.667 458.459 372.417 453.21C367.167 447.96 364.663 442.318 364.905 436.284C365.146 430.25 368.133 424.367 373.865 418.635C379.597 412.903 385.45 409.946 391.424 409.765ZM394.954 503.804C388.558 510.201 387.261 515.299 391.062 519.101C394.863 522.902 399.962 521.605 406.358 515.209C412.815 508.752 414.142 503.623 410.341 499.822C406.539 496.021 401.41 497.348 394.954 503.804ZM380.744 444.883C384.606 448.744 389.765 447.447 396.221 440.991C402.617 434.595 403.884 429.466 400.022 425.604C396.221 421.803 391.122 423.1 384.726 429.496C378.27 435.952 376.943 441.081 380.744 444.883Z" fill="black" fill-opacity="0.05"/>
<path d="M-10.6174 349.363L-1.02339 339.769L28.2112 369.004L18.6172 378.598L-10.6174 349.363ZM108.376 399.569L81.3135 372.507L65.2933 387.079L65.4743 387.26C69.9998 388.768 74.0728 391.333 77.6931 394.953C84.2098 401.47 87.4682 408.288 87.4682 415.408C87.4682 422.528 84.2098 429.347 77.6931 435.864C62.1858 451.371 45.5924 450.285 27.9128 432.605C21.4565 426.149 16.7198 418.818 13.7028 410.611L26.6457 403.099C29.4817 411.124 33.2227 417.46 37.8689 422.106C47.4026 431.64 56.5139 432.062 65.2028 423.373C72.3832 416.193 72.5039 409.133 65.5649 402.194C62.0048 398.634 57.6603 396.763 52.5315 396.582L41.6703 385.721L80.1369 350.875L118.604 389.342L108.376 399.569ZM181.114 451.852L192.247 462.985L89.9706 492.853L78.8379 481.72L181.114 451.852ZM141.742 483.983C147.776 483.742 153.418 486.246 158.667 491.495C163.917 496.745 166.421 502.387 166.18 508.42C165.938 514.454 162.952 520.338 157.219 526.07C151.487 531.802 145.604 534.789 139.57 535.03C133.596 535.211 127.985 532.677 122.735 527.428C117.486 522.178 114.951 516.566 115.132 510.593C115.374 504.559 118.361 498.676 124.093 492.943C129.825 487.211 135.708 484.224 141.742 483.983ZM131.424 409.765C137.458 409.524 143.1 412.028 148.349 417.277C153.599 422.527 156.103 428.169 155.862 434.203C155.741 440.237 152.815 446.12 147.082 451.852C141.35 457.584 135.437 460.541 129.342 460.722C123.308 460.963 117.667 458.459 112.417 453.21C107.167 447.96 104.663 442.318 104.905 436.284C105.146 430.25 108.133 424.367 113.865 418.635C119.597 412.903 125.45 409.946 131.424 409.765ZM134.954 503.804C128.558 510.201 127.261 515.299 131.062 519.101C134.863 522.902 139.962 521.605 146.358 515.209C152.815 508.752 154.142 503.623 150.341 499.822C146.539 496.021 141.41 497.348 134.954 503.804ZM120.744 444.883C124.606 448.744 129.765 447.447 136.221 440.991C142.617 434.595 143.884 429.466 140.022 425.604C136.221 421.803 131.122 423.1 124.726 429.496C118.27 435.952 116.943 441.081 120.744 444.883Z" fill="black" fill-opacity="0.05"/>
<path d="M1274.38 547.363L1283.98 537.769L1313.21 567.004L1303.62 576.598L1274.38 547.363ZM1393.38 597.569L1366.31 570.507L1350.29 585.079L1350.47 585.26C1355 586.768 1359.07 589.333 1362.69 592.953C1369.21 599.47 1372.47 606.288 1372.47 613.408C1372.47 620.528 1369.21 627.347 1362.69 633.864C1347.19 649.371 1330.59 648.285 1312.91 630.605C1306.46 624.149 1301.72 616.818 1298.7 608.611L1311.65 601.099C1314.48 609.124 1318.22 615.46 1322.87 620.106C1332.4 629.64 1341.51 630.062 1350.2 621.373C1357.38 614.193 1357.5 607.133 1350.56 600.194C1347 596.634 1342.66 594.763 1337.53 594.582L1326.67 583.721L1365.14 548.875L1403.6 587.342L1393.38 597.569ZM1466.11 649.852L1477.25 660.985L1374.97 690.853L1363.84 679.72L1466.11 649.852ZM1426.74 681.983C1432.78 681.742 1438.42 684.246 1443.67 689.495C1448.92 694.745 1451.42 700.387 1451.18 706.42C1450.94 712.454 1447.95 718.338 1442.22 724.07C1436.49 729.802 1430.6 732.789 1424.57 733.03C1418.6 733.211 1412.98 730.677 1407.73 725.428C1402.49 720.178 1399.95 714.566 1400.13 708.593C1400.37 702.559 1403.36 696.676 1409.09 690.943C1414.82 685.211 1420.71 682.224 1426.74 681.983ZM1416.42 607.765C1422.46 607.524 1428.1 610.028 1433.35 615.277C1438.6 620.527 1441.1 626.169 1440.86 632.203C1440.74 638.237 1437.81 644.12 1432.08 649.852C1426.35 655.584 1420.44 658.541 1414.34 658.722C1408.31 658.963 1402.67 656.459 1397.42 651.21C1392.17 645.96 1389.66 640.318 1389.9 634.284C1390.15 628.25 1393.13 622.367 1398.86 616.635C1404.6 610.903 1410.45 607.946 1416.42 607.765ZM1419.95 701.804C1413.56 708.201 1412.26 713.299 1416.06 717.101C1419.86 720.902 1424.96 719.605 1431.36 713.209C1437.81 706.752 1439.14 701.623 1435.34 697.822C1431.54 694.021 1426.41 695.348 1419.95 701.804ZM1405.74 642.883C1409.61 646.744 1414.76 645.447 1421.22 638.991C1427.62 632.595 1428.88 627.466 1425.02 623.604C1421.22 619.803 1416.12 621.1 1409.73 627.496C1403.27 633.952 1401.94 639.081 1405.74 642.883Z" fill="black" fill-opacity="0.05"/>
<path d="M1049.38 547.363L1058.98 537.769L1088.21 567.004L1078.62 576.598L1049.38 547.363ZM1168.38 597.569L1141.31 570.507L1125.29 585.079L1125.47 585.26C1130 586.768 1134.07 589.333 1137.69 592.953C1144.21 599.47 1147.47 606.288 1147.47 613.408C1147.47 620.528 1144.21 627.347 1137.69 633.864C1122.19 649.371 1105.59 648.285 1087.91 630.605C1081.46 624.149 1076.72 616.818 1073.7 608.611L1086.65 601.099C1089.48 609.124 1093.22 615.46 1097.87 620.106C1107.4 629.64 1116.51 630.062 1125.2 621.373C1132.38 614.193 1132.5 607.133 1125.56 600.194C1122 596.634 1117.66 594.763 1112.53 594.582L1101.67 583.721L1140.14 548.875L1178.6 587.342L1168.38 597.569ZM1241.11 649.852L1252.25 660.985L1149.97 690.853L1138.84 679.72L1241.11 649.852ZM1201.74 681.983C1207.78 681.742 1213.42 684.246 1218.67 689.495C1223.92 694.745 1226.42 700.387 1226.18 706.42C1225.94 712.454 1222.95 718.338 1217.22 724.07C1211.49 729.802 1205.6 732.789 1199.57 733.03C1193.6 733.211 1187.98 730.677 1182.73 725.428C1177.49 720.178 1174.95 714.566 1175.13 708.593C1175.37 702.559 1178.36 696.676 1184.09 690.943C1189.82 685.211 1195.71 682.224 1201.74 681.983ZM1191.42 607.765C1197.46 607.524 1203.1 610.028 1208.35 615.277C1213.6 620.527 1216.1 626.169 1215.86 632.203C1215.74 638.237 1212.81 644.12 1207.08 649.852C1201.35 655.584 1195.44 658.541 1189.34 658.722C1183.31 658.963 1177.67 656.459 1172.42 651.21C1167.17 645.96 1164.66 640.318 1164.9 634.284C1165.15 628.25 1168.13 622.367 1173.86 616.635C1179.6 610.903 1185.45 607.946 1191.42 607.765ZM1194.95 701.804C1188.56 708.201 1187.26 713.299 1191.06 717.101C1194.86 720.902 1199.96 719.605 1206.36 713.209C1212.81 706.752 1214.14 701.623 1210.34 697.822C1206.54 694.021 1201.41 695.348 1194.95 701.804ZM1180.74 642.883C1184.61 646.744 1189.76 645.447 1196.22 638.991C1202.62 632.595 1203.88 627.466 1200.02 623.604C1196.22 619.803 1191.12 621.1 1184.73 627.496C1178.27 633.952 1176.94 639.081 1180.74 642.883Z" fill="black" fill-opacity="0.05"/>
<path d="M787.383 547.363L796.977 537.769L826.211 567.004L816.617 576.598L787.383 547.363ZM906.376 597.569L879.314 570.507L863.293 585.079L863.474 585.26C868 586.768 872.073 589.333 875.693 592.953C882.21 599.47 885.468 606.288 885.468 613.408C885.468 620.528 882.21 627.347 875.693 633.864C860.186 649.371 843.592 648.285 825.913 630.605C819.456 624.149 814.72 616.818 811.703 608.611L824.646 601.099C827.482 609.124 831.223 615.46 835.869 620.106C845.403 629.64 854.514 630.062 863.203 621.373C870.383 614.193 870.504 607.133 863.565 600.194C860.005 596.634 855.66 594.763 850.531 594.582L839.67 583.721L878.137 548.875L916.604 587.342L906.376 597.569ZM979.114 649.852L990.247 660.985L887.971 690.853L876.838 679.72L979.114 649.852ZM939.742 681.983C945.776 681.742 951.418 684.246 956.667 689.495C961.917 694.745 964.421 700.387 964.18 706.42C963.938 712.454 960.952 718.338 955.219 724.07C949.487 729.802 943.604 732.789 937.57 733.03C931.596 733.211 925.985 730.677 920.735 725.428C915.486 720.178 912.951 714.566 913.132 708.593C913.374 702.559 916.361 696.676 922.093 690.943C927.825 685.211 933.708 682.224 939.742 681.983ZM929.424 607.765C935.458 607.524 941.1 610.028 946.349 615.277C951.599 620.527 954.103 626.169 953.862 632.203C953.741 638.237 950.815 644.12 945.082 649.852C939.35 655.584 933.437 658.541 927.342 658.722C921.308 658.963 915.667 656.459 910.417 651.21C905.167 645.96 902.663 640.318 902.905 634.284C903.146 628.25 906.133 622.367 911.865 616.635C917.597 610.903 923.45 607.946 929.424 607.765ZM932.954 701.804C926.558 708.201 925.261 713.299 929.062 717.101C932.863 720.902 937.962 719.605 944.358 713.209C950.815 706.752 952.142 701.623 948.341 697.822C944.539 694.021 939.41 695.348 932.954 701.804ZM918.744 642.883C922.606 646.744 927.765 645.447 934.221 638.991C940.617 632.595 941.884 627.466 938.022 623.604C934.221 619.803 929.122 621.1 922.726 627.496C916.27 633.952 914.943 639.081 918.744 642.883Z" fill="black" fill-opacity="0.05"/>
<path d="M521.383 548.363L530.977 538.769L560.211 568.004L550.617 577.598L521.383 548.363ZM640.376 598.569L613.314 571.507L597.293 586.079L597.474 586.26C602 587.768 606.073 590.333 609.693 593.953C616.21 600.47 619.468 607.288 619.468 614.408C619.468 621.528 616.21 628.347 609.693 634.864C594.186 650.371 577.592 649.285 559.913 631.605C553.456 625.149 548.72 617.818 545.703 609.611L558.646 602.099C561.482 610.124 565.223 616.46 569.869 621.106C579.403 630.64 588.514 631.062 597.203 622.373C604.383 615.193 604.504 608.133 597.565 601.194C594.005 597.634 589.66 595.763 584.531 595.582L573.67 584.721L612.137 549.875L650.604 588.342L640.376 598.569ZM713.114 650.852L724.247 661.985L621.971 691.853L610.838 680.72L713.114 650.852ZM673.742 682.983C679.776 682.742 685.418 685.246 690.667 690.495C695.917 695.745 698.421 701.387 698.18 707.42C697.938 713.454 694.952 719.338 689.219 725.07C683.487 730.802 677.604 733.789 671.57 734.03C665.596 734.211 659.985 731.677 654.735 726.428C649.486 721.178 646.951 715.566 647.132 709.593C647.374 703.559 650.361 697.676 656.093 691.943C661.825 686.211 667.708 683.224 673.742 682.983ZM663.424 608.765C669.458 608.524 675.1 611.028 680.349 616.277C685.599 621.527 688.103 627.169 687.862 633.203C687.741 639.237 684.815 645.12 679.082 650.852C673.35 656.584 667.437 659.541 661.342 659.722C655.308 659.963 649.667 657.459 644.417 652.21C639.167 646.96 636.663 641.318 636.905 635.284C637.146 629.25 640.133 623.367 645.865 617.635C651.597 611.903 657.45 608.946 663.424 608.765ZM666.954 702.804C660.558 709.201 659.261 714.299 663.062 718.101C666.863 721.902 671.962 720.605 678.358 714.209C684.815 707.752 686.142 702.623 682.341 698.822C678.539 695.021 673.41 696.348 666.954 702.804ZM652.744 643.883C656.606 647.744 661.765 646.447 668.221 639.991C674.617 633.595 675.884 628.466 672.022 624.604C668.221 620.803 663.122 622.1 656.726 628.496C650.27 634.952 648.943 640.081 652.744 643.883Z" fill="black" fill-opacity="0.05"/>
<path d="M249.383 548.363L258.977 538.769L288.211 568.004L278.617 577.598L249.383 548.363ZM368.376 598.569L341.314 571.507L325.293 586.079L325.474 586.26C330 587.768 334.073 590.333 337.693 593.953C344.21 600.47 347.468 607.288 347.468 614.408C347.468 621.528 344.21 628.347 337.693 634.864C322.186 650.371 305.592 649.285 287.913 631.605C281.456 625.149 276.72 617.818 273.703 609.611L286.646 602.099C289.482 610.124 293.223 616.46 297.869 621.106C307.403 630.64 316.514 631.062 325.203 622.373C332.383 615.193 332.504 608.133 325.565 601.194C322.005 597.634 317.66 595.763 312.531 595.582L301.67 584.721L340.137 549.875L378.604 588.342L368.376 598.569ZM441.114 650.852L452.247 661.985L349.971 691.853L338.838 680.72L441.114 650.852ZM401.742 682.983C407.776 682.742 413.418 685.246 418.667 690.495C423.917 695.745 426.421 701.387 426.18 707.42C425.938 713.454 422.952 719.338 417.219 725.07C411.487 730.802 405.604 733.789 399.57 734.03C393.596 734.211 387.985 731.677 382.735 726.428C377.486 721.178 374.951 715.566 375.132 709.593C375.374 703.559 378.361 697.676 384.093 691.943C389.825 686.211 395.708 683.224 401.742 682.983ZM391.424 608.765C397.458 608.524 403.1 611.028 408.349 616.277C413.599 621.527 416.103 627.169 415.862 633.203C415.741 639.237 412.815 645.12 407.082 650.852C401.35 656.584 395.437 659.541 389.342 659.722C383.308 659.963 377.667 657.459 372.417 652.21C367.167 646.96 364.663 641.318 364.905 635.284C365.146 629.25 368.133 623.367 373.865 617.635C379.597 611.903 385.45 608.946 391.424 608.765ZM394.954 702.804C388.558 709.201 387.261 714.299 391.062 718.101C394.863 721.902 399.962 720.605 406.358 714.209C412.815 707.752 414.142 702.623 410.341 698.822C406.539 695.021 401.41 696.348 394.954 702.804ZM380.744 643.883C384.606 647.744 389.765 646.447 396.221 639.991C402.617 633.595 403.884 628.466 400.022 624.604C396.221 620.803 391.122 622.1 384.726 628.496C378.27 634.952 376.943 640.081 380.744 643.883Z" fill="black" fill-opacity="0.05"/>
<path d="M-10.6174 548.363L-1.02339 538.769L28.2112 568.004L18.6172 577.598L-10.6174 548.363ZM108.376 598.569L81.3135 571.507L65.2933 586.079L65.4743 586.26C69.9998 587.768 74.0728 590.333 77.6931 593.953C84.2098 600.47 87.4682 607.288 87.4682 614.408C87.4682 621.528 84.2098 628.347 77.6931 634.864C62.1858 650.371 45.5924 649.285 27.9128 631.605C21.4565 625.149 16.7198 617.818 13.7028 609.611L26.6457 602.099C29.4817 610.124 33.2227 616.46 37.8689 621.106C47.4026 630.64 56.5139 631.062 65.2028 622.373C72.3832 615.193 72.5039 608.133 65.5649 601.194C62.0048 597.634 57.6603 595.763 52.5315 595.582L41.6703 584.721L80.1369 549.875L118.604 588.342L108.376 598.569ZM181.114 650.852L192.247 661.985L89.9706 691.853L78.8379 680.72L181.114 650.852ZM141.742 682.983C147.776 682.742 153.418 685.246 158.667 690.495C163.917 695.745 166.421 701.387 166.18 707.42C165.938 713.454 162.952 719.338 157.219 725.07C151.487 730.802 145.604 733.789 139.57 734.03C133.596 734.211 127.985 731.677 122.735 726.428C117.486 721.178 114.951 715.566 115.132 709.593C115.374 703.559 118.361 697.676 124.093 691.943C129.825 686.211 135.708 683.224 141.742 682.983ZM131.424 608.765C137.458 608.524 143.1 611.028 148.349 616.277C153.599 621.527 156.103 627.169 155.862 633.203C155.741 639.237 152.815 645.12 147.082 650.852C141.35 656.584 135.437 659.541 129.342 659.722C123.308 659.963 117.667 657.459 112.417 652.21C107.167 646.96 104.663 641.318 104.905 635.284C105.146 629.25 108.133 623.367 113.865 617.635C119.597 611.903 125.45 608.946 131.424 608.765ZM134.954 702.804C128.558 709.201 127.261 714.299 131.062 718.101C134.863 721.902 139.962 720.605 146.358 714.209C152.815 707.752 154.142 702.623 150.341 698.822C146.539 695.021 141.41 696.348 134.954 702.804ZM120.744 643.883C124.606 647.744 129.765 646.447 136.221 639.991C142.617 633.595 143.884 628.466 140.022 624.604C136.221 620.803 131.122 622.1 124.726 628.496C118.27 634.952 116.943 640.081 120.744 643.883Z" fill="black" fill-opacity="0.05"/>
<path d="M109.74 113.51H144.08V58.09H119.43C119.43 78.3767 118.977 91.0133 118.07 96C117.277 100.873 114.5 106.71 109.74 113.51ZM85.09 113.51C89.6233 108.07 92.6267 103.707 94.1 100.42C95.5733 97.02 96.5367 92.6567 96.99 87.33C97.5567 81.89 97.84 72.1433 97.84 58.09V41.6H165.84V113.51H177.57V150.4H155.64V130H99.54V150.4H77.78V113.51H85.09ZM211.276 78.66H252.756C252.643 71.2933 250.773 65.6833 247.146 61.83C243.633 57.8633 238.646 55.88 232.186 55.88C225.953 55.88 220.966 57.8633 217.226 61.83C213.6 65.7967 211.616 71.4067 211.276 78.66ZM211.276 93.79C211.843 100.477 214.393 105.803 218.926 109.77C223.573 113.623 229.41 115.55 236.436 115.55C244.823 115.55 253.153 113.453 261.426 109.26L266.526 124.9C256.326 129.433 245.56 131.7 234.226 131.7C220.853 131.7 209.973 127.563 201.586 119.29C193.313 111.017 189.176 99.8533 189.176 85.8C189.176 71.52 193.03 60.3 200.736 52.14C208.443 43.98 218.87 39.9 232.016 39.9C245.163 39.9 255.363 43.81 262.616 51.63C269.983 59.45 273.666 70.67 273.666 85.29C273.666 88.1233 273.496 90.9567 273.156 93.79H211.276ZM315.03 91.58V130H292.08V41.6H315.03V75.6H350.9V41.6H374.02V130H350.9V91.58H315.03ZM397.5 41.6H419.6V66.25C424.02 65.4567 428.27 65.06 432.35 65.06C444.93 65.06 454.563 67.95 461.25 73.73C468.05 79.51 471.45 87.3867 471.45 97.36C471.45 108.92 467.88 117.533 460.74 123.2C453.6 128.867 442.436 131.7 427.25 131.7C416.823 131.7 406.906 130.85 397.5 129.15V41.6ZM419.6 82.74V114.02C422.433 114.813 425.663 115.21 429.29 115.21C436.543 115.21 441.813 113.793 445.1 110.96C448.5 108.013 450.2 103.48 450.2 97.36C450.2 92.3733 448.386 88.52 444.76 85.8C441.246 82.9667 435.976 81.55 428.95 81.55C425.89 81.55 422.773 81.9467 419.6 82.74ZM603.165 85.8C603.165 76.28 601.352 69.14 597.725 64.38C594.212 59.62 589.225 57.24 582.765 57.24C576.758 57.24 571.885 59.7333 568.145 64.72C564.518 69.5933 562.705 76.3367 562.705 84.95V86.65C562.705 95.49 564.518 102.347 568.145 107.22C571.885 111.98 576.758 114.36 582.765 114.36C588.772 114.36 593.645 111.923 597.385 107.05C601.238 102.063 603.165 94.98 603.165 85.8ZM624.415 85.8C624.415 100.42 621.128 111.753 614.555 119.8C608.095 127.733 599.595 131.7 589.055 131.7C578.175 131.7 569.505 127.563 563.045 119.29H562.705V167.4H540.605V41.6H561.345L561.685 54.01H562.025C568.825 44.6033 577.835 39.9 589.055 39.9C600.048 39.9 608.662 43.81 614.895 51.63C621.242 59.45 624.415 70.84 624.415 85.8ZM648.485 52.31C656.418 44.0367 667.128 39.9 680.615 39.9C694.101 39.9 704.811 44.0367 712.745 52.31C720.678 60.5833 724.645 71.7467 724.645 85.8C724.645 99.8533 720.678 111.017 712.745 119.29C704.811 127.563 694.101 131.7 680.615 131.7C667.128 131.7 656.418 127.563 648.485 119.29C640.665 111.017 636.755 99.8533 636.755 85.8C636.755 71.7467 640.665 60.5833 648.485 52.31ZM680.615 114.87C687.528 114.87 692.911 112.433 696.765 107.56C700.618 102.573 702.545 95.32 702.545 85.8C702.545 76.28 700.618 69.0833 696.765 64.21C692.911 59.2233 687.528 56.73 680.615 56.73C673.815 56.73 668.488 59.2233 664.635 64.21C660.781 69.0833 658.855 76.28 658.855 85.8C658.855 95.32 660.781 102.573 664.635 107.56C668.488 112.433 673.815 114.87 680.615 114.87ZM787.538 41.6H808.958V76.79H815.588L835.308 41.6H857.748L832.588 84.44L858.598 130H836.158L815.588 93.11H808.958V130H787.538V93.11H780.908L760.338 130H737.898L763.908 84.61L738.748 41.6H761.188L780.908 76.79H787.538V41.6ZM903.793 113.51H938.133V58.09H913.483C913.483 78.3767 913.029 91.0133 912.123 96C911.329 100.873 908.553 106.71 903.793 113.51ZM879.143 113.51C883.676 108.07 886.679 103.707 888.153 100.42C889.626 97.02 890.589 92.6567 891.043 87.33C891.609 81.89 891.893 72.1433 891.893 58.09V41.6H959.893V113.51H971.623V150.4H949.693V130H893.593V150.4H871.833V113.51H879.143ZM1005.33 78.66H1046.81C1046.7 71.2933 1044.83 65.6833 1041.2 61.83C1037.69 57.8633 1032.7 55.88 1026.24 55.88C1020.01 55.88 1015.02 57.8633 1011.28 61.83C1007.65 65.7967 1005.67 71.4067 1005.33 78.66ZM1005.33 93.79C1005.9 100.477 1008.45 105.803 1012.98 109.77C1017.63 113.623 1023.46 115.55 1030.49 115.55C1038.88 115.55 1047.21 113.453 1055.48 109.26L1060.58 124.9C1050.38 129.433 1039.61 131.7 1028.28 131.7C1014.91 131.7 1004.03 127.563 995.639 119.29C987.366 111.017 983.229 99.8533 983.229 85.8C983.229 71.52 987.083 60.3 994.789 52.14C1002.5 43.98 1012.92 39.9 1026.07 39.9C1039.22 39.9 1049.42 43.81 1056.67 51.63C1064.04 59.45 1067.72 70.67 1067.72 85.29C1067.72 88.1233 1067.55 90.9567 1067.21 93.79H1005.33ZM1109.08 91.58V130H1086.13V41.6H1109.08V75.6H1144.95V41.6H1168.07V130H1144.95V91.58H1109.08ZM1214.16 41.6V99.23H1214.33L1250.88 41.6H1273.83V130H1251.39V72.37H1251.05L1214.5 130H1191.55V41.6H1214.16ZM1315.83 89.71V89.54C1309.49 87.9533 1304.27 85.12 1300.19 81.04C1296.23 76.96 1294.24 72.0867 1294.24 66.42C1294.24 49.08 1308.01 40.41 1335.55 40.41C1346.89 40.41 1357.71 41.0333 1368.02 42.28V130H1345.41V96.68H1338.44C1334.02 96.68 1330.96 97.2467 1329.26 98.38C1327.68 99.4 1325.86 102.12 1323.82 106.54L1313.62 130H1291.35L1302.74 105.35C1304.9 100.703 1306.94 97.2467 1308.86 94.98C1310.79 92.7133 1313.11 90.9567 1315.83 89.71ZM1345.41 81.04V57.07C1342.58 56.73 1339.63 56.56 1336.57 56.56C1322.75 56.56 1315.83 60.5833 1315.83 68.63C1315.83 76.9033 1323.09 81.04 1337.59 81.04H1345.41Z" fill="black"/>
<path d="M98.08 489.128C102.496 484.456 108.32 482.12 115.552 482.12C122.784 482.12 128.576 484.456 132.928 489.128C137.344 493.8 139.552 500.104 139.552 508.04C139.552 515.976 137.344 522.28 132.928 526.952C128.576 531.624 122.784 533.96 115.552 533.96C108.32 533.96 102.496 531.624 98.08 526.952C93.728 522.28 91.552 515.976 91.552 508.04C91.552 500.104 93.728 493.8 98.08 489.128ZM105.184 521.48C107.744 524.68 111.2 526.28 115.552 526.28C119.904 526.28 123.36 524.68 125.92 521.48C128.48 518.28 129.76 513.8 129.76 508.04C129.76 502.28 128.48 497.8 125.92 494.6C123.36 491.4 119.904 489.8 115.552 489.8C111.2 489.8 107.744 491.4 105.184 494.6C102.624 497.8 101.344 502.28 101.344 508.04C101.344 513.8 102.624 518.28 105.184 521.48ZM192.277 490.856H174.901V533H164.533V490.856H147.157V483.08H192.277V490.856ZM241.677 483.08V519.368H241.869L266.445 483.08H276.813V533H266.829V496.712H266.637L242.157 533H231.693V483.08H241.677ZM332.902 490.856H315.526V533H305.158V490.856H287.782V483.08H332.902V490.856ZM346.986 489.128C351.402 484.456 357.226 482.12 364.458 482.12C371.69 482.12 377.482 484.456 381.834 489.128C386.25 493.8 388.458 500.104 388.458 508.04C388.458 515.976 386.25 522.28 381.834 526.952C377.482 531.624 371.69 533.96 364.458 533.96C357.226 533.96 351.402 531.624 346.986 526.952C342.634 522.28 340.458 515.976 340.458 508.04C340.458 500.104 342.634 493.8 346.986 489.128ZM354.09 521.48C356.65 524.68 360.106 526.28 364.458 526.28C368.81 526.28 372.266 524.68 374.826 521.48C377.386 518.28 378.666 513.8 378.666 508.04C378.666 502.28 377.386 497.8 374.826 494.6C372.266 491.4 368.81 489.8 364.458 489.8C360.106 489.8 356.65 491.4 354.09 494.6C351.53 497.8 350.25 502.28 350.25 508.04C350.25 513.8 351.53 518.28 354.09 521.48ZM409.023 533H398.943V483.08H436.383V491.24H409.023V533ZM450.018 489.128C454.434 484.456 460.258 482.12 467.49 482.12C474.722 482.12 480.514 484.456 484.866 489.128C489.282 493.8 491.49 500.104 491.49 508.04C491.49 515.976 489.282 522.28 484.866 526.952C480.514 531.624 474.722 533.96 467.49 533.96C460.258 533.96 454.434 531.624 450.018 526.952C445.666 522.28 443.49 515.976 443.49 508.04C443.49 500.104 445.666 493.8 450.018 489.128ZM457.122 521.48C459.682 524.68 463.138 526.28 467.49 526.28C471.842 526.28 475.298 524.68 477.858 521.48C480.418 518.28 481.698 513.8 481.698 508.04C481.698 502.28 480.418 497.8 477.858 494.6C475.298 491.4 471.842 489.8 467.49 489.8C463.138 489.8 459.682 491.4 457.122 494.6C454.562 497.8 453.282 502.28 453.282 508.04C453.282 513.8 454.562 518.28 457.122 521.48ZM511.959 526.568C514.071 526.888 516.119 527.048 518.103 527.048C527.255 527.048 531.831 524.008 531.831 517.928C531.831 512.424 527.063 509.672 517.527 509.672H511.959V526.568ZM511.959 503.336H517.335C521.239 503.336 524.247 502.696 526.359 501.416C528.535 500.072 529.623 498.216 529.623 495.848C529.623 491.304 525.655 489.032 517.719 489.032C515.927 489.032 514.007 489.192 511.959 489.512V503.336ZM541.527 518.6C541.527 528.648 533.591 533.672 517.719 533.672C512.343 533.672 507.095 533.32 501.975 532.616V483.464C506.775 482.76 511.735 482.408 516.855 482.408C531.639 482.408 539.031 486.504 539.031 494.696C539.031 497.576 538.007 500.04 535.959 502.088C533.975 504.072 531.191 505.384 527.607 506.024V506.12C532.023 506.76 535.447 508.2 537.879 510.44C540.311 512.616 541.527 515.336 541.527 518.6ZM555.674 489.128C560.09 484.456 565.914 482.12 573.146 482.12C580.378 482.12 586.17 484.456 590.522 489.128C594.938 493.8 597.146 500.104 597.146 508.04C597.146 515.976 594.938 522.28 590.522 526.952C586.17 531.624 580.378 533.96 573.146 533.96C565.914 533.96 560.09 531.624 555.674 526.952C551.322 522.28 549.146 515.976 549.146 508.04C549.146 500.104 551.322 493.8 555.674 489.128ZM562.778 521.48C565.338 524.68 568.794 526.28 573.146 526.28C577.498 526.28 580.954 524.68 583.514 521.48C586.074 518.28 587.354 513.8 587.354 508.04C587.354 502.28 586.074 497.8 583.514 494.6C580.954 491.4 577.498 489.8 573.146 489.8C568.794 489.8 565.338 491.4 562.778 494.6C560.218 497.8 558.938 502.28 558.938 508.04C558.938 513.8 560.218 518.28 562.778 521.48ZM617.615 483.08V519.368H617.807L642.383 483.08H652.751V533H642.767V496.712H642.575L618.095 533H607.631V483.08H617.615ZM611.471 461.48H619.631C619.759 463.784 620.847 465.736 622.895 467.336C624.943 468.872 627.375 469.64 630.191 469.64C633.007 469.64 635.439 468.872 637.487 467.336C639.535 465.736 640.623 463.784 640.751 461.48H648.911C648.911 465.832 647.151 469.48 643.631 472.424C640.111 475.368 635.631 476.84 630.191 476.84C624.751 476.84 620.271 475.368 616.751 472.424C613.231 469.48 611.471 465.832 611.471 461.48ZM730.62 493.352C726.46 491.112 722.14 489.992 717.66 489.992C712.732 489.992 708.86 491.56 706.044 494.696C703.228 497.832 701.82 502.28 701.82 508.04C701.82 513.672 703.292 518.12 706.236 521.384C709.244 524.648 713.052 526.28 717.66 526.28C722.14 526.28 726.46 525.16 730.62 522.92L733.02 530.6C727.9 532.84 722.62 533.96 717.18 533.96C709.628 533.96 703.484 531.624 698.748 526.952C694.076 522.28 691.74 515.976 691.74 508.04C691.74 499.912 693.98 493.576 698.46 489.032C702.94 484.424 709.18 482.12 717.18 482.12C722.62 482.12 727.9 483.24 733.02 485.48L730.62 493.352ZM753.304 483.08L767.128 521.48H767.32L780.184 483.08H790.552L771.832 533C768.568 541.704 764.984 547.56 761.08 550.568C757.24 553.576 751.544 555.08 743.992 555.08L743.512 547.208C748.76 547.208 752.664 546.248 755.224 544.328C757.784 542.472 760.12 538.696 762.232 533L742.552 483.08H753.304ZM847.8 496.52L833.4 519.368H824.856L810.456 496.52H810.264V533H800.568V483.08H811.704L829.08 512.168H829.176L846.552 483.08H857.784V533H847.896V496.52H847.8ZM918.863 496.52L904.463 519.368H895.919L881.519 496.52H881.327V533H871.631V483.08H882.767L900.143 512.168H900.239L917.615 483.08H928.847V533H918.959V496.52H918.863ZM990.213 533V483.08H999.525V533H990.213ZM942.693 483.08H952.293V497.672C954.533 497.224 957.253 497 960.453 497C967.749 497 973.317 498.6 977.157 501.8C981.061 504.936 983.013 509.256 983.013 514.76C983.013 521.224 980.997 526.056 976.965 529.256C972.997 532.392 966.853 533.96 958.533 533.96C952.965 533.96 947.685 533.48 942.693 532.52V483.08ZM952.293 505.352V525.512C954.661 526.024 956.965 526.28 959.205 526.28C964.133 526.28 967.749 525.352 970.053 523.496C972.421 521.576 973.605 518.664 973.605 514.76C973.605 511.56 972.389 509.096 969.957 507.368C967.525 505.576 963.877 504.68 959.013 504.68C956.389 504.68 954.149 504.904 952.293 505.352ZM1069.53 506.696C1073.3 507.336 1076.34 508.872 1078.65 511.304C1080.95 513.672 1082.1 516.424 1082.1 519.56C1082.1 523.912 1080.09 527.4 1076.06 530.024C1072.09 532.648 1066.36 533.96 1058.87 533.96C1052.22 533.96 1045.59 532.744 1039 530.312L1041.3 523.208C1047.38 525.256 1053.08 526.28 1058.39 526.28C1067.48 526.28 1072.02 523.656 1072.02 518.408C1072.02 515.72 1070.55 513.736 1067.61 512.456C1064.66 511.112 1059.51 510.44 1052.15 510.44H1048.31V503.048H1052.15C1064.95 503.048 1071.35 500.712 1071.35 496.04C1071.35 491.752 1066.87 489.608 1057.91 489.608C1052.86 489.608 1047.54 490.696 1041.98 492.872L1039.67 485.768C1046.01 483.336 1052.41 482.12 1058.87 482.12C1065.98 482.12 1071.51 483.304 1075.48 485.672C1079.45 488.04 1081.43 491.016 1081.43 494.6C1081.43 497.288 1080.38 499.72 1078.26 501.896C1076.15 504.072 1073.24 505.608 1069.53 506.504V506.696ZM1122.83 508.232H1118.03C1112.27 508.232 1107.82 509.224 1104.68 511.208C1101.61 513.192 1100.08 515.816 1100.08 519.08C1100.08 521.448 1100.78 523.336 1102.19 524.744C1103.66 526.088 1105.58 526.76 1107.95 526.76C1111.98 526.76 1115.47 525.384 1118.41 522.632C1121.36 519.816 1122.83 516.392 1122.83 512.36V508.232ZM1090.67 519.56C1090.67 513.992 1093 509.544 1097.68 506.216C1102.41 502.824 1109.2 501.128 1118.03 501.128H1122.83V500.648C1122.83 496.616 1122 493.8 1120.33 492.2C1118.73 490.6 1115.88 489.8 1111.79 489.8C1105.71 489.8 1100.11 491.24 1094.99 494.12L1093.55 486.44C1098.92 483.56 1105 482.12 1111.79 482.12C1119.02 482.12 1124.27 483.592 1127.53 486.536C1130.8 489.416 1132.43 494.024 1132.43 500.36V519.56C1132.43 524.104 1132.91 528.584 1133.87 533H1124.75C1124.24 530.184 1123.95 527.624 1123.88 525.32H1123.69C1121.9 528.008 1119.4 530.12 1116.2 531.656C1113.07 533.192 1109.52 533.96 1105.55 533.96C1101 533.96 1097.39 532.68 1094.7 530.12C1092.01 527.56 1090.67 524.04 1090.67 519.56ZM1157.06 503.624L1177.7 483.08H1189.8L1165.03 506.984L1190.66 533H1178.57L1157.06 510.44H1156.87V533H1146.69V483.08H1156.87V503.624H1157.06ZM1231.39 508.232H1226.59C1220.83 508.232 1216.38 509.224 1213.25 511.208C1210.17 513.192 1208.64 515.816 1208.64 519.08C1208.64 521.448 1209.34 523.336 1210.75 524.744C1212.22 526.088 1214.14 526.76 1216.51 526.76C1220.54 526.76 1224.03 525.384 1226.97 522.632C1229.92 519.816 1231.39 516.392 1231.39 512.36V508.232ZM1199.23 519.56C1199.23 513.992 1201.57 509.544 1206.24 506.216C1210.97 502.824 1217.76 501.128 1226.59 501.128H1231.39V500.648C1231.39 496.616 1230.56 493.8 1228.89 492.2C1227.29 490.6 1224.45 489.8 1220.35 489.8C1214.27 489.8 1208.67 491.24 1203.55 494.12L1202.11 486.44C1207.49 483.56 1213.57 482.12 1220.35 482.12C1227.58 482.12 1232.83 483.592 1236.09 486.536C1239.36 489.416 1240.99 494.024 1240.99 500.36V519.56C1240.99 524.104 1241.47 528.584 1242.43 533H1233.31C1232.8 530.184 1232.51 527.624 1232.45 525.32H1232.25C1230.46 528.008 1227.97 530.12 1224.77 531.656C1221.63 533.192 1218.08 533.96 1214.11 533.96C1209.57 533.96 1205.95 532.68 1203.26 530.12C1200.57 527.56 1199.23 524.04 1199.23 519.56ZM1282.9 506.696C1286.68 507.336 1289.72 508.872 1292.02 511.304C1294.33 513.672 1295.48 516.424 1295.48 519.56C1295.48 523.912 1293.46 527.4 1289.43 530.024C1285.46 532.648 1279.74 533.96 1272.25 533.96C1265.59 533.96 1258.97 532.744 1252.38 530.312L1254.68 523.208C1260.76 525.256 1266.46 526.28 1271.77 526.28C1280.86 526.28 1285.4 523.656 1285.4 518.408C1285.4 515.72 1283.93 513.736 1280.98 512.456C1278.04 511.112 1272.89 510.44 1265.53 510.44H1261.69V503.048H1265.53C1278.33 503.048 1284.73 500.712 1284.73 496.04C1284.73 491.752 1280.25 489.608 1271.29 489.608C1266.23 489.608 1260.92 490.696 1255.35 492.872L1253.05 485.768C1259.38 483.336 1265.78 482.12 1272.25 482.12C1279.35 482.12 1284.89 483.304 1288.86 485.672C1292.82 488.04 1294.81 491.016 1294.81 494.6C1294.81 497.288 1293.75 499.72 1291.64 501.896C1289.53 504.072 1286.62 505.608 1282.9 506.504V506.696ZM1336.2 508.232H1331.4C1325.64 508.232 1321.2 509.224 1318.06 511.208C1314.99 513.192 1313.45 515.816 1313.45 519.08C1313.45 521.448 1314.16 523.336 1315.56 524.744C1317.04 526.088 1318.96 526.76 1321.32 526.76C1325.36 526.76 1328.84 525.384 1331.79 522.632C1334.73 519.816 1336.2 516.392 1336.2 512.36V508.232ZM1304.04 519.56C1304.04 513.992 1306.38 509.544 1311.05 506.216C1315.79 502.824 1322.57 501.128 1331.4 501.128H1336.2V500.648C1336.2 496.616 1335.37 493.8 1333.71 492.2C1332.11 490.6 1329.26 489.8 1325.16 489.8C1319.08 489.8 1313.48 491.24 1308.36 494.12L1306.92 486.44C1312.3 483.56 1318.38 482.12 1325.16 482.12C1332.4 482.12 1337.64 483.592 1340.91 486.536C1344.17 489.416 1345.8 494.024 1345.8 500.36V519.56C1345.8 524.104 1346.28 528.584 1347.24 533H1338.12C1337.61 530.184 1337.32 527.624 1337.26 525.32H1337.07C1335.28 528.008 1332.78 530.12 1329.58 531.656C1326.44 533.192 1322.89 533.96 1318.92 533.96C1314.38 533.96 1310.76 532.68 1308.08 530.12C1305.39 527.56 1304.04 524.04 1304.04 519.56Z" fill="black"/>
<path d="M354.864 669.064L356.784 675.272C353.285 676.851 349.659 677.64 345.904 677.64C340.571 677.64 336.283 676.083 333.04 672.968C329.797 669.853 328.176 665.651 328.176 660.36C328.176 654.941 329.733 650.717 332.848 647.688C336.005 644.616 340.357 643.08 345.904 643.08C349.659 643.08 353.285 643.869 356.784 645.448L354.864 651.784C352.176 650.248 349.317 649.48 346.288 649.48C343.259 649.48 340.891 650.419 339.184 652.296C337.52 654.173 336.688 656.861 336.688 660.36C336.688 663.773 337.563 666.461 339.312 668.424C341.104 670.387 343.429 671.368 346.288 671.368C349.36 671.368 352.219 670.6 354.864 669.064ZM373.747 657.032L385.203 643.72H395.251L380.659 659.656L395.826 677H385.779L373.747 662.344H373.619V677H364.979V643.72H373.619V657.032H373.747ZM411.241 643.72V665.416H411.305L425.065 643.72H433.705V677H425.257V655.304H425.129L411.369 677H402.729V643.72H411.241ZM452.333 670.792H465.261V649.928H455.981C455.981 657.565 455.81 662.323 455.469 664.2C455.17 666.035 454.125 668.232 452.333 670.792ZM443.053 670.792C444.76 668.744 445.89 667.101 446.445 665.864C447 664.584 447.362 662.941 447.533 660.936C447.746 658.888 447.853 655.219 447.853 649.928V643.72H473.453V670.792H477.869V684.68H469.613V677H448.493V684.68H440.301V670.792H443.053ZM493.247 657.032L504.703 643.72H514.751L500.159 659.656L515.326 677H505.279L493.247 662.344H493.119V677H484.479V643.72H493.119V657.032H493.247ZM530.741 643.72V665.416H530.805L544.565 643.72H553.205V677H544.757V655.304H544.629L530.869 677H522.229V643.72H530.741ZM590.119 662.536V677H581.479V643.72H590.119V656.52H603.623V643.72H612.326V677H603.623V662.536H590.119ZM627.246 657.672H642.862C642.819 654.899 642.115 652.787 640.75 651.336C639.427 649.843 637.55 649.096 635.118 649.096C632.771 649.096 630.894 649.843 629.486 651.336C628.121 652.829 627.374 654.941 627.246 657.672ZM627.246 663.368C627.459 665.885 628.419 667.891 630.126 669.384C631.875 670.835 634.073 671.56 636.718 671.56C639.875 671.56 643.011 670.771 646.126 669.192L648.046 675.08C644.206 676.787 640.153 677.64 635.886 677.64C630.851 677.64 626.755 676.083 623.598 672.968C620.483 669.853 618.926 665.651 618.926 660.36C618.926 654.984 620.377 650.76 623.278 647.688C626.179 644.616 630.105 643.08 635.054 643.08C640.003 643.08 643.843 644.552 646.574 647.496C649.347 650.44 650.734 654.664 650.734 660.168C650.734 661.235 650.67 662.301 650.542 663.368H627.246ZM701.552 669.064L703.472 675.272C699.973 676.851 696.346 677.64 692.592 677.64C687.258 677.64 682.97 676.083 679.728 672.968C676.485 669.853 674.864 665.651 674.864 660.36C674.864 654.941 676.421 650.717 679.536 647.688C682.693 644.616 687.045 643.08 692.592 643.08C696.346 643.08 699.973 643.869 703.472 645.448L701.552 651.784C698.864 650.248 696.005 649.48 692.976 649.48C689.946 649.48 687.578 650.419 685.872 652.296C684.208 654.173 683.376 656.861 683.376 660.36C683.376 663.773 684.25 666.461 686 668.424C687.792 670.387 690.117 671.368 692.976 671.368C696.048 671.368 698.906 670.6 701.552 669.064ZM710.898 691.72L710.386 685.192C713.927 685.192 716.53 684.637 718.194 683.528C719.858 682.419 721.266 680.243 722.418 677L709.426 643.72H718.706L726.386 668.232H726.514L734.258 643.72H743.154L730.674 677.192C728.626 682.739 726.173 686.536 723.314 688.584C720.455 690.675 716.317 691.72 710.898 691.72ZM780.008 655.24L772.392 668.616H765.352L757.736 655.24H757.672V677H749.416V643.72H758.632L768.808 662.664H768.936L779.112 643.72H788.456V677H780.136V655.24H780.008ZM827.883 655.24L820.267 668.616H813.227L805.611 655.24H805.547V677H797.291V643.72H806.507L816.683 662.664H816.811L826.987 643.72H836.331V677H828.011V655.24H827.883ZM853.678 643.72V665.416H853.742L867.502 643.72H876.142V677H867.694V655.304H867.566L853.806 677H845.166V643.72H853.678ZM908.531 660.36C908.531 656.776 907.848 654.088 906.483 652.296C905.16 650.504 903.283 649.608 900.851 649.608C898.589 649.608 896.755 650.547 895.347 652.424C893.981 654.259 893.299 656.797 893.299 660.04V660.68C893.299 664.008 893.981 666.589 895.347 668.424C896.755 670.216 898.589 671.112 900.851 671.112C903.112 671.112 904.947 670.195 906.355 668.36C907.805 666.483 908.531 663.816 908.531 660.36ZM916.531 660.36C916.531 665.864 915.293 670.131 912.819 673.16C910.387 676.147 907.187 677.64 903.219 677.64C899.123 677.64 895.859 676.083 893.427 672.968H893.299V691.08H884.979V643.72H892.787L892.915 648.392H893.043C895.603 644.851 898.995 643.08 903.219 643.08C907.357 643.08 910.6 644.552 912.947 647.496C915.336 650.44 916.531 654.728 916.531 660.36ZM922.648 691.72L922.136 685.192C925.677 685.192 928.28 684.637 929.944 683.528C931.608 682.419 933.016 680.243 934.168 677L921.176 643.72H930.456L938.136 668.232H938.264L946.008 643.72H954.904L942.424 677.192C940.376 682.739 937.923 686.536 935.064 688.584C932.205 690.675 928.067 691.72 922.648 691.72ZM961.166 643.72H969.358V657.288H974.542C975.097 652.808 976.739 649.331 979.47 646.856C982.201 644.339 985.742 643.08 990.094 643.08C994.915 643.08 998.734 644.616 1001.55 647.688C1004.37 650.717 1005.77 654.941 1005.77 660.36C1005.77 665.779 1004.37 670.024 1001.55 673.096C998.734 676.125 994.915 677.64 990.094 677.64C985.742 677.64 982.201 676.403 979.47 673.928C976.739 671.411 975.097 667.912 974.542 663.432H969.358V677H961.166V643.72ZM982.606 660.36C982.606 667.741 985.102 671.432 990.094 671.432C995.086 671.432 997.582 667.741 997.582 660.36C997.582 652.979 995.086 649.288 990.094 649.288C985.102 649.288 982.606 652.979 982.606 660.36ZM1041.59 650.248H1030.59V677H1021.75V650.248H1010.75V643.72H1041.59V650.248ZM1072.93 669.064L1074.85 675.272C1071.35 676.851 1067.72 677.64 1063.97 677.64C1058.63 677.64 1054.35 676.083 1051.1 672.968C1047.86 669.853 1046.24 665.651 1046.24 660.36C1046.24 654.941 1047.8 650.717 1050.91 647.688C1054.07 644.616 1058.42 643.08 1063.97 643.08C1067.72 643.08 1071.35 643.869 1074.85 645.448L1072.93 651.784C1070.24 650.248 1067.38 649.48 1064.35 649.48C1061.32 649.48 1058.95 650.419 1057.25 652.296C1055.58 654.173 1054.75 656.861 1054.75 660.36C1054.75 663.773 1055.63 666.461 1057.37 668.424C1059.17 670.387 1061.49 671.368 1064.35 671.368C1067.42 671.368 1070.28 670.6 1072.93 669.064ZM1090.02 661.832V661.768C1087.63 661.171 1085.67 660.104 1084.13 658.568C1082.64 657.032 1081.89 655.197 1081.89 653.064C1081.89 646.536 1087.07 643.272 1097.44 643.272C1101.71 643.272 1105.78 643.507 1109.67 643.976V677H1101.15V664.456H1098.53C1096.87 664.456 1095.71 664.669 1095.07 665.096C1094.48 665.48 1093.79 666.504 1093.03 668.168L1089.19 677H1080.8L1085.09 667.72C1085.9 665.971 1086.67 664.669 1087.39 663.816C1088.12 662.963 1088.99 662.301 1090.02 661.832ZM1101.15 658.568V649.544C1100.09 649.416 1098.98 649.352 1097.83 649.352C1092.62 649.352 1090.02 650.867 1090.02 653.896C1090.02 657.011 1092.75 658.568 1098.21 658.568H1101.15Z" fill="#E68888"/>
<rect x="447" y="249.457" width="535" height="197" rx="98.5" transform="rotate(-8 447 249.457)" fill="#E81D1D"/>
<path d="M601.875 340.578L599.595 324.353L642.311 318.35L644.592 334.575L601.875 340.578ZM716.834 276.984L679.948 282.168L681.483 299.531L681.737 299.496C685.387 297.259 689.324 295.844 693.549 295.25C703.013 293.92 710.679 295.428 716.546 299.774C722.414 304.119 725.995 310.898 727.289 320.108C730.353 341.91 718.914 354.634 692.972 358.28C683.507 359.61 674.385 359.083 665.605 356.697L667.636 338.962C676.501 341.335 683.849 342.112 689.679 341.293C702.101 339.547 707.582 333.477 706.121 323.083C704.933 314.633 700.115 311.002 691.664 312.189C687.946 312.712 684.496 314.834 681.314 318.556L662.934 321.139L657.987 267.546L714.393 259.619L716.834 276.984ZM802.537 247.231L819.902 244.79L783.472 344.268L766.107 346.709L802.537 247.231ZM806.696 297.057C810.376 291.973 816.061 288.89 823.751 287.809C831.44 286.729 837.713 288.131 842.567 292.015C847.494 295.804 850.528 301.754 851.668 309.867C852.808 317.979 851.538 324.577 847.858 329.662C844.262 334.734 838.619 337.811 830.93 338.891C823.24 339.972 816.926 338.576 811.986 334.703C807.132 330.818 804.135 324.82 802.994 316.707C801.854 308.595 803.088 302.045 806.696 297.057ZM738.024 261.856C741.704 256.771 747.389 253.689 755.079 252.608C762.769 251.527 769.041 252.929 773.896 256.814C778.75 260.699 781.748 266.698 782.888 274.81C784.028 282.922 782.8 289.514 779.204 294.587C775.597 299.575 769.948 302.609 762.258 303.69C754.569 304.771 748.26 303.417 743.333 299.628C738.478 295.743 735.481 289.745 734.341 281.633C733.201 273.52 734.429 266.928 738.024 261.856ZM820.106 314.302C821.27 322.584 824.26 326.386 829.077 325.709C833.894 325.032 835.72 320.553 834.556 312.272C833.404 304.075 830.42 300.315 825.603 300.992C820.787 301.669 818.954 306.106 820.106 314.302ZM760.406 290.507C762.772 290.175 764.416 288.996 765.337 286.971C766.259 284.945 766.405 281.693 765.776 277.215C764.612 268.933 761.664 265.125 756.932 265.79C752.115 266.467 750.289 270.946 751.453 279.228C752.605 287.424 755.589 291.184 760.406 290.507Z" fill="white"/>
</g>
<rect x="3" y="3" width="1445" height="694" stroke="#FDFD3E" stroke-width="6"/>
<defs>
<clipPath id="clip0_927_320">
<rect width="1451" height="700" fill="white"/>
</clipPath>
</defs>
</svg>
