<svg width="2340" height="700" viewBox="0 0 2340 700" fill="none" xmlns="http://www.w3.org/2000/svg">
<g clip-path="url(#clip0_926_106)">
<rect width="2340" height="700" fill="white"/>
<path d="M277.89 154.7C264.063 154.7 253.41 150.677 245.93 142.63C238.563 134.47 234.88 122.797 234.88 107.61V73.61C234.88 57.4033 239.073 45.6167 247.46 38.25C255.96 30.8833 269.503 27.2 288.09 27.2C297.27 27.2 305.883 26.6333 313.93 25.5V42.16C305.43 43.2933 297.043 43.86 288.77 43.86C276.417 43.86 267.973 45.9567 263.44 50.15C258.907 54.23 256.64 61.88 256.64 73.1V79.39H256.98C263.44 70.6633 272.393 66.3 283.84 66.3C293.813 66.3 302.087 70.3233 308.66 78.37C315.347 86.3033 318.69 97.0133 318.69 110.5C318.69 124.667 315.12 135.603 307.98 143.31C300.84 150.903 290.81 154.7 277.89 154.7ZM297.44 110.5C297.44 102 295.627 95.37 292 90.61C288.373 85.7367 283.613 83.3 277.72 83.3C271.487 83.3 266.443 85.6233 262.59 90.27C258.85 94.9167 256.98 101.377 256.98 109.65V111.35C256.98 119.397 258.85 125.8 262.59 130.56C266.33 135.32 271.147 137.7 277.04 137.7C283.5 137.7 288.487 135.377 292 130.73C295.627 126.083 297.44 119.34 297.44 110.5ZM355.806 101.66H397.286C397.172 94.2933 395.302 88.6833 391.676 84.83C388.162 80.8633 383.176 78.88 376.716 78.88C370.482 78.88 365.496 80.8633 361.756 84.83C358.129 88.7967 356.146 94.4067 355.806 101.66ZM355.806 116.79C356.372 123.477 358.922 128.803 363.456 132.77C368.102 136.623 373.939 138.55 380.966 138.55C389.352 138.55 397.682 136.453 405.956 132.26L411.056 147.9C400.856 152.433 390.089 154.7 378.756 154.7C365.382 154.7 354.502 150.563 346.116 142.29C337.842 134.017 333.706 122.853 333.706 108.8C333.706 94.52 337.559 83.3 345.266 75.14C352.972 66.98 363.399 62.9 376.546 62.9C389.692 62.9 399.892 66.81 407.146 74.63C414.512 82.45 418.196 93.67 418.196 108.29C418.196 111.123 418.026 113.957 417.686 116.79H355.806ZM501.549 131.92L506.649 148.41C497.356 152.603 487.722 154.7 477.749 154.7C463.582 154.7 452.192 150.563 443.579 142.29C434.966 134.017 430.659 122.853 430.659 108.8C430.659 94.4067 434.796 83.1867 443.069 75.14C451.456 66.98 463.016 62.9 477.749 62.9C487.722 62.9 497.356 64.9967 506.649 69.19L501.549 86.02C494.409 81.94 486.816 79.9 478.769 79.9C470.722 79.9 464.432 82.3933 459.899 87.38C455.479 92.3667 453.269 99.5067 453.269 108.8C453.269 117.867 455.592 125.007 460.239 130.22C464.999 135.433 471.176 138.04 478.769 138.04C486.929 138.04 494.522 136 501.549 131.92ZM528.416 64.6H609.506V153H587.066V81.6H550.856V153H528.416V64.6ZM717.665 153H695.395V81.6H667.515V109.99C667.515 126.31 664.512 137.643 658.505 143.99C652.499 150.223 641.279 153.793 624.845 154.7L623.655 137.7C630.002 137.36 634.649 136.397 637.595 134.81C640.542 133.11 642.639 130.163 643.885 125.97C645.132 121.777 645.755 115.373 645.755 106.76V64.6H717.665V153ZM776.782 62.9C790.268 62.9 799.958 65.5633 805.852 70.89C811.745 76.1033 814.692 84.6033 814.692 96.39V129.2C814.692 137.247 815.542 145.18 817.242 153H796.332C795.652 149.26 795.142 144.897 794.802 139.91H794.462C791.288 144.557 786.982 148.183 781.542 150.79C776.215 153.397 770.378 154.7 764.032 154.7C755.758 154.7 749.128 152.433 744.142 147.9C739.268 143.253 736.832 136.85 736.832 128.69C736.832 118.83 740.968 110.953 749.242 105.06C757.628 99.0533 769.642 96.05 785.282 96.05H792.592V95.54C792.592 89.5333 791.402 85.34 789.022 82.96C786.642 80.58 782.392 79.39 776.272 79.39C765.165 79.39 754.682 81.94 744.822 87.04L741.592 70.55C752.358 65.45 764.088 62.9 776.782 62.9ZM757.572 126.99C757.572 130.617 758.648 133.45 760.802 135.49C762.955 137.53 765.902 138.55 769.642 138.55C776.102 138.55 781.542 136.453 785.962 132.26C790.382 128.067 792.592 122.797 792.592 116.45V110.67H785.282C776.328 110.67 769.472 112.2 764.712 115.26C759.952 118.207 757.572 122.117 757.572 126.99ZM915.871 81.94H886.631V153H863.171V81.94H833.931V64.6H915.871V81.94ZM957.108 114.58V153H934.158V64.6H957.108V98.6H992.978V64.6H1016.1V153H992.978V114.58H957.108ZM1075.28 62.9C1088.76 62.9 1098.45 65.5633 1104.35 70.89C1110.24 76.1033 1113.19 84.6033 1113.19 96.39V129.2C1113.19 137.247 1114.04 145.18 1115.74 153H1094.83C1094.15 149.26 1093.64 144.897 1093.3 139.91H1092.96C1089.78 144.557 1085.48 148.183 1080.04 150.79C1074.71 153.397 1068.87 154.7 1062.53 154.7C1054.25 154.7 1047.62 152.433 1042.64 147.9C1037.76 143.253 1035.33 136.85 1035.33 128.69C1035.33 118.83 1039.46 110.953 1047.74 105.06C1056.12 99.0533 1068.14 96.05 1083.78 96.05H1091.09V95.54C1091.09 89.5333 1089.9 85.34 1087.52 82.96C1085.14 80.58 1080.89 79.39 1074.77 79.39C1063.66 79.39 1053.18 81.94 1043.32 87.04L1040.09 70.55C1050.85 65.45 1062.58 62.9 1075.28 62.9ZM1056.07 126.99C1056.07 130.617 1057.14 133.45 1059.3 135.49C1061.45 137.53 1064.4 138.55 1068.14 138.55C1074.6 138.55 1080.04 136.453 1084.46 132.26C1088.88 128.067 1091.09 122.797 1091.09 116.45V110.67H1083.78C1074.82 110.67 1067.97 112.2 1063.21 115.26C1058.45 118.207 1056.07 122.117 1056.07 126.99ZM1156.06 112.71V112.54C1149.71 110.953 1144.5 108.12 1140.42 104.04C1136.45 99.96 1134.47 95.0867 1134.47 89.42C1134.47 72.08 1148.24 63.41 1175.78 63.41C1187.11 63.41 1197.93 64.0333 1208.25 65.28V153H1185.64V119.68H1178.67C1174.25 119.68 1171.19 120.247 1169.49 121.38C1167.9 122.4 1166.09 125.12 1164.05 129.54L1153.85 153H1131.58L1142.97 128.35C1145.12 123.703 1147.16 120.247 1149.09 117.98C1151.01 115.713 1153.34 113.957 1156.06 112.71ZM1185.64 104.04V80.07C1182.8 79.73 1179.86 79.56 1176.8 79.56C1162.97 79.56 1156.06 83.5833 1156.06 91.63C1156.06 99.9033 1163.31 104.04 1177.82 104.04H1185.64Z" fill="black"/>
<path d="M1367.74 136.51H1402.08V81.09H1377.43C1377.43 101.377 1376.98 114.013 1376.07 119C1375.28 123.873 1372.5 129.71 1367.74 136.51ZM1343.09 136.51C1347.62 131.07 1350.63 126.707 1352.1 123.42C1353.57 120.02 1354.54 115.657 1354.99 110.33C1355.56 104.89 1355.84 95.1433 1355.84 81.09V64.6H1423.84V136.51H1435.57V173.4H1413.64V153H1357.54V173.4H1335.78V136.51H1343.09ZM1458.91 75.31C1466.84 67.0367 1477.55 62.9 1491.04 62.9C1504.52 62.9 1515.23 67.0367 1523.17 75.31C1531.1 83.5833 1535.07 94.7467 1535.07 108.8C1535.07 122.853 1531.1 134.017 1523.17 142.29C1515.23 150.563 1504.52 154.7 1491.04 154.7C1477.55 154.7 1466.84 150.563 1458.91 142.29C1451.09 134.017 1447.18 122.853 1447.18 108.8C1447.18 94.7467 1451.09 83.5833 1458.91 75.31ZM1491.04 137.87C1497.95 137.87 1503.33 135.433 1507.19 130.56C1511.04 125.573 1512.97 118.32 1512.97 108.8C1512.97 99.28 1511.04 92.0833 1507.19 87.21C1503.33 82.2233 1497.95 79.73 1491.04 79.73C1484.24 79.73 1478.91 82.2233 1475.06 87.21C1471.2 92.0833 1469.28 99.28 1469.28 108.8C1469.28 118.32 1471.2 125.573 1475.06 130.56C1478.91 135.433 1484.24 137.87 1491.04 137.87ZM1617.51 131.92L1622.61 148.41C1613.32 152.603 1603.68 154.7 1593.71 154.7C1579.54 154.7 1568.15 150.563 1559.54 142.29C1550.93 134.017 1546.62 122.853 1546.62 108.8C1546.62 94.4067 1550.76 83.1867 1559.03 75.14C1567.42 66.98 1578.98 62.9 1593.71 62.9C1603.68 62.9 1613.32 64.9967 1622.61 69.19L1617.51 86.02C1610.37 81.94 1602.78 79.9 1594.73 79.9C1586.68 79.9 1580.39 82.3933 1575.86 87.38C1571.44 92.3667 1569.23 99.5067 1569.23 108.8C1569.23 117.867 1571.55 125.007 1576.2 130.22C1580.96 135.433 1587.14 138.04 1594.73 138.04C1602.89 138.04 1610.48 136 1617.51 131.92ZM1721.22 81.94H1691.98V153H1668.52V81.94H1639.28V64.6H1721.22V81.94ZM1775.2 62.9C1788.69 62.9 1798.38 65.5633 1804.27 70.89C1810.17 76.1033 1813.11 84.6033 1813.11 96.39V129.2C1813.11 137.247 1813.96 145.18 1815.66 153H1794.75C1794.07 149.26 1793.56 144.897 1793.22 139.91H1792.88C1789.71 144.557 1785.4 148.183 1779.96 150.79C1774.64 153.397 1768.8 154.7 1762.45 154.7C1754.18 154.7 1747.55 152.433 1742.56 147.9C1737.69 143.253 1735.25 136.85 1735.25 128.69C1735.25 118.83 1739.39 110.953 1747.66 105.06C1756.05 99.0533 1768.06 96.05 1783.7 96.05H1791.01V95.54C1791.01 89.5333 1789.82 85.34 1787.44 82.96C1785.06 80.58 1780.81 79.39 1774.69 79.39C1763.59 79.39 1753.1 81.94 1743.24 87.04L1740.01 70.55C1750.78 65.45 1762.51 62.9 1775.2 62.9ZM1755.99 126.99C1755.99 130.617 1757.07 133.45 1759.22 135.49C1761.38 137.53 1764.32 138.55 1768.06 138.55C1774.52 138.55 1779.96 136.453 1784.38 132.26C1788.8 128.067 1791.01 122.797 1791.01 116.45V110.67H1783.7C1774.75 110.67 1767.89 112.2 1763.13 115.26C1758.37 118.207 1755.99 122.117 1755.99 126.99ZM1860.06 139.06C1862.67 139.4 1865.28 139.57 1867.88 139.57C1881.48 139.57 1888.28 135.037 1888.28 125.97C1888.28 117.697 1881.31 113.56 1867.37 113.56H1860.06V139.06ZM1860.06 99.62H1867.03C1872.59 99.62 1876.95 98.6 1880.12 96.56C1883.3 94.52 1884.88 91.7433 1884.88 88.23C1884.88 81.43 1879.05 78.03 1867.37 78.03C1864.88 78.03 1862.44 78.2 1860.06 78.54V99.62ZM1909.87 127.5C1909.87 145.293 1895.59 154.19 1867.03 154.19C1856.95 154.19 1847.09 153.567 1837.45 152.32V65.28C1846.52 64.0333 1855.87 63.41 1865.5 63.41C1892.48 63.41 1905.96 70.7767 1905.96 85.51C1905.96 90.61 1904.09 94.9733 1900.35 98.6C1896.73 102.113 1891.68 104.437 1885.22 105.57V105.74C1892.93 106.76 1898.94 109.253 1903.24 113.22C1907.66 117.073 1909.87 121.833 1909.87 127.5ZM1951.55 99.96L1981.98 64.6H2008.67L1969.91 106.93L2010.2 153H1983.51L1951.55 114.07H1951.21V153H1928.26V64.6H1951.21V99.96H1951.55ZM2064.24 62.9C2077.72 62.9 2087.41 65.5633 2093.31 70.89C2099.2 76.1033 2102.15 84.6033 2102.15 96.39V129.2C2102.15 137.247 2103 145.18 2104.7 153H2083.79C2083.11 149.26 2082.6 144.897 2082.26 139.91H2081.92C2078.74 144.557 2074.44 148.183 2069 150.79C2063.67 153.397 2057.83 154.7 2051.49 154.7C2043.21 154.7 2036.58 152.433 2031.6 147.9C2026.72 143.253 2024.29 136.85 2024.29 128.69C2024.29 118.83 2028.42 110.953 2036.7 105.06C2045.08 99.0533 2057.1 96.05 2072.74 96.05H2080.05V95.54C2080.05 89.5333 2078.86 85.34 2076.48 82.96C2074.1 80.58 2069.85 79.39 2063.73 79.39C2052.62 79.39 2042.14 81.94 2032.28 87.04L2029.05 70.55C2039.81 65.45 2051.54 62.9 2064.24 62.9ZM2045.03 126.99C2045.03 130.617 2046.1 133.45 2048.26 135.49C2050.41 137.53 2053.36 138.55 2057.1 138.55C2063.56 138.55 2069 136.453 2073.42 132.26C2077.84 128.067 2080.05 122.797 2080.05 116.45V110.67H2072.74C2063.78 110.67 2056.93 112.2 2052.17 115.26C2047.41 118.207 2045.03 122.117 2045.03 126.99Z" fill="black"/>
<rect x="726" y="241" width="888" height="197" rx="98.5" fill="#FD8003"/>
<path d="M782.056 325.504C788.115 319.275 796.477 316.16 807.144 316.16C817.811 316.16 826.131 319.275 832.104 325.504C838.163 331.648 841.192 340.053 841.192 350.72C841.192 361.387 838.163 369.835 832.104 376.064C826.131 382.208 817.811 385.28 807.144 385.28C796.477 385.28 788.115 382.208 782.056 376.064C775.997 369.835 772.968 361.387 772.968 350.72C772.968 340.053 775.997 331.648 782.056 325.504ZM807.144 370.304C816.36 370.304 820.968 363.776 820.968 350.72C820.968 337.664 816.36 331.136 807.144 331.136C797.843 331.136 793.192 337.664 793.192 350.72C793.192 363.776 797.843 370.304 807.144 370.304ZM912.837 333.056H891.973V384H870.597V333.056H849.733V317.44H912.837V333.056ZM1027.78 308.096H990.53L989.634 325.504H989.89C993.815 323.797 997.911 322.944 1002.18 322.944C1011.74 322.944 1019.12 325.504 1024.32 330.624C1029.53 335.744 1032.13 342.955 1032.13 352.256C1032.13 374.272 1019.03 385.28 992.834 385.28C983.277 385.28 974.317 383.488 965.954 379.904L970.434 362.624C978.882 366.208 986.05 368 991.938 368C1004.48 368 1010.75 362.752 1010.75 352.256C1010.75 343.723 1006.49 339.456 997.954 339.456C994.199 339.456 990.487 341.077 986.818 344.32H968.258L970.818 290.56H1027.78V308.096ZM1054.07 300.544C1060.21 293.035 1069.56 289.28 1082.1 289.28C1094.64 289.28 1103.95 293.035 1110 300.544C1116.15 308.053 1119.22 320.299 1119.22 337.28C1119.22 354.261 1116.15 366.507 1110 374.016C1103.95 381.525 1094.64 385.28 1082.1 385.28C1069.56 385.28 1060.21 381.525 1054.07 374.016C1048.01 366.507 1044.98 354.261 1044.98 337.28C1044.98 320.299 1048.01 308.053 1054.07 300.544ZM1070.71 361.728C1073.18 366.421 1076.98 368.768 1082.1 368.768C1087.22 368.768 1090.97 366.421 1093.36 361.728C1095.84 357.035 1097.08 348.885 1097.08 337.28C1097.08 325.675 1095.84 317.525 1093.36 312.832C1090.97 308.139 1087.22 305.792 1082.1 305.792C1076.98 305.792 1073.18 308.139 1070.71 312.832C1068.32 317.525 1067.12 325.675 1067.12 337.28C1067.12 348.885 1068.32 357.035 1070.71 361.728ZM1137.32 300.544C1143.46 293.035 1152.81 289.28 1165.35 289.28C1177.89 289.28 1187.2 293.035 1193.25 300.544C1199.4 308.053 1202.47 320.299 1202.47 337.28C1202.47 354.261 1199.4 366.507 1193.25 374.016C1187.2 381.525 1177.89 385.28 1165.35 385.28C1152.81 385.28 1143.46 381.525 1137.32 374.016C1131.26 366.507 1128.23 354.261 1128.23 337.28C1128.23 320.299 1131.26 308.053 1137.32 300.544ZM1153.96 361.728C1156.43 366.421 1160.23 368.768 1165.35 368.768C1170.47 368.768 1174.22 366.421 1176.61 361.728C1179.09 357.035 1180.33 348.885 1180.33 337.28C1180.33 325.675 1179.09 317.525 1176.61 312.832C1174.22 308.139 1170.47 305.792 1165.35 305.792C1160.23 305.792 1156.43 308.139 1153.96 312.832C1151.57 317.525 1150.37 325.675 1150.37 337.28C1150.37 348.885 1151.57 357.035 1153.96 361.728ZM1341.54 350.72C1341.54 344.491 1340.39 339.797 1338.08 336.64C1335.78 333.483 1332.58 331.904 1328.48 331.904C1324.56 331.904 1321.4 333.525 1319.01 336.768C1316.62 339.925 1315.43 344.363 1315.43 350.08V351.36C1315.43 357.163 1316.62 361.643 1319.01 364.8C1321.4 367.957 1324.56 369.536 1328.48 369.536C1332.32 369.536 1335.44 367.915 1337.83 364.672C1340.3 361.344 1341.54 356.693 1341.54 350.72ZM1361.12 350.72C1361.12 361.557 1358.65 370.048 1353.7 376.192C1348.75 382.251 1342.39 385.28 1334.63 385.28C1326.86 385.28 1320.55 382.208 1315.68 376.064H1315.43V412.16H1294.95V317.44H1313.89L1314.4 326.656H1314.66C1320.04 319.659 1326.69 316.16 1334.63 316.16C1342.73 316.16 1349.18 319.147 1353.96 325.12C1358.73 331.093 1361.12 339.627 1361.12 350.72ZM1373.81 413.44L1372.28 397.824C1379.53 397.824 1384.78 396.843 1388.02 394.88C1391.35 392.917 1393.87 389.291 1395.57 384L1369.72 317.44H1392.37L1404.92 364.416H1405.17L1418.87 317.44H1440.5L1415.54 384.896C1411.62 395.477 1406.54 402.859 1400.31 407.04C1394.08 411.307 1385.25 413.44 1373.81 413.44ZM1485.86 385.28C1474.94 385.28 1466.49 382.165 1460.52 375.936C1454.63 369.707 1451.68 360.747 1451.68 349.056V324.736C1451.68 312.619 1455.05 303.701 1461.8 297.984C1468.62 292.181 1479.42 289.28 1494.18 289.28C1501.01 289.28 1507.45 288.853 1513.51 288V302.976C1507.28 303.829 1501.09 304.256 1494.95 304.256C1485.9 304.256 1479.76 305.664 1476.52 308.48C1473.36 311.296 1471.78 316.629 1471.78 324.48V328.064H1471.91C1476.77 321.835 1483.34 318.72 1491.62 318.72C1499.13 318.72 1505.36 321.707 1510.31 327.68C1515.34 333.653 1517.86 341.76 1517.86 352C1517.86 362.496 1515.04 370.688 1509.41 376.576C1503.78 382.379 1495.93 385.28 1485.86 385.28ZM1498.28 352C1498.28 346.368 1497.08 341.973 1494.69 338.816C1492.3 335.659 1489.19 334.08 1485.35 334.08C1481.34 334.08 1478.14 335.573 1475.75 338.56C1473.36 341.547 1472.16 345.813 1472.16 351.36V352.64C1472.16 358.016 1473.36 362.24 1475.75 365.312C1478.14 368.384 1481.29 369.92 1485.22 369.92C1489.4 369.92 1492.6 368.427 1494.82 365.44C1497.12 362.368 1498.28 357.888 1498.28 352ZM1535.38 384V359.68H1559.7V384H1535.38Z" fill="white"/>
<path d="M76.28 583.624L96.92 563.08H109.016L84.248 586.984L109.88 613H97.784L76.28 590.44H76.088V613H65.912V563.08H76.088V583.624H76.28ZM130.354 570.28C134.066 564.84 139.218 562.12 145.81 562.12C152.146 562.12 157.074 564.328 160.594 568.744C164.178 573.096 165.97 579.528 165.97 588.04C165.97 596.424 164.114 602.856 160.402 607.336C156.754 611.752 151.89 613.96 145.81 613.96C139.41 613.96 134.354 611.56 130.642 606.76H130.45V634.12H120.85V563.08H129.97L130.162 570.28H130.354ZM156.562 588.04C156.562 581.96 155.41 577.416 153.106 574.408C150.802 571.336 147.57 569.8 143.41 569.8C139.634 569.8 136.53 571.4 134.098 574.6C131.666 577.736 130.45 582.056 130.45 587.56V588.52C130.45 594.088 131.666 598.44 134.098 601.576C136.53 604.712 139.634 606.28 143.41 606.28C147.378 606.28 150.546 604.712 152.914 601.576C155.346 598.44 156.562 593.928 156.562 588.04ZM180.08 569.128C184.496 564.456 190.32 562.12 197.552 562.12C204.784 562.12 210.576 564.456 214.928 569.128C219.344 573.8 221.552 580.104 221.552 588.04C221.552 595.976 219.344 602.28 214.928 606.952C210.576 611.624 204.784 613.96 197.552 613.96C190.32 613.96 184.496 611.624 180.08 606.952C175.728 602.28 173.552 595.976 173.552 588.04C173.552 580.104 175.728 573.8 180.08 569.128ZM187.184 601.48C189.744 604.68 193.2 606.28 197.552 606.28C201.904 606.28 205.36 604.68 207.92 601.48C210.48 598.28 211.76 593.8 211.76 588.04C211.76 582.28 210.48 577.8 207.92 574.6C205.36 571.4 201.904 569.8 197.552 569.8C193.2 569.8 189.744 571.4 187.184 574.6C184.624 577.8 183.344 582.28 183.344 588.04C183.344 593.8 184.624 598.28 187.184 601.48ZM279.269 576.52L264.869 599.368H256.325L241.925 576.52H241.733V613H232.037V563.08H243.173L260.549 592.168H260.645L278.021 563.08H289.253V613H279.365V576.52H279.269ZM309.532 584.392H336.508C336.444 579.656 335.228 576.008 332.86 573.448C330.556 570.888 327.356 569.608 323.26 569.608C319.164 569.608 315.868 570.92 313.372 573.544C310.94 576.104 309.66 579.72 309.532 584.392ZM309.532 591.88C309.724 596.36 311.26 599.912 314.14 602.536C317.084 605.16 320.764 606.472 325.18 606.472C329.98 606.472 334.78 605.256 339.58 602.824L341.98 610.12C336.412 612.68 330.492 613.96 324.22 613.96C317.052 613.96 311.164 611.624 306.556 606.952C302.012 602.216 299.74 595.912 299.74 588.04C299.74 579.976 301.852 573.64 306.076 569.032C310.364 564.424 316.092 562.12 323.26 562.12C330.364 562.12 335.9 564.296 339.868 568.648C343.836 573 345.82 579.304 345.82 587.56C345.82 588.52 345.756 589.96 345.628 591.88H309.532ZM388.393 569.128C392.809 564.456 398.633 562.12 405.865 562.12C413.097 562.12 418.889 564.456 423.241 569.128C427.657 573.8 429.865 580.104 429.865 588.04C429.865 595.976 427.657 602.28 423.241 606.952C418.889 611.624 413.097 613.96 405.865 613.96C398.633 613.96 392.809 611.624 388.393 606.952C384.041 602.28 381.865 595.976 381.865 588.04C381.865 580.104 384.041 573.8 388.393 569.128ZM395.497 601.48C398.057 604.68 401.513 606.28 405.865 606.28C410.217 606.28 413.673 604.68 416.233 601.48C418.793 598.28 420.073 593.8 420.073 588.04C420.073 582.28 418.793 577.8 416.233 574.6C413.673 571.4 410.217 569.8 405.865 569.8C401.513 569.8 398.057 571.4 395.497 574.6C392.937 577.8 391.657 582.28 391.657 588.04C391.657 593.8 392.937 598.28 395.497 601.48ZM482.59 570.856H465.214V613H454.846V570.856H437.47V563.08H482.59V570.856ZM505.794 605.32H528.546V570.76H511.266C511.266 584.072 511.042 592.2 510.594 595.144C510.146 598.024 508.546 601.416 505.794 605.32ZM494.466 605.32C495.874 603.528 496.866 602.28 497.442 601.576C498.082 600.808 498.754 599.624 499.458 598.024C500.162 596.424 500.578 595.208 500.706 594.376C500.898 593.544 501.09 591.784 501.282 589.096C501.538 586.344 501.666 583.88 501.666 581.704C501.666 579.464 501.666 575.816 501.666 570.76V563.08H538.146V605.32H544.866V624.52H535.266V613H499.746V624.52H490.146V605.32H494.466ZM585.047 588.232H580.247C574.487 588.232 570.039 589.224 566.903 591.208C563.831 593.192 562.295 595.816 562.295 599.08C562.295 601.448 562.999 603.336 564.407 604.744C565.879 606.088 567.799 606.76 570.167 606.76C574.199 606.76 577.687 605.384 580.631 602.632C583.575 599.816 585.047 596.392 585.047 592.36V588.232ZM552.887 599.56C552.887 593.992 555.223 589.544 559.895 586.216C564.631 582.824 571.415 581.128 580.247 581.128H585.047V580.648C585.047 576.616 584.215 573.8 582.551 572.2C580.951 570.6 578.103 569.8 574.007 569.8C567.927 569.8 562.327 571.24 557.207 574.12L555.767 566.44C561.143 563.56 567.223 562.12 574.007 562.12C581.239 562.12 586.487 563.592 589.751 566.536C593.015 569.416 594.647 574.024 594.647 580.36V599.56C594.647 604.104 595.127 608.584 596.087 613H586.967C586.455 610.184 586.167 607.624 586.103 605.32H585.911C584.119 608.008 581.623 610.12 578.423 611.656C575.287 613.192 571.735 613.96 567.767 613.96C563.223 613.96 559.607 612.68 556.919 610.12C554.231 607.56 552.887 604.04 552.887 599.56ZM655.472 613H645.872V570.952H626V588.808C626 598.216 624.496 604.648 621.488 608.104C618.48 611.496 612.688 613.448 604.112 613.96L603.632 606.088C607.28 605.896 609.968 605.288 611.696 604.264C613.488 603.24 614.736 601.448 615.44 598.888C616.208 596.328 616.592 592.392 616.592 587.08V563.08H655.472V613ZM675.719 584.392H702.695C702.631 579.656 701.415 576.008 699.047 573.448C696.743 570.888 693.543 569.608 689.447 569.608C685.351 569.608 682.055 570.92 679.559 573.544C677.127 576.104 675.847 579.72 675.719 584.392ZM675.719 591.88C675.911 596.36 677.447 599.912 680.327 602.536C683.271 605.16 686.951 606.472 691.367 606.472C696.167 606.472 700.967 605.256 705.767 602.824L708.167 610.12C702.599 612.68 696.679 613.96 690.407 613.96C683.239 613.96 677.351 611.624 672.743 606.952C668.199 602.216 665.927 595.912 665.927 588.04C665.927 579.976 668.039 573.64 672.263 569.032C676.551 564.424 682.279 562.12 689.447 562.12C696.551 562.12 702.087 564.296 706.055 568.648C710.023 573 712.007 579.304 712.007 587.56C712.007 588.52 711.943 589.96 711.815 591.88H675.719ZM733.184 590.152V613H722.912V563.08H733.184V582.856H757.472V563.08H767.648V613H757.472V590.152H733.184ZM791.778 590.152V613H781.506V563.08H791.778V582.856H816.066V563.08H826.242V613H816.066V590.152H791.778ZM887.62 613V563.08H896.932V613H887.62ZM840.1 563.08H849.7V577.672C851.94 577.224 854.66 577 857.859 577C865.156 577 870.724 578.6 874.564 581.8C878.468 584.936 880.42 589.256 880.42 594.76C880.42 601.224 878.404 606.056 874.372 609.256C870.404 612.392 864.26 613.96 855.94 613.96C850.372 613.96 845.092 613.48 840.1 612.52V563.08ZM849.7 585.352V605.512C852.068 606.024 854.372 606.28 856.612 606.28C861.54 606.28 865.156 605.352 867.46 603.496C869.828 601.576 871.012 598.664 871.012 594.76C871.012 591.56 869.796 589.096 867.364 587.368C864.932 585.576 861.284 584.68 856.42 584.68C853.796 584.68 851.556 584.904 849.7 585.352ZM930.851 593.8H930.659L919.235 613H908.387L925.187 587.56L908.867 563.08H920.099L931.043 581.32H931.235L942.179 563.08H953.027L936.707 587.56L953.507 613H942.275L930.851 593.8ZM1002.98 570.28C1006.69 564.84 1011.84 562.12 1018.43 562.12C1024.77 562.12 1029.7 564.328 1033.22 568.744C1036.8 573.096 1038.59 579.528 1038.59 588.04C1038.59 596.424 1036.74 602.856 1033.03 607.336C1029.38 611.752 1024.51 613.96 1018.43 613.96C1012.03 613.96 1006.98 611.56 1003.27 606.76H1003.07V634.12H993.475V563.08H1002.59L1002.79 570.28H1002.98ZM1029.19 588.04C1029.19 581.96 1028.03 577.416 1025.73 574.408C1023.43 571.336 1020.19 569.8 1016.03 569.8C1012.26 569.8 1009.15 571.4 1006.72 574.6C1004.29 577.736 1003.07 582.056 1003.07 587.56V588.52C1003.07 594.088 1004.29 598.44 1006.72 601.576C1009.15 604.712 1012.26 606.28 1016.03 606.28C1020 606.28 1023.17 604.712 1025.54 601.576C1027.97 598.44 1029.19 593.928 1029.19 588.04ZM1079.3 588.232H1074.5C1068.74 588.232 1064.29 589.224 1061.15 591.208C1058.08 593.192 1056.55 595.816 1056.55 599.08C1056.55 601.448 1057.25 603.336 1058.66 604.744C1060.13 606.088 1062.05 606.76 1064.42 606.76C1068.45 606.76 1071.94 605.384 1074.88 602.632C1077.83 599.816 1079.3 596.392 1079.3 592.36V588.232ZM1047.14 599.56C1047.14 593.992 1049.47 589.544 1054.15 586.216C1058.88 582.824 1065.67 581.128 1074.5 581.128H1079.3V580.648C1079.3 576.616 1078.47 573.8 1076.8 572.2C1075.2 570.6 1072.35 569.8 1068.26 569.8C1062.18 569.8 1056.58 571.24 1051.46 574.12L1050.02 566.44C1055.39 563.56 1061.47 562.12 1068.26 562.12C1075.49 562.12 1080.74 563.592 1084 566.536C1087.27 569.416 1088.9 574.024 1088.9 580.36V599.56C1088.9 604.104 1089.38 608.584 1090.34 613H1081.22C1080.71 610.184 1080.42 607.624 1080.35 605.32H1080.16C1078.37 608.008 1075.87 610.12 1072.67 611.656C1069.54 613.192 1065.99 613.96 1062.02 613.96C1057.47 613.96 1053.86 612.68 1051.17 610.12C1048.48 607.56 1047.14 604.04 1047.14 599.56ZM1113.15 563.08V599.368H1113.34L1137.91 563.08H1148.28V613H1138.3V576.712H1138.11L1113.63 613H1103.16V563.08H1113.15ZM1107 541.48H1115.16C1115.29 543.784 1116.38 545.736 1118.43 547.336C1120.47 548.872 1122.91 549.64 1125.72 549.64C1128.54 549.64 1130.97 548.872 1133.02 547.336C1135.07 545.736 1136.15 543.784 1136.28 541.48H1144.44C1144.44 545.832 1142.68 549.48 1139.16 552.424C1135.64 555.368 1131.16 556.84 1125.72 556.84C1120.28 556.84 1115.8 555.368 1112.28 552.424C1108.76 549.48 1107 545.832 1107 541.48ZM1165.3 569.128C1169.71 564.456 1175.54 562.12 1182.77 562.12C1190 562.12 1195.79 564.456 1200.15 569.128C1204.56 573.8 1206.77 580.104 1206.77 588.04C1206.77 595.976 1204.56 602.28 1200.15 606.952C1195.79 611.624 1190 613.96 1182.77 613.96C1175.54 613.96 1169.71 611.624 1165.3 606.952C1160.95 602.28 1158.77 595.976 1158.77 588.04C1158.77 580.104 1160.95 573.8 1165.3 569.128ZM1172.4 601.48C1174.96 604.68 1178.42 606.28 1182.77 606.28C1187.12 606.28 1190.58 604.68 1193.14 601.48C1195.7 598.28 1196.98 593.8 1196.98 588.04C1196.98 582.28 1195.7 577.8 1193.14 574.6C1190.58 571.4 1187.12 569.8 1182.77 569.8C1178.42 569.8 1174.96 571.4 1172.4 574.6C1169.84 577.8 1168.56 582.28 1168.56 588.04C1168.56 593.8 1169.84 598.28 1172.4 601.48ZM1227.53 590.152V613H1217.26V563.08H1227.53V582.856H1251.82V563.08H1261.99V613H1251.82V590.152H1227.53ZM1279.02 569.128C1283.43 564.456 1289.26 562.12 1296.49 562.12C1303.72 562.12 1309.51 564.456 1313.87 569.128C1318.28 573.8 1320.49 580.104 1320.49 588.04C1320.49 595.976 1318.28 602.28 1313.87 606.952C1309.51 611.624 1303.72 613.96 1296.49 613.96C1289.26 613.96 1283.43 611.624 1279.02 606.952C1274.67 602.28 1272.49 595.976 1272.49 588.04C1272.49 580.104 1274.67 573.8 1279.02 569.128ZM1286.12 601.48C1288.68 604.68 1292.14 606.28 1296.49 606.28C1300.84 606.28 1304.3 604.68 1306.86 601.48C1309.42 598.28 1310.7 593.8 1310.7 588.04C1310.7 582.28 1309.42 577.8 1306.86 574.6C1304.3 571.4 1300.84 569.8 1296.49 569.8C1292.14 569.8 1288.68 571.4 1286.12 574.6C1283.56 577.8 1282.28 582.28 1282.28 588.04C1282.28 593.8 1283.56 598.28 1286.12 601.48ZM1340.96 606.568C1343.07 606.888 1345.12 607.048 1347.1 607.048C1356.25 607.048 1360.83 604.008 1360.83 597.928C1360.83 592.424 1356.06 589.672 1346.53 589.672H1340.96V606.568ZM1340.96 583.336H1346.33C1350.24 583.336 1353.25 582.696 1355.36 581.416C1357.53 580.072 1358.62 578.216 1358.62 575.848C1358.62 571.304 1354.65 569.032 1346.72 569.032C1344.93 569.032 1343.01 569.192 1340.96 569.512V583.336ZM1370.53 598.6C1370.53 608.648 1362.59 613.672 1346.72 613.672C1341.34 613.672 1336.09 613.32 1330.97 612.616V563.464C1335.77 562.76 1340.73 562.408 1345.85 562.408C1360.64 562.408 1368.03 566.504 1368.03 574.696C1368.03 577.576 1367.01 580.04 1364.96 582.088C1362.97 584.072 1360.19 585.384 1356.61 586.024V586.12C1361.02 586.76 1364.45 588.2 1366.88 590.44C1369.31 592.616 1370.53 595.336 1370.53 598.6Z" fill="black"/>
</g>
<rect x="3" y="3" width="2334" height="694" stroke="#FDFD3E" stroke-width="6"/>
<defs>
<clipPath id="clip0_926_106">
<rect width="2340" height="700" fill="white"/>
</clipPath>
</defs>
</svg>
