<svg width="691" height="87" viewBox="0 0 691 87" fill="none" xmlns="http://www.w3.org/2000/svg">
<path d="M470.76 77.2197H650.76" stroke="black"/>
<path d="M38.76 77.2197H218.76" stroke="black"/>
<path fill-rule="evenodd" clip-rule="evenodd" d="M79.94 22.46C80.08 20.6467 80.15 19.6667 80.15 19.52C80.15 15.6867 79.3333 12.3133 77.7 9.4C77.66 9.33333 77.6233 9.26667 77.59 9.2C76.6833 7.62 75.5933 6.23333 74.32 5.04C73.2067 4.00667 71.9533 3.12 70.56 2.38C70.1267 2.14667 69.6867 1.93334 69.24 1.74C66.6 0.580002 63.7067 0 60.56 0C57.4 0 54.4867 0.580002 51.82 1.74C51.3 1.96667 50.79 2.21333 50.29 2.48C48.7033 3.34 47.2933 4.37667 46.06 5.59C44.92 6.71 43.9267 7.98666 43.08 9.42C42.6333 10.18 42.2433 10.9633 41.91 11.77C40.95 14.11 40.47 16.6467 40.47 19.38C40.47 22.3467 41.0233 25.0633 42.13 27.53C42.4233 28.17 42.75 28.7933 43.11 29.4C43.6167 30.2333 44.1833 31.0167 44.81 31.75C46.39 33.5967 48.35 35.1133 50.69 36.3C53.9567 37.9533 57.7133 38.78 61.96 38.78C67.5333 38.78 72.0133 37.42 75.4 34.7C76.1533 34.0933 76.8533 33.42 77.5 32.68L71.69 26.39C70.3767 27.6433 68.9633 28.5667 67.45 29.16C65.9367 29.74 64.2 30.03 62.24 30.03C59.44 30.03 57.0933 29.3767 55.2 28.07C55.1667 28.0433 55.13 28.02 55.09 28C54.2033 27.3667 53.47 26.6333 52.89 25.8C52.21 24.8267 51.73 23.7133 51.45 22.46H79.94ZM265.3 22.46C265.44 20.6467 265.51 19.6667 265.51 19.52C265.51 15.6867 264.693 12.3133 263.06 9.4C263.02 9.33333 262.983 9.26667 262.95 9.2C262.043 7.62 260.953 6.23333 259.68 5.04C258.567 4.00667 257.313 3.12 255.92 2.38C255.487 2.14667 255.047 1.93334 254.6 1.74C251.96 0.580002 249.067 0 245.92 0C242.76 0 239.847 0.580002 237.18 1.74C236.66 1.96667 236.15 2.21333 235.65 2.48C234.063 3.34 232.653 4.37667 231.42 5.59C230.28 6.71 229.287 7.98666 228.44 9.42C227.993 10.18 227.603 10.9633 227.27 11.77C226.31 14.11 225.83 16.6467 225.83 19.38C225.83 22.3467 226.383 25.0633 227.49 27.53C227.783 28.17 228.11 28.7933 228.47 29.4C228.977 30.2333 229.543 31.0167 230.17 31.75C231.75 33.5967 233.71 35.1133 236.05 36.3C239.317 37.9533 243.073 38.78 247.32 38.78C252.893 38.78 257.373 37.42 260.76 34.7C261.513 34.0933 262.213 33.42 262.86 32.68L257.05 26.39C255.737 27.6433 254.323 28.5667 252.81 29.16C251.297 29.74 249.56 30.03 247.6 30.03C244.8 30.03 242.453 29.3767 240.56 28.07C240.527 28.0433 240.49 28.02 240.45 28C239.57 27.3667 238.837 26.6333 238.25 25.8C237.57 24.8267 237.09 23.7133 236.81 22.46H265.3ZM281.42 36.5C284.52 38.02 287.993 38.78 291.84 38.78C295.807 38.78 299.27 37.9433 302.23 36.27C304.01 35.25 305.503 34 306.71 32.52C307.503 31.5333 308.17 30.4467 308.71 29.26L300.23 24.63C299.163 26.55 297.82 27.9367 296.2 28.79C294.9 29.47 293.423 29.81 291.77 29.81C289.97 29.81 288.363 29.4367 286.95 28.69C286.13 28.2567 285.38 27.7 284.7 27.02C284.36 26.6867 284.053 26.33 283.78 25.95C282.52 24.2167 281.89 22.0267 281.89 19.38C281.89 16.76 282.513 14.5867 283.76 12.86C284.04 12.4733 284.353 12.1067 284.7 11.76C285.393 11.06 286.157 10.4933 286.99 10.06C288.39 9.32666 289.983 8.96 291.77 8.96C293.337 8.96 294.747 9.27333 296 9.9C297.693 10.74 299.103 12.1533 300.23 14.14L308.71 9.59C308.05 8.09 307.2 6.76 306.16 5.6C305.067 4.36667 303.757 3.32667 302.23 2.48C299.27 0.826666 295.807 0 291.84 0C287.993 0 284.52 0.760003 281.42 2.28C281.287 2.34667 281.153 2.41333 281.02 2.48C278.933 3.55333 277.147 4.90334 275.66 6.53C274.86 7.39667 274.147 8.34334 273.52 9.37C273.12 10.0233 272.767 10.6967 272.46 11.39C271.373 13.8167 270.83 16.48 270.83 19.38C270.83 22.2867 271.373 24.95 272.46 27.37C272.767 28.0633 273.12 28.74 273.52 29.4C274.133 30.4 274.83 31.33 275.61 32.19C277.11 33.8367 278.913 35.2067 281.02 36.3C281.153 36.3667 281.287 36.4333 281.42 36.5ZM403.65 36.55C406.683 38.0367 410.08 38.78 413.84 38.78C417.747 38.78 421.24 37.9833 424.32 36.39C424.373 36.3633 424.43 36.3333 424.49 36.3C426.423 35.2733 428.097 34.0033 429.51 32.49C430.383 31.55 431.157 30.52 431.83 29.4C432.217 28.7667 432.56 28.1167 432.86 27.45C433.953 25.0033 434.5 22.3133 434.5 19.38C434.5 16.4467 433.953 13.76 432.86 11.32C432.56 10.6467 432.217 9.99667 431.83 9.37C431.15 8.22334 430.363 7.17667 429.47 6.23C428.063 4.74333 426.403 3.49333 424.49 2.48C424.43 2.45333 424.373 2.42333 424.32 2.39C421.24 0.796666 417.747 0 413.84 0C410.08 0 406.683 0.743333 403.65 2.23C403.483 2.31 403.32 2.39333 403.16 2.48C401.22 3.5 399.543 4.76333 398.13 6.27C397.243 7.20333 396.457 8.23667 395.77 9.37C395.41 9.97667 395.083 10.6 394.79 11.24C393.683 13.7 393.13 16.4133 393.13 19.38C393.13 22.3467 393.683 25.0633 394.79 27.53C395.083 28.17 395.41 28.7933 395.77 29.4C396.443 30.5067 397.213 31.5233 398.08 32.45C399.507 33.9833 401.2 35.2667 403.16 36.3C403.32 36.3867 403.483 36.47 403.65 36.55ZM686.08 4.17C682.96 1.39 678.483 0 672.65 0C670.437 0 668.263 0.213333 666.13 0.639999C665.35 0.799999 664.573 0.986667 663.8 1.2C660.927 1.98667 658.46 3.10334 656.4 4.55L660.33 12.17C661.683 11.0967 663.33 10.2467 665.27 9.62C666.557 9.2 667.863 8.91667 669.19 8.77C669.85 8.70334 670.513 8.67 671.18 8.67C674.073 8.67 676.243 9.31333 677.69 10.6C677.99 10.8667 678.26 11.1567 678.5 11.47C679.407 12.67 679.86 14.2133 679.86 16.1H671.18C665.667 16.1 661.593 17.1033 658.96 19.11C657.827 19.97 656.94 20.97 656.3 22.11C655.44 23.6167 655.01 25.3667 655.01 27.36C655.01 28.9067 655.283 30.3333 655.83 31.64C656.07 32.2 656.357 32.74 656.69 33.26C656.797 33.4333 656.91 33.6 657.03 33.76C658.13 35.2467 659.633 36.43 661.54 37.31C663.673 38.29 666.187 38.78 669.08 38.78C673.553 38.78 676.897 37.66 679.11 35.42C679.663 34.86 680.147 34.23 680.56 33.53V38.22H690.78V16.73C690.78 11.7433 689.54 7.88 687.06 5.14C686.753 4.8 686.427 4.47667 686.08 4.17ZM33.97 22.19C32.87 20.5567 31.14 19.34 28.78 18.54C30.3867 17.82 31.6567 16.8433 32.59 15.61C32.6833 15.4833 32.7767 15.3567 32.87 15.23C33.11 14.87 33.32 14.4933 33.5 14.1C34.0333 12.9533 34.3 11.6833 34.3 10.29C34.3 8.82333 34 7.51333 33.4 6.36C32.7333 5.08667 31.7 4.00333 30.3 3.11C27.6467 1.40333 23.9667 0.550003 19.26 0.550003H0V38.22H20.1C25.18 38.22 29.0033 37.2833 31.57 35.41C32.6433 34.63 33.4933 33.7167 34.12 32.67C34.9933 31.21 35.43 29.4867 35.43 27.5C35.43 25.4067 34.9433 23.6367 33.97 22.19ZM124.33 38.22V0.550003H92.13L91.57 15.67C91.43 18.7033 91.22 21.1433 90.94 22.99C90.6533 24.8367 90.1 26.3567 89.28 27.55C88.9933 27.97 88.6533 28.3167 88.26 28.59C87.5467 29.0833 86.6667 29.33 85.62 29.33C85.2933 29.33 84.7533 29.2833 84 29.19L83.45 38.15C85.6367 38.7033 87.5233 38.98 89.11 38.98C91.3767 38.98 93.2633 38.4467 94.77 37.38C95.2567 37.04 95.7033 36.64 96.11 36.18C97.7967 34.3133 99.01 31.75 99.75 28.49C100.503 25.2233 100.973 21.1167 101.16 16.17L101.5 9.52H113.41V38.22H124.33ZM145.67 0.550003H134.82V38.22H144.91L163.17 15.81V38.22H174.03V0.550003H164.01L145.67 22.95V0.550003ZM218.41 38.22V0.550003H207.49V16.37C206.457 16.87 205.397 17.27 204.31 17.57C202.743 17.99 201.12 18.2 199.44 18.2C197.193 18.2 195.473 17.6867 194.28 16.66C194.233 16.62 194.187 16.58 194.14 16.54C193.047 15.4933 192.5 13.8767 192.5 11.69V0.550003H181.58V12.39C181.58 16.9433 182.72 20.38 185 22.7C185.147 22.8533 185.3 23 185.46 23.14C188.06 25.44 191.9 26.59 196.98 26.59C200.227 26.59 203.24 26.02 206.02 24.88C206.52 24.68 207.01 24.46 207.49 24.22V38.22H218.41ZM334.11 9.52H346.86V0.550003H310.53V9.52H323.26V38.22H334.11V9.52ZM386.63 22.19C385.53 20.5567 383.8 19.34 381.44 18.54C383.047 17.82 384.317 16.8433 385.25 15.61C385.343 15.4833 385.437 15.3567 385.53 15.23C385.77 14.87 385.98 14.4933 386.16 14.1C386.693 12.9533 386.96 11.6833 386.96 10.29C386.96 8.82333 386.66 7.51333 386.06 6.36C385.393 5.08667 384.36 4.00333 382.96 3.11C380.307 1.40333 376.627 0.550003 371.92 0.550003H352.66V38.22H372.76C377.84 38.22 381.663 37.2833 384.23 35.41C385.303 34.63 386.153 33.7167 386.78 32.67C387.653 31.21 388.09 29.4867 388.09 27.5C388.09 25.4067 387.603 23.6367 386.63 22.19ZM499.25 38.22V0.550003H461.79V38.22H472.64V9.52H488.33V38.22H499.25ZM520.59 0.550003H509.74V38.22H519.83L538.09 15.81V38.22H548.95V0.550003H538.93L520.59 22.95V0.550003ZM601.86 46.47V29.26H596.41V0.550003H585.49V29.26H570.29V0.550003H559.44V38.22H591.71V46.47H601.86ZM651.14 46.47V29.26H645.69V0.550003H634.77V29.26H619.57V0.550003H608.72V38.22H640.99V46.47H651.14ZM18.27 16.03H10.02V7.98H18.27C20.8567 7.98 22.57 8.58667 23.41 9.8C23.81 10.38 24.01 11.1033 24.01 11.97C24.01 12.87 23.7967 13.6233 23.37 14.23C22.5167 15.43 20.8167 16.03 18.27 16.03ZM370.93 16.03H362.68V7.98H370.93C373.517 7.98 375.23 8.58667 376.07 9.8C376.47 10.38 376.67 11.1033 376.67 11.97C376.67 12.87 376.457 13.6233 376.03 14.23C375.177 15.43 373.477 16.03 370.93 16.03ZM55.72 9.45C57.1333 8.65667 58.77 8.26 60.63 8.26C62.3367 8.26 63.86 8.61 65.2 9.31C65.76 9.61 66.2867 9.97 66.78 10.39C67.3333 10.8567 67.8133 11.37 68.22 11.93C69.0667 13.1033 69.6133 14.4933 69.86 16.1H51.32C51.5933 14.3267 52.2133 12.8267 53.18 11.6C53.54 11.1533 53.9433 10.74 54.39 10.36C54.81 10.0133 55.2533 9.71 55.72 9.45ZM241.08 9.45C242.493 8.65667 244.13 8.26 245.99 8.26C247.697 8.26 249.217 8.61 250.55 9.31C251.117 9.61 251.647 9.97 252.14 10.39C252.693 10.8567 253.173 11.37 253.58 11.93C254.427 13.1033 254.973 14.4933 255.22 16.1H236.68C236.953 14.3267 237.573 12.8267 238.54 11.6C238.9 11.1533 239.303 10.74 239.75 10.36C240.17 10.0133 240.613 9.71 241.08 9.45ZM418.47 28.73C417.117 29.45 415.573 29.81 413.84 29.81C412.153 29.81 410.643 29.4667 409.31 28.78C408.437 28.3267 407.64 27.73 406.92 26.99C406.593 26.65 406.297 26.29 406.03 25.91C404.797 24.17 404.18 21.9933 404.18 19.38C404.18 16.7933 404.787 14.6333 406 12.9C406.28 12.5133 406.587 12.1433 406.92 11.79C407.647 11.0367 408.457 10.43 409.35 9.97C410.67 9.29667 412.167 8.96 413.84 8.96C415.56 8.96 417.09 9.31334 418.43 10.02C419.277 10.4733 420.047 11.0633 420.74 11.79C421.047 12.1167 421.327 12.4567 421.58 12.81C422.82 14.5633 423.44 16.7533 423.44 19.38C423.44 22.04 422.813 24.2467 421.56 26C421.313 26.3467 421.04 26.6767 420.74 26.99C420.053 27.7033 419.297 28.2833 418.47 28.73ZM24.59 28.89C23.7167 30.1633 21.9167 30.8 19.19 30.8H10.02V22.46H19.4C21.4067 22.46 22.8767 22.8 23.81 23.48C24.03 23.64 24.2267 23.8233 24.4 24.03C24.94 24.6833 25.21 25.56 25.21 26.66C25.21 27.5467 25.0033 28.29 24.59 28.89ZM377.25 28.89C376.377 30.1633 374.577 30.8 371.85 30.8H362.68V22.46H372.06C374.067 22.46 375.537 22.8 376.47 23.48C376.69 23.64 376.887 23.8233 377.06 24.03C377.6 24.6833 377.87 25.56 377.87 26.66C377.87 27.5467 377.663 28.29 377.25 28.89ZM676.01 30.54C674.75 31.1333 673.35 31.43 671.81 31.43C669.897 31.43 668.387 31.02 667.28 30.2C666.767 29.8133 666.373 29.3633 666.1 28.85C665.793 28.27 665.64 27.61 665.64 26.87C665.64 25.9833 665.843 25.23 666.25 24.61C667.19 23.1767 669.227 22.46 672.36 22.46H679.86V26.32C679.473 27.3667 678.923 28.2567 678.21 28.99C677.79 29.43 677.31 29.81 676.77 30.13C676.523 30.2767 676.27 30.4133 676.01 30.54Z" fill="#FD8003"/>
<path fill-rule="evenodd" clip-rule="evenodd" d="M325.81 86.2199V82.9099H318.28L322.31 79.1199C323.457 78.0533 324.23 77.1033 324.63 76.2699C324.783 75.9499 324.907 75.6199 325 75.2799C325.153 74.7399 325.23 74.1766 325.23 73.5899C325.23 72.7566 325.06 72.0066 324.72 71.3399C324.633 71.1733 324.533 71.0099 324.42 70.8499C324.36 70.7633 324.297 70.6799 324.23 70.5999C323.703 69.9466 323.007 69.4333 322.14 69.0599C321.167 68.6333 320.03 68.4199 318.73 68.4199C317.183 68.4199 315.81 68.7066 314.61 69.2799C313.663 69.7333 312.877 70.3233 312.25 71.0499C312.083 71.2433 311.927 71.4466 311.78 71.6599L314.73 73.5599C315.03 73.1466 315.38 72.8066 315.78 72.5399C315.94 72.4333 316.107 72.3399 316.28 72.2599C316.9 71.9666 317.59 71.8199 318.35 71.8199C319.27 71.8199 319.967 72.0066 320.44 72.3799C320.593 72.4999 320.72 72.6333 320.82 72.7799C321.04 73.1066 321.15 73.5099 321.15 73.9899C321.15 74.4766 321.027 74.9666 320.78 75.4599C320.527 75.9466 320.043 76.5299 319.33 77.2099L312.58 83.5899V86.2199H325.81ZM331.93 85.9099C332.843 86.3099 333.843 86.5099 334.93 86.5099C336.017 86.5099 337.013 86.3099 337.92 85.9099C338.227 85.7766 338.52 85.6199 338.8 85.4399C338.98 85.3266 339.153 85.2066 339.32 85.0799C340.213 84.3933 340.927 83.4766 341.46 82.3299C342.107 80.9699 342.43 79.3466 342.43 77.4599C342.43 75.5799 342.107 73.9599 341.46 72.5999C340.927 71.4533 340.213 70.5366 339.32 69.8499C339.153 69.7233 338.98 69.6033 338.8 69.4899C338.52 69.3099 338.227 69.1533 337.92 69.0199C337.013 68.6199 336.017 68.4199 334.93 68.4199C333.843 68.4199 332.843 68.6199 331.93 69.0199C331.623 69.1533 331.33 69.3099 331.05 69.4899C330.89 69.5899 330.737 69.6966 330.59 69.8099C329.677 70.5033 328.943 71.4333 328.39 72.5999C327.75 73.9599 327.43 75.5799 327.43 77.4599C327.43 79.3466 327.75 80.9699 328.39 82.3299C328.943 83.4966 329.677 84.4266 330.59 85.1199C330.737 85.2333 330.89 85.3399 331.05 85.4399C331.33 85.6199 331.623 85.7766 331.93 85.9099ZM348.9 85.9099C349.813 86.3099 350.817 86.5099 351.91 86.5099C352.997 86.5099 353.993 86.3099 354.9 85.9099C355.2 85.7766 355.493 85.6199 355.78 85.4399C355.953 85.3266 356.123 85.2066 356.29 85.0799C357.183 84.3933 357.9 83.4766 358.44 82.3299C359.08 80.9699 359.4 79.3466 359.4 77.4599C359.4 75.5799 359.08 73.9599 358.44 72.5999C357.9 71.4533 357.183 70.5366 356.29 69.8499C356.123 69.7233 355.953 69.6033 355.78 69.4899C355.493 69.3099 355.2 69.1533 354.9 69.0199C353.993 68.6199 352.997 68.4199 351.91 68.4199C350.817 68.4199 349.813 68.6199 348.9 69.0199C348.6 69.1533 348.31 69.3099 348.03 69.4899C347.87 69.5899 347.713 69.6966 347.56 69.8099C346.647 70.5033 345.917 71.4333 345.37 72.5999C344.73 73.9599 344.41 75.5799 344.41 77.4599C344.41 79.3466 344.73 80.9699 345.37 82.3299C345.917 83.4966 346.647 84.4266 347.56 85.1199C347.713 85.2333 347.87 85.3399 348.03 85.4399C348.31 85.6199 348.6 85.7766 348.9 85.9099ZM374.55 82.5399H377.4V79.2399H374.55V75.9699H370.73V79.2399H366.03L373.68 68.7199H369.43L361.18 79.8099V82.5399H370.6V86.2199H374.55V82.5399ZM336.28 82.7899C335.88 82.9899 335.43 83.0899 334.93 83.0899C334.457 83.0899 334.027 82.9966 333.64 82.8099C333.173 82.5833 332.773 82.2199 332.44 81.7199C331.833 80.7999 331.53 79.3799 331.53 77.4599C331.53 75.5466 331.833 74.1333 332.44 73.2199C332.773 72.7133 333.173 72.3466 333.64 72.1199C334.027 71.9333 334.457 71.8399 334.93 71.8399C335.43 71.8399 335.88 71.9399 336.28 72.1399C336.733 72.3666 337.12 72.7266 337.44 73.2199C338.053 74.1333 338.36 75.5466 338.36 77.4599C338.36 79.3799 338.053 80.7999 337.44 81.7199C337.12 82.2066 336.733 82.5633 336.28 82.7899ZM353.25 82.7899C352.857 82.9899 352.41 83.0899 351.91 83.0899C351.43 83.0899 351 82.9966 350.62 82.8099C350.147 82.5833 349.743 82.2199 349.41 81.7199C348.803 80.7999 348.5 79.3799 348.5 77.4599C348.5 75.5466 348.803 74.1333 349.41 73.2199C349.743 72.7133 350.147 72.3466 350.62 72.1199C351 71.9333 351.43 71.8399 351.91 71.8399C352.41 71.8399 352.857 71.9399 353.25 72.1399C353.703 72.3666 354.093 72.7266 354.42 73.2199C355.027 74.1333 355.33 75.5466 355.33 77.4599C355.33 79.3799 355.027 80.7999 354.42 81.7199C354.093 82.2066 353.703 82.5633 353.25 82.7899Z" fill="black"/>
</svg>
