<svg width="1451" height="700" viewBox="0 0 1451 700" fill="none" xmlns="http://www.w3.org/2000/svg">
<g clip-path="url(#clip0_927_319)">
<rect width="1451" height="700" fill="white"/>
<path d="M4.36318 603.384L-5.23084 593.79L24.0038 564.555L33.5978 574.149L4.36318 603.384ZM58.8231 571.37C60.6333 556.647 61.5686 544.911 61.6289 536.162C61.6893 527.292 61.0255 520.655 59.6377 516.25C58.2499 511.845 55.9872 508.074 52.8495 504.936C46.1518 498.238 39.2127 498.48 32.0323 505.66C26.9637 510.729 23.283 518.573 20.9901 529.193L7.50415 522.404C8.46959 517.336 10.3703 512.237 13.2063 507.108C16.0422 501.859 19.4213 497.273 23.3433 493.351C30.4031 486.291 37.5534 482.58 44.7941 482.218C52.0349 481.735 58.6723 484.511 64.7063 490.545C70.3782 496.217 74.0288 503.488 75.6579 512.358C77.3474 521.168 77.3173 535.136 75.5674 554.264L75.7484 554.445L102.268 527.926L112.495 538.153L69.0507 581.598L58.8231 571.37ZM70.5576 462.247C69.4111 452.653 73.0918 443.602 81.5997 435.094C90.1077 426.587 99.1284 422.936 108.662 424.143C118.256 425.289 128.997 431.806 140.884 443.693C152.771 455.58 159.287 466.32 160.434 475.914C161.64 485.448 157.99 494.469 149.482 502.977C140.974 511.485 131.923 515.165 122.329 514.019C112.795 512.812 102.085 506.265 90.1982 494.378C78.3112 482.491 71.7644 471.781 70.5576 462.247ZM124.773 497.094C130.445 498.662 135.393 497.335 139.616 493.111C143.84 488.887 145.168 483.94 143.599 478.268C142.03 472.596 136.841 465.355 128.031 456.545C119.222 447.736 111.981 442.546 106.309 440.978C100.637 439.409 95.6891 440.736 91.4653 444.96C87.2415 449.184 85.914 454.132 87.4829 459.804C89.0517 465.476 94.2409 472.716 103.051 481.526C111.86 490.336 119.101 495.525 124.773 497.094ZM164.746 353.758L175.879 342.625L205.747 444.901L194.614 456.034L164.746 353.758ZM196.877 393.13C196.636 387.096 199.14 381.454 204.39 376.205C209.639 370.955 215.281 368.451 221.315 368.692C227.349 368.934 233.232 371.92 238.964 377.653C244.697 383.385 247.683 389.268 247.925 395.302C248.106 401.276 245.571 406.887 240.322 412.137C235.072 417.386 229.461 419.921 223.487 419.74C217.453 419.498 211.57 416.511 205.838 410.779C200.105 405.047 197.119 399.164 196.877 393.13ZM122.659 403.448C122.418 397.414 124.922 391.772 130.172 386.523C135.421 381.273 141.063 378.769 147.097 379.01C153.131 379.131 159.014 382.057 164.746 387.79C170.479 393.522 173.435 399.435 173.616 405.53C173.858 411.564 171.354 417.205 166.104 422.455C160.854 427.705 155.213 430.209 149.179 429.967C143.145 429.726 137.262 426.739 131.529 421.007C125.797 415.275 122.84 409.422 122.659 403.448ZM216.699 399.918C223.095 406.314 228.194 407.611 231.995 403.81C235.796 400.009 234.499 394.91 228.103 388.514C221.647 382.057 216.518 380.73 212.716 384.531C208.915 388.333 210.242 393.462 216.699 399.918ZM157.777 414.128C161.639 410.266 160.341 405.107 153.885 398.651C147.489 392.255 142.36 390.988 138.498 394.85C134.697 398.651 135.994 403.75 142.39 410.146C148.847 416.602 153.976 417.929 157.777 414.128Z" fill="black" fill-opacity="0.05"/>
<path d="M299.363 603.384L289.769 593.79L319.004 564.555L328.598 574.149L299.363 603.384ZM353.823 571.37C355.633 556.647 356.569 544.911 356.629 536.162C356.689 527.292 356.026 520.655 354.638 516.25C353.25 511.845 350.987 508.074 347.849 504.936C341.152 498.238 334.213 498.48 327.032 505.66C321.964 510.729 318.283 518.573 315.99 529.193L302.504 522.404C303.47 517.336 305.37 512.237 308.206 507.108C311.042 501.859 314.421 497.273 318.343 493.351C325.403 486.291 332.553 482.58 339.794 482.218C347.035 481.735 353.672 484.511 359.706 490.545C365.378 496.217 369.029 503.488 370.658 512.358C372.347 521.168 372.317 535.136 370.567 554.264L370.748 554.445L397.268 527.926L407.495 538.153L364.051 581.598L353.823 571.37ZM365.558 462.247C364.411 452.653 368.092 443.602 376.6 435.094C385.108 426.587 394.128 422.936 403.662 424.143C413.256 425.289 423.997 431.806 435.884 443.693C447.771 455.58 454.287 466.32 455.434 475.914C456.64 485.448 452.99 494.469 444.482 502.977C435.974 511.485 426.923 515.165 417.329 514.019C407.795 512.812 397.085 506.265 385.198 494.378C373.311 482.491 366.764 471.781 365.558 462.247ZM419.773 497.094C425.445 498.662 430.393 497.335 434.616 493.111C438.84 488.887 440.168 483.94 438.599 478.268C437.03 472.596 431.841 465.355 423.031 456.545C414.222 447.736 406.981 442.546 401.309 440.978C395.637 439.409 390.689 440.736 386.465 444.96C382.242 449.184 380.914 454.132 382.483 459.804C384.052 465.476 389.241 472.716 398.051 481.526C406.86 490.336 414.101 495.525 419.773 497.094ZM459.746 353.758L470.879 342.625L500.747 444.901L489.614 456.034L459.746 353.758ZM491.877 393.13C491.636 387.096 494.14 381.454 499.39 376.205C504.639 370.955 510.281 368.451 516.315 368.692C522.349 368.934 528.232 371.92 533.964 377.653C539.697 383.385 542.683 389.268 542.925 395.302C543.106 401.276 540.571 406.887 535.322 412.137C530.072 417.386 524.461 419.921 518.487 419.74C512.453 419.498 506.57 416.511 500.838 410.779C495.105 405.047 492.119 399.164 491.877 393.13ZM417.659 403.448C417.418 397.414 419.922 391.772 425.172 386.523C430.421 381.273 436.063 378.769 442.097 379.01C448.131 379.131 454.014 382.057 459.746 387.79C465.479 393.522 468.435 399.435 468.616 405.53C468.858 411.564 466.354 417.205 461.104 422.455C455.854 427.705 450.213 430.209 444.179 429.967C438.145 429.726 432.262 426.739 426.529 421.007C420.797 415.275 417.84 409.422 417.659 403.448ZM511.699 399.918C518.095 406.314 523.194 407.611 526.995 403.81C530.796 400.009 529.499 394.91 523.103 388.514C516.647 382.057 511.518 380.73 507.716 384.531C503.915 388.333 505.242 393.462 511.699 399.918ZM452.777 414.128C456.639 410.266 455.341 405.107 448.885 398.651C442.489 392.255 437.36 390.988 433.498 394.85C429.697 398.651 430.994 403.75 437.39 410.146C443.847 416.602 448.976 417.929 452.777 414.128Z" fill="black" fill-opacity="0.05"/>
<path d="M620.363 603.384L610.769 593.79L640.004 564.555L649.598 574.149L620.363 603.384ZM674.823 571.37C676.633 556.647 677.569 544.911 677.629 536.162C677.689 527.292 677.026 520.655 675.638 516.25C674.25 511.845 671.987 508.074 668.849 504.936C662.152 498.238 655.213 498.48 648.032 505.66C642.964 510.729 639.283 518.573 636.99 529.193L623.504 522.404C624.47 517.336 626.37 512.237 629.206 507.108C632.042 501.859 635.421 497.273 639.343 493.351C646.403 486.291 653.553 482.58 660.794 482.218C668.035 481.735 674.672 484.511 680.706 490.545C686.378 496.217 690.029 503.488 691.658 512.358C693.347 521.168 693.317 535.136 691.567 554.264L691.748 554.445L718.268 527.926L728.495 538.153L685.051 581.598L674.823 571.37ZM686.558 462.247C685.411 452.653 689.092 443.602 697.6 435.094C706.108 426.587 715.128 422.936 724.662 424.143C734.256 425.289 744.997 431.806 756.884 443.693C768.771 455.58 775.287 466.32 776.434 475.914C777.64 485.448 773.99 494.469 765.482 502.977C756.974 511.485 747.923 515.165 738.329 514.019C728.795 512.812 718.085 506.265 706.198 494.378C694.311 482.491 687.764 471.781 686.558 462.247ZM740.773 497.094C746.445 498.662 751.393 497.335 755.616 493.111C759.84 488.887 761.168 483.94 759.599 478.268C758.03 472.596 752.841 465.355 744.031 456.545C735.222 447.736 727.981 442.546 722.309 440.978C716.637 439.409 711.689 440.736 707.465 444.96C703.242 449.184 701.914 454.132 703.483 459.804C705.052 465.476 710.241 472.716 719.051 481.526C727.86 490.336 735.101 495.525 740.773 497.094ZM780.746 353.758L791.879 342.625L821.747 444.901L810.614 456.034L780.746 353.758ZM812.877 393.13C812.636 387.096 815.14 381.454 820.39 376.205C825.639 370.955 831.281 368.451 837.315 368.692C843.349 368.934 849.232 371.92 854.964 377.653C860.697 383.385 863.683 389.268 863.925 395.302C864.106 401.276 861.571 406.887 856.322 412.137C851.072 417.386 845.461 419.921 839.487 419.74C833.453 419.498 827.57 416.511 821.838 410.779C816.105 405.047 813.119 399.164 812.877 393.13ZM738.659 403.448C738.418 397.414 740.922 391.772 746.172 386.523C751.421 381.273 757.063 378.769 763.097 379.01C769.131 379.131 775.014 382.057 780.746 387.79C786.479 393.522 789.435 399.435 789.616 405.53C789.858 411.564 787.354 417.205 782.104 422.455C776.854 427.705 771.213 430.209 765.179 429.967C759.145 429.726 753.262 426.739 747.529 421.007C741.797 415.275 738.84 409.422 738.659 403.448ZM832.699 399.918C839.095 406.314 844.194 407.611 847.995 403.81C851.796 400.009 850.499 394.91 844.103 388.514C837.647 382.057 832.518 380.73 828.716 384.531C824.915 388.333 826.242 393.462 832.699 399.918ZM773.777 414.128C777.639 410.266 776.341 405.107 769.885 398.651C763.489 392.255 758.36 390.988 754.498 394.85C750.697 398.651 751.994 403.75 758.39 410.146C764.847 416.602 769.976 417.929 773.777 414.128Z" fill="black" fill-opacity="0.05"/>
<path d="M956.363 603.384L946.769 593.79L976.004 564.555L985.598 574.149L956.363 603.384ZM1010.82 571.37C1012.63 556.647 1013.57 544.911 1013.63 536.162C1013.69 527.292 1013.03 520.655 1011.64 516.25C1010.25 511.845 1007.99 508.074 1004.85 504.936C998.152 498.238 991.213 498.48 984.032 505.66C978.964 510.729 975.283 518.573 972.99 529.193L959.504 522.404C960.47 517.336 962.37 512.237 965.206 507.108C968.042 501.859 971.421 497.273 975.343 493.351C982.403 486.291 989.553 482.58 996.794 482.218C1004.03 481.735 1010.67 484.511 1016.71 490.545C1022.38 496.217 1026.03 503.488 1027.66 512.358C1029.35 521.168 1029.32 535.136 1027.57 554.264L1027.75 554.445L1054.27 527.926L1064.5 538.153L1021.05 581.598L1010.82 571.37ZM1022.56 462.247C1021.41 452.653 1025.09 443.602 1033.6 435.094C1042.11 426.587 1051.13 422.936 1060.66 424.143C1070.26 425.289 1081 431.806 1092.88 443.693C1104.77 455.58 1111.29 466.32 1112.43 475.914C1113.64 485.448 1109.99 494.469 1101.48 502.977C1092.97 511.485 1083.92 515.165 1074.33 514.019C1064.8 512.812 1054.09 506.265 1042.2 494.378C1030.31 482.491 1023.76 471.781 1022.56 462.247ZM1076.77 497.094C1082.44 498.662 1087.39 497.335 1091.62 493.111C1095.84 488.887 1097.17 483.94 1095.6 478.268C1094.03 472.596 1088.84 465.355 1080.03 456.545C1071.22 447.736 1063.98 442.546 1058.31 440.978C1052.64 439.409 1047.69 440.736 1043.47 444.96C1039.24 449.184 1037.91 454.132 1039.48 459.804C1041.05 465.476 1046.24 472.716 1055.05 481.526C1063.86 490.336 1071.1 495.525 1076.77 497.094ZM1116.75 353.758L1127.88 342.625L1157.75 444.901L1146.61 456.034L1116.75 353.758ZM1148.88 393.13C1148.64 387.096 1151.14 381.454 1156.39 376.205C1161.64 370.955 1167.28 368.451 1173.31 368.692C1179.35 368.934 1185.23 371.92 1190.96 377.653C1196.7 383.385 1199.68 389.268 1199.92 395.302C1200.11 401.276 1197.57 406.887 1192.32 412.137C1187.07 417.386 1181.46 419.921 1175.49 419.74C1169.45 419.498 1163.57 416.511 1157.84 410.779C1152.11 405.047 1149.12 399.164 1148.88 393.13ZM1074.66 403.448C1074.42 397.414 1076.92 391.772 1082.17 386.523C1087.42 381.273 1093.06 378.769 1099.1 379.01C1105.13 379.131 1111.01 382.057 1116.75 387.79C1122.48 393.522 1125.44 399.435 1125.62 405.53C1125.86 411.564 1123.35 417.205 1118.1 422.455C1112.85 427.705 1107.21 430.209 1101.18 429.967C1095.14 429.726 1089.26 426.739 1083.53 421.007C1077.8 415.275 1074.84 409.422 1074.66 403.448ZM1168.7 399.918C1175.09 406.314 1180.19 407.611 1183.99 403.81C1187.8 400.009 1186.5 394.91 1180.1 388.514C1173.65 382.057 1168.52 380.73 1164.72 384.531C1160.92 388.333 1162.24 393.462 1168.7 399.918ZM1109.78 414.128C1113.64 410.266 1112.34 405.107 1105.89 398.651C1099.49 392.255 1094.36 390.988 1090.5 394.85C1086.7 398.651 1087.99 403.75 1094.39 410.146C1100.85 416.602 1105.98 417.929 1109.78 414.128Z" fill="black" fill-opacity="0.05"/>
<path d="M1247.36 594.384L1237.77 584.79L1267 555.555L1276.6 565.149L1247.36 594.384ZM1301.82 562.37C1303.63 547.647 1304.57 535.911 1304.63 527.162C1304.69 518.292 1304.03 511.655 1302.64 507.25C1301.25 502.845 1298.99 499.074 1295.85 495.936C1289.15 489.238 1282.21 489.48 1275.03 496.66C1269.96 501.729 1266.28 509.573 1263.99 520.193L1250.5 513.404C1251.47 508.336 1253.37 503.237 1256.21 498.108C1259.04 492.859 1262.42 488.273 1266.34 484.351C1273.4 477.291 1280.55 473.58 1287.79 473.218C1295.03 472.735 1301.67 475.511 1307.71 481.545C1313.38 487.217 1317.03 494.488 1318.66 503.358C1320.35 512.168 1320.32 526.136 1318.57 545.264L1318.75 545.445L1345.27 518.926L1355.5 529.153L1312.05 572.598L1301.82 562.37ZM1313.56 453.247C1312.41 443.653 1316.09 434.602 1324.6 426.094C1333.11 417.587 1342.13 413.936 1351.66 415.143C1361.26 416.289 1372 422.806 1383.88 434.693C1395.77 446.58 1402.29 457.32 1403.43 466.914C1404.64 476.448 1400.99 485.469 1392.48 493.977C1383.97 502.485 1374.92 506.165 1365.33 505.019C1355.8 503.812 1345.09 497.265 1333.2 485.378C1321.31 473.491 1314.76 462.781 1313.56 453.247ZM1367.77 488.094C1373.44 489.662 1378.39 488.335 1382.62 484.111C1386.84 479.887 1388.17 474.94 1386.6 469.268C1385.03 463.596 1379.84 456.355 1371.03 447.545C1362.22 438.736 1354.98 433.546 1349.31 431.978C1343.64 430.409 1338.69 431.736 1334.47 435.96C1330.24 440.184 1328.91 445.132 1330.48 450.804C1332.05 456.476 1337.24 463.716 1346.05 472.526C1354.86 481.336 1362.1 486.525 1367.77 488.094ZM1407.75 344.758L1418.88 333.625L1448.75 435.901L1437.61 447.034L1407.75 344.758ZM1439.88 384.13C1439.64 378.096 1442.14 372.454 1447.39 367.205C1452.64 361.955 1458.28 359.451 1464.31 359.692C1470.35 359.934 1476.23 362.92 1481.96 368.653C1487.7 374.385 1490.68 380.268 1490.92 386.302C1491.11 392.276 1488.57 397.887 1483.32 403.137C1478.07 408.386 1472.46 410.921 1466.49 410.74C1460.45 410.498 1454.57 407.511 1448.84 401.779C1443.11 396.047 1440.12 390.164 1439.88 384.13ZM1365.66 394.448C1365.42 388.414 1367.92 382.772 1373.17 377.523C1378.42 372.273 1384.06 369.769 1390.1 370.01C1396.13 370.131 1402.01 373.057 1407.75 378.79C1413.48 384.522 1416.44 390.435 1416.62 396.53C1416.86 402.564 1414.35 408.205 1409.1 413.455C1403.85 418.705 1398.21 421.209 1392.18 420.967C1386.14 420.726 1380.26 417.739 1374.53 412.007C1368.8 406.275 1365.84 400.422 1365.66 394.448ZM1459.7 390.918C1466.09 397.314 1471.19 398.611 1474.99 394.81C1478.8 391.009 1477.5 385.91 1471.1 379.514C1464.65 373.057 1459.52 371.73 1455.72 375.531C1451.92 379.333 1453.24 384.462 1459.7 390.918ZM1400.78 405.128C1404.64 401.266 1403.34 396.107 1396.89 389.651C1390.49 383.255 1385.36 381.988 1381.5 385.85C1377.7 389.651 1378.99 394.75 1385.39 401.146C1391.85 407.602 1396.98 408.929 1400.78 405.128Z" fill="black" fill-opacity="0.05"/>
<path d="M14.3632 778.384L4.76916 768.79L34.0038 739.555L43.5978 749.149L14.3632 778.384ZM68.8231 746.37C70.6333 731.647 71.5686 719.911 71.6289 711.162C71.6893 702.292 71.0255 695.655 69.6377 691.25C68.2499 686.845 65.9872 683.074 62.8495 679.936C56.1518 673.238 49.2127 673.48 42.0323 680.66C36.9637 685.729 33.283 693.573 30.9901 704.193L17.5041 697.404C18.4696 692.336 20.3703 687.237 23.2063 682.108C26.0422 676.859 29.4213 672.273 33.3433 668.351C40.4031 661.291 47.5534 657.58 54.7941 657.218C62.0349 656.735 68.6723 659.511 74.7063 665.545C80.3782 671.217 84.0288 678.488 85.6579 687.358C87.3474 696.168 87.3173 710.136 85.5674 729.264L85.7484 729.445L112.268 702.926L122.495 713.153L79.0507 756.598L68.8231 746.37ZM80.5576 637.247C79.4111 627.653 83.0918 618.602 91.5997 610.094C100.108 601.587 109.128 597.936 118.662 599.143C128.256 600.289 138.997 606.806 150.884 618.693C162.771 630.58 169.287 641.32 170.434 650.914C171.64 660.448 167.99 669.469 159.482 677.977C150.974 686.485 141.923 690.165 132.329 689.019C122.795 687.812 112.085 681.265 100.198 669.378C88.3112 657.491 81.7644 646.781 80.5576 637.247ZM134.773 672.094C140.445 673.662 145.393 672.335 149.616 668.111C153.84 663.887 155.168 658.94 153.599 653.268C152.03 647.596 146.841 640.355 138.031 631.545C129.222 622.736 121.981 617.546 116.309 615.978C110.637 614.409 105.689 615.736 101.465 619.96C97.2415 624.184 95.914 629.132 97.4829 634.804C99.0517 640.476 104.241 647.716 113.051 656.526C121.86 665.336 129.101 670.525 134.773 672.094ZM174.746 528.758L185.879 517.625L215.747 619.901L204.614 631.034L174.746 528.758ZM206.877 568.13C206.636 562.096 209.14 556.454 214.39 551.205C219.639 545.955 225.281 543.451 231.315 543.692C237.349 543.934 243.232 546.92 248.964 552.653C254.697 558.385 257.683 564.268 257.925 570.302C258.106 576.276 255.571 581.887 250.322 587.137C245.072 592.386 239.461 594.921 233.487 594.74C227.453 594.498 221.57 591.511 215.838 585.779C210.105 580.047 207.119 574.164 206.877 568.13ZM132.659 578.448C132.418 572.414 134.922 566.772 140.172 561.523C145.421 556.273 151.063 553.769 157.097 554.01C163.131 554.131 169.014 557.057 174.746 562.79C180.479 568.522 183.435 574.435 183.616 580.53C183.858 586.564 181.354 592.205 176.104 597.455C170.854 602.705 165.213 605.209 159.179 604.967C153.145 604.726 147.262 601.739 141.529 596.007C135.797 590.275 132.84 584.422 132.659 578.448ZM226.699 574.918C233.095 581.314 238.194 582.611 241.995 578.81C245.796 575.009 244.499 569.91 238.103 563.514C231.647 557.057 226.518 555.73 222.716 559.531C218.915 563.333 220.242 568.462 226.699 574.918ZM167.777 589.128C171.639 585.266 170.341 580.107 163.885 573.651C157.489 567.255 152.36 565.988 148.498 569.85C144.697 573.651 145.994 578.75 152.39 585.146C158.847 591.602 163.976 592.929 167.777 589.128Z" fill="black" fill-opacity="0.05"/>
<path d="M309.363 778.384L299.769 768.79L329.004 739.555L338.598 749.149L309.363 778.384ZM363.823 746.37C365.633 731.647 366.569 719.911 366.629 711.162C366.689 702.292 366.026 695.655 364.638 691.25C363.25 686.845 360.987 683.074 357.849 679.936C351.152 673.238 344.213 673.48 337.032 680.66C331.964 685.729 328.283 693.573 325.99 704.193L312.504 697.404C313.47 692.336 315.37 687.237 318.206 682.108C321.042 676.859 324.421 672.273 328.343 668.351C335.403 661.291 342.553 657.58 349.794 657.218C357.035 656.735 363.672 659.511 369.706 665.545C375.378 671.217 379.029 678.488 380.658 687.358C382.347 696.168 382.317 710.136 380.567 729.264L380.748 729.445L407.268 702.926L417.495 713.153L374.051 756.598L363.823 746.37ZM375.558 637.247C374.411 627.653 378.092 618.602 386.6 610.094C395.108 601.587 404.128 597.936 413.662 599.143C423.256 600.289 433.997 606.806 445.884 618.693C457.771 630.58 464.287 641.32 465.434 650.914C466.64 660.448 462.99 669.469 454.482 677.977C445.974 686.485 436.923 690.165 427.329 689.019C417.795 687.812 407.085 681.265 395.198 669.378C383.311 657.491 376.764 646.781 375.558 637.247ZM429.773 672.094C435.445 673.662 440.393 672.335 444.616 668.111C448.84 663.887 450.168 658.94 448.599 653.268C447.03 647.596 441.841 640.355 433.031 631.545C424.222 622.736 416.981 617.546 411.309 615.978C405.637 614.409 400.689 615.736 396.465 619.96C392.242 624.184 390.914 629.132 392.483 634.804C394.052 640.476 399.241 647.716 408.051 656.526C416.86 665.336 424.101 670.525 429.773 672.094ZM469.746 528.758L480.879 517.625L510.747 619.901L499.614 631.034L469.746 528.758ZM501.877 568.13C501.636 562.096 504.14 556.454 509.39 551.205C514.639 545.955 520.281 543.451 526.315 543.692C532.349 543.934 538.232 546.92 543.964 552.653C549.697 558.385 552.683 564.268 552.925 570.302C553.106 576.276 550.571 581.887 545.322 587.137C540.072 592.386 534.461 594.921 528.487 594.74C522.453 594.498 516.57 591.511 510.838 585.779C505.105 580.047 502.119 574.164 501.877 568.13ZM427.659 578.448C427.418 572.414 429.922 566.772 435.172 561.523C440.421 556.273 446.063 553.769 452.097 554.01C458.131 554.131 464.014 557.057 469.746 562.79C475.479 568.522 478.435 574.435 478.616 580.53C478.858 586.564 476.354 592.205 471.104 597.455C465.854 602.705 460.213 605.209 454.179 604.967C448.145 604.726 442.262 601.739 436.529 596.007C430.797 590.275 427.84 584.422 427.659 578.448ZM521.699 574.918C528.095 581.314 533.194 582.611 536.995 578.81C540.796 575.009 539.499 569.91 533.103 563.514C526.647 557.057 521.518 555.73 517.716 559.531C513.915 563.333 515.242 568.462 521.699 574.918ZM462.777 589.128C466.639 585.266 465.341 580.107 458.885 573.651C452.489 567.255 447.36 565.988 443.498 569.85C439.697 573.651 440.994 578.75 447.39 585.146C453.847 591.602 458.976 592.929 462.777 589.128Z" fill="black" fill-opacity="0.05"/>
<path d="M630.363 778.384L620.769 768.79L650.004 739.555L659.598 749.149L630.363 778.384ZM684.823 746.37C686.633 731.647 687.569 719.911 687.629 711.162C687.689 702.292 687.026 695.655 685.638 691.25C684.25 686.845 681.987 683.074 678.849 679.936C672.152 673.238 665.213 673.48 658.032 680.66C652.964 685.729 649.283 693.573 646.99 704.193L633.504 697.404C634.47 692.336 636.37 687.237 639.206 682.108C642.042 676.859 645.421 672.273 649.343 668.351C656.403 661.291 663.553 657.58 670.794 657.218C678.035 656.735 684.672 659.511 690.706 665.545C696.378 671.217 700.029 678.488 701.658 687.358C703.347 696.168 703.317 710.136 701.567 729.264L701.748 729.445L728.268 702.926L738.495 713.153L695.051 756.598L684.823 746.37ZM696.558 637.247C695.411 627.653 699.092 618.602 707.6 610.094C716.108 601.587 725.128 597.936 734.662 599.143C744.256 600.289 754.997 606.806 766.884 618.693C778.771 630.58 785.287 641.32 786.434 650.914C787.64 660.448 783.99 669.469 775.482 677.977C766.974 686.485 757.923 690.165 748.329 689.019C738.795 687.812 728.085 681.265 716.198 669.378C704.311 657.491 697.764 646.781 696.558 637.247ZM750.773 672.094C756.445 673.662 761.393 672.335 765.616 668.111C769.84 663.887 771.168 658.94 769.599 653.268C768.03 647.596 762.841 640.355 754.031 631.545C745.222 622.736 737.981 617.546 732.309 615.978C726.637 614.409 721.689 615.736 717.465 619.96C713.242 624.184 711.914 629.132 713.483 634.804C715.052 640.476 720.241 647.716 729.051 656.526C737.86 665.336 745.101 670.525 750.773 672.094ZM790.746 528.758L801.879 517.625L831.747 619.901L820.614 631.034L790.746 528.758ZM822.877 568.13C822.636 562.096 825.14 556.454 830.39 551.205C835.639 545.955 841.281 543.451 847.315 543.692C853.349 543.934 859.232 546.92 864.964 552.653C870.697 558.385 873.683 564.268 873.925 570.302C874.106 576.276 871.571 581.887 866.322 587.137C861.072 592.386 855.461 594.921 849.487 594.74C843.453 594.498 837.57 591.511 831.838 585.779C826.105 580.047 823.119 574.164 822.877 568.13ZM748.659 578.448C748.418 572.414 750.922 566.772 756.172 561.523C761.421 556.273 767.063 553.769 773.097 554.01C779.131 554.131 785.014 557.057 790.746 562.79C796.479 568.522 799.435 574.435 799.616 580.53C799.858 586.564 797.354 592.205 792.104 597.455C786.854 602.705 781.213 605.209 775.179 604.967C769.145 604.726 763.262 601.739 757.529 596.007C751.797 590.275 748.84 584.422 748.659 578.448ZM842.699 574.918C849.095 581.314 854.194 582.611 857.995 578.81C861.796 575.009 860.499 569.91 854.103 563.514C847.647 557.057 842.518 555.73 838.716 559.531C834.915 563.333 836.242 568.462 842.699 574.918ZM783.777 589.128C787.639 585.266 786.341 580.107 779.885 573.651C773.489 567.255 768.36 565.988 764.498 569.85C760.697 573.651 761.994 578.75 768.39 585.146C774.847 591.602 779.976 592.929 783.777 589.128Z" fill="black" fill-opacity="0.05"/>
<path d="M966.363 778.384L956.769 768.79L986.004 739.555L995.598 749.149L966.363 778.384ZM1020.82 746.37C1022.63 731.647 1023.57 719.911 1023.63 711.162C1023.69 702.292 1023.03 695.655 1021.64 691.25C1020.25 686.845 1017.99 683.074 1014.85 679.936C1008.15 673.238 1001.21 673.48 994.032 680.66C988.964 685.729 985.283 693.573 982.99 704.193L969.504 697.404C970.47 692.336 972.37 687.237 975.206 682.108C978.042 676.859 981.421 672.273 985.343 668.351C992.403 661.291 999.553 657.58 1006.79 657.218C1014.03 656.735 1020.67 659.511 1026.71 665.545C1032.38 671.217 1036.03 678.488 1037.66 687.358C1039.35 696.168 1039.32 710.136 1037.57 729.264L1037.75 729.445L1064.27 702.926L1074.5 713.153L1031.05 756.598L1020.82 746.37ZM1032.56 637.247C1031.41 627.653 1035.09 618.602 1043.6 610.094C1052.11 601.587 1061.13 597.936 1070.66 599.143C1080.26 600.289 1091 606.806 1102.88 618.693C1114.77 630.58 1121.29 641.32 1122.43 650.914C1123.64 660.448 1119.99 669.469 1111.48 677.977C1102.97 686.485 1093.92 690.165 1084.33 689.019C1074.8 687.812 1064.09 681.265 1052.2 669.378C1040.31 657.491 1033.76 646.781 1032.56 637.247ZM1086.77 672.094C1092.44 673.662 1097.39 672.335 1101.62 668.111C1105.84 663.887 1107.17 658.94 1105.6 653.268C1104.03 647.596 1098.84 640.355 1090.03 631.545C1081.22 622.736 1073.98 617.546 1068.31 615.978C1062.64 614.409 1057.69 615.736 1053.47 619.96C1049.24 624.184 1047.91 629.132 1049.48 634.804C1051.05 640.476 1056.24 647.716 1065.05 656.526C1073.86 665.336 1081.1 670.525 1086.77 672.094ZM1126.75 528.758L1137.88 517.625L1167.75 619.901L1156.61 631.034L1126.75 528.758ZM1158.88 568.13C1158.64 562.096 1161.14 556.454 1166.39 551.205C1171.64 545.955 1177.28 543.451 1183.31 543.692C1189.35 543.934 1195.23 546.92 1200.96 552.653C1206.7 558.385 1209.68 564.268 1209.92 570.302C1210.11 576.276 1207.57 581.887 1202.32 587.137C1197.07 592.386 1191.46 594.921 1185.49 594.74C1179.45 594.498 1173.57 591.511 1167.84 585.779C1162.11 580.047 1159.12 574.164 1158.88 568.13ZM1084.66 578.448C1084.42 572.414 1086.92 566.772 1092.17 561.523C1097.42 556.273 1103.06 553.769 1109.1 554.01C1115.13 554.131 1121.01 557.057 1126.75 562.79C1132.48 568.522 1135.44 574.435 1135.62 580.53C1135.86 586.564 1133.35 592.205 1128.1 597.455C1122.85 602.705 1117.21 605.209 1111.18 604.967C1105.14 604.726 1099.26 601.739 1093.53 596.007C1087.8 590.275 1084.84 584.422 1084.66 578.448ZM1178.7 574.918C1185.09 581.314 1190.19 582.611 1193.99 578.81C1197.8 575.009 1196.5 569.91 1190.1 563.514C1183.65 557.057 1178.52 555.73 1174.72 559.531C1170.92 563.333 1172.24 568.462 1178.7 574.918ZM1119.78 589.128C1123.64 585.266 1122.34 580.107 1115.89 573.651C1109.49 567.255 1104.36 565.988 1100.5 569.85C1096.7 573.651 1097.99 578.75 1104.39 585.146C1110.85 591.602 1115.98 592.929 1119.78 589.128Z" fill="black" fill-opacity="0.05"/>
<path d="M1240.36 778.384L1230.77 768.79L1260 739.555L1269.6 749.149L1240.36 778.384ZM1294.82 746.37C1296.63 731.647 1297.57 719.911 1297.63 711.162C1297.69 702.292 1297.03 695.655 1295.64 691.25C1294.25 686.845 1291.99 683.074 1288.85 679.936C1282.15 673.238 1275.21 673.48 1268.03 680.66C1262.96 685.729 1259.28 693.573 1256.99 704.193L1243.5 697.404C1244.47 692.336 1246.37 687.237 1249.21 682.108C1252.04 676.859 1255.42 672.273 1259.34 668.351C1266.4 661.291 1273.55 657.58 1280.79 657.218C1288.03 656.735 1294.67 659.511 1300.71 665.545C1306.38 671.217 1310.03 678.488 1311.66 687.358C1313.35 696.168 1313.32 710.136 1311.57 729.264L1311.75 729.445L1338.27 702.926L1348.5 713.153L1305.05 756.598L1294.82 746.37ZM1306.56 637.247C1305.41 627.653 1309.09 618.602 1317.6 610.094C1326.11 601.587 1335.13 597.936 1344.66 599.143C1354.26 600.289 1365 606.806 1376.88 618.693C1388.77 630.58 1395.29 641.32 1396.43 650.914C1397.64 660.448 1393.99 669.469 1385.48 677.977C1376.97 686.485 1367.92 690.165 1358.33 689.019C1348.8 687.812 1338.09 681.265 1326.2 669.378C1314.31 657.491 1307.76 646.781 1306.56 637.247ZM1360.77 672.094C1366.44 673.662 1371.39 672.335 1375.62 668.111C1379.84 663.887 1381.17 658.94 1379.6 653.268C1378.03 647.596 1372.84 640.355 1364.03 631.545C1355.22 622.736 1347.98 617.546 1342.31 615.978C1336.64 614.409 1331.69 615.736 1327.47 619.96C1323.24 624.184 1321.91 629.132 1323.48 634.804C1325.05 640.476 1330.24 647.716 1339.05 656.526C1347.86 665.336 1355.1 670.525 1360.77 672.094ZM1400.75 528.758L1411.88 517.625L1441.75 619.901L1430.61 631.034L1400.75 528.758ZM1432.88 568.13C1432.64 562.096 1435.14 556.454 1440.39 551.205C1445.64 545.955 1451.28 543.451 1457.31 543.692C1463.35 543.934 1469.23 546.92 1474.96 552.653C1480.7 558.385 1483.68 564.268 1483.92 570.302C1484.11 576.276 1481.57 581.887 1476.32 587.137C1471.07 592.386 1465.46 594.921 1459.49 594.74C1453.45 594.498 1447.57 591.511 1441.84 585.779C1436.11 580.047 1433.12 574.164 1432.88 568.13ZM1358.66 578.448C1358.42 572.414 1360.92 566.772 1366.17 561.523C1371.42 556.273 1377.06 553.769 1383.1 554.01C1389.13 554.131 1395.01 557.057 1400.75 562.79C1406.48 568.522 1409.44 574.435 1409.62 580.53C1409.86 586.564 1407.35 592.205 1402.1 597.455C1396.85 602.705 1391.21 605.209 1385.18 604.967C1379.14 604.726 1373.26 601.739 1367.53 596.007C1361.8 590.275 1358.84 584.422 1358.66 578.448ZM1452.7 574.918C1459.09 581.314 1464.19 582.611 1467.99 578.81C1471.8 575.009 1470.5 569.91 1464.1 563.514C1457.65 557.057 1452.52 555.73 1448.72 559.531C1444.92 563.333 1446.24 568.462 1452.7 574.918ZM1393.78 589.128C1397.64 585.266 1396.34 580.107 1389.89 573.651C1383.49 567.255 1378.36 565.988 1374.5 569.85C1370.7 573.651 1371.99 578.75 1378.39 585.146C1384.85 591.602 1389.98 592.929 1393.78 589.128Z" fill="black" fill-opacity="0.05"/>
<path d="M4.36318 416.384L-5.23084 406.79L24.0038 377.555L33.5978 387.149L4.36318 416.384ZM58.8231 384.37C60.6333 369.647 61.5686 357.911 61.6289 349.162C61.6893 340.292 61.0255 333.655 59.6377 329.25C58.2499 324.845 55.9872 321.074 52.8495 317.936C46.1518 311.238 39.2127 311.48 32.0323 318.66C26.9637 323.729 23.283 331.573 20.9901 342.193L7.50415 335.404C8.46959 330.336 10.3703 325.237 13.2063 320.108C16.0422 314.859 19.4213 310.273 23.3433 306.351C30.4031 299.291 37.5534 295.58 44.7941 295.218C52.0349 294.735 58.6723 297.511 64.7063 303.545C70.3782 309.217 74.0288 316.488 75.6579 325.358C77.3474 334.168 77.3173 348.136 75.5674 367.264L75.7484 367.445L102.268 340.926L112.495 351.153L69.0507 394.598L58.8231 384.37ZM70.5576 275.247C69.4111 265.653 73.0918 256.602 81.5997 248.094C90.1077 239.587 99.1284 235.936 108.662 237.143C118.256 238.289 128.997 244.806 140.884 256.693C152.771 268.58 159.287 279.32 160.434 288.914C161.64 298.448 157.99 307.469 149.482 315.977C140.974 324.485 131.923 328.165 122.329 327.019C112.795 325.812 102.085 319.265 90.1982 307.378C78.3112 295.491 71.7644 284.781 70.5576 275.247ZM124.773 310.094C130.445 311.662 135.393 310.335 139.616 306.111C143.84 301.887 145.168 296.94 143.599 291.268C142.03 285.596 136.841 278.355 128.031 269.545C119.222 260.736 111.981 255.546 106.309 253.978C100.637 252.409 95.6891 253.736 91.4653 257.96C87.2415 262.184 85.914 267.132 87.4829 272.804C89.0517 278.476 94.2409 285.716 103.051 294.526C111.86 303.336 119.101 308.525 124.773 310.094ZM164.746 166.758L175.879 155.625L205.747 257.901L194.614 269.034L164.746 166.758ZM196.877 206.13C196.636 200.096 199.14 194.454 204.39 189.205C209.639 183.955 215.281 181.451 221.315 181.692C227.349 181.934 233.232 184.92 238.964 190.653C244.697 196.385 247.683 202.268 247.925 208.302C248.106 214.276 245.571 219.887 240.322 225.137C235.072 230.386 229.461 232.921 223.487 232.74C217.453 232.498 211.57 229.511 205.838 223.779C200.105 218.047 197.119 212.164 196.877 206.13ZM122.659 216.448C122.418 210.414 124.922 204.772 130.172 199.523C135.421 194.273 141.063 191.769 147.097 192.01C153.131 192.131 159.014 195.057 164.746 200.79C170.479 206.522 173.435 212.435 173.616 218.53C173.858 224.564 171.354 230.205 166.104 235.455C160.854 240.705 155.213 243.209 149.179 242.967C143.145 242.726 137.262 239.739 131.529 234.007C125.797 228.275 122.84 222.422 122.659 216.448ZM216.699 212.918C223.095 219.314 228.194 220.611 231.995 216.81C235.796 213.009 234.499 207.91 228.103 201.514C221.647 195.057 216.518 193.73 212.716 197.531C208.915 201.333 210.242 206.462 216.699 212.918ZM157.777 227.128C161.639 223.266 160.341 218.107 153.885 211.651C147.489 205.255 142.36 203.988 138.498 207.85C134.697 211.651 135.994 216.75 142.39 223.146C148.847 229.602 153.976 230.929 157.777 227.128Z" fill="black" fill-opacity="0.05"/>
<path d="M299.363 416.384L289.769 406.79L319.004 377.555L328.598 387.149L299.363 416.384ZM353.823 384.37C355.633 369.647 356.569 357.911 356.629 349.162C356.689 340.292 356.026 333.655 354.638 329.25C353.25 324.845 350.987 321.074 347.849 317.936C341.152 311.238 334.213 311.48 327.032 318.66C321.964 323.729 318.283 331.573 315.99 342.193L302.504 335.404C303.47 330.336 305.37 325.237 308.206 320.108C311.042 314.859 314.421 310.273 318.343 306.351C325.403 299.291 332.553 295.58 339.794 295.218C347.035 294.735 353.672 297.511 359.706 303.545C365.378 309.217 369.029 316.488 370.658 325.358C372.347 334.168 372.317 348.136 370.567 367.264L370.748 367.445L397.268 340.926L407.495 351.153L364.051 394.598L353.823 384.37ZM365.558 275.247C364.411 265.653 368.092 256.602 376.6 248.094C385.108 239.587 394.128 235.936 403.662 237.143C413.256 238.289 423.997 244.806 435.884 256.693C447.771 268.58 454.287 279.32 455.434 288.914C456.64 298.448 452.99 307.469 444.482 315.977C435.974 324.485 426.923 328.165 417.329 327.019C407.795 325.812 397.085 319.265 385.198 307.378C373.311 295.491 366.764 284.781 365.558 275.247ZM419.773 310.094C425.445 311.662 430.393 310.335 434.616 306.111C438.84 301.887 440.168 296.94 438.599 291.268C437.03 285.596 431.841 278.355 423.031 269.545C414.222 260.736 406.981 255.546 401.309 253.978C395.637 252.409 390.689 253.736 386.465 257.96C382.242 262.184 380.914 267.132 382.483 272.804C384.052 278.476 389.241 285.716 398.051 294.526C406.86 303.336 414.101 308.525 419.773 310.094ZM459.746 166.758L470.879 155.625L500.747 257.901L489.614 269.034L459.746 166.758ZM491.877 206.13C491.636 200.096 494.14 194.454 499.39 189.205C504.639 183.955 510.281 181.451 516.315 181.692C522.349 181.934 528.232 184.92 533.964 190.653C539.697 196.385 542.683 202.268 542.925 208.302C543.106 214.276 540.571 219.887 535.322 225.137C530.072 230.386 524.461 232.921 518.487 232.74C512.453 232.498 506.57 229.511 500.838 223.779C495.105 218.047 492.119 212.164 491.877 206.13ZM417.659 216.448C417.418 210.414 419.922 204.772 425.172 199.523C430.421 194.273 436.063 191.769 442.097 192.01C448.131 192.131 454.014 195.057 459.746 200.79C465.479 206.522 468.435 212.435 468.616 218.53C468.858 224.564 466.354 230.205 461.104 235.455C455.854 240.705 450.213 243.209 444.179 242.967C438.145 242.726 432.262 239.739 426.529 234.007C420.797 228.275 417.84 222.422 417.659 216.448ZM511.699 212.918C518.095 219.314 523.194 220.611 526.995 216.81C530.796 213.009 529.499 207.91 523.103 201.514C516.647 195.057 511.518 193.73 507.716 197.531C503.915 201.333 505.242 206.462 511.699 212.918ZM452.777 227.128C456.639 223.266 455.341 218.107 448.885 211.651C442.489 205.255 437.36 203.988 433.498 207.85C429.697 211.651 430.994 216.75 437.39 223.146C443.847 229.602 448.976 230.929 452.777 227.128Z" fill="black" fill-opacity="0.05"/>
<path d="M620.363 416.384L610.769 406.79L640.004 377.555L649.598 387.149L620.363 416.384ZM674.823 384.37C676.633 369.647 677.569 357.911 677.629 349.162C677.689 340.292 677.026 333.655 675.638 329.25C674.25 324.845 671.987 321.074 668.849 317.936C662.152 311.238 655.213 311.48 648.032 318.66C642.964 323.729 639.283 331.573 636.99 342.193L623.504 335.404C624.47 330.336 626.37 325.237 629.206 320.108C632.042 314.859 635.421 310.273 639.343 306.351C646.403 299.291 653.553 295.58 660.794 295.218C668.035 294.735 674.672 297.511 680.706 303.545C686.378 309.217 690.029 316.488 691.658 325.358C693.347 334.168 693.317 348.136 691.567 367.264L691.748 367.445L718.268 340.926L728.495 351.153L685.051 394.598L674.823 384.37ZM686.558 275.247C685.411 265.653 689.092 256.602 697.6 248.094C706.108 239.587 715.128 235.936 724.662 237.143C734.256 238.289 744.997 244.806 756.884 256.693C768.771 268.58 775.287 279.32 776.434 288.914C777.64 298.448 773.99 307.469 765.482 315.977C756.974 324.485 747.923 328.165 738.329 327.019C728.795 325.812 718.085 319.265 706.198 307.378C694.311 295.491 687.764 284.781 686.558 275.247ZM740.773 310.094C746.445 311.662 751.393 310.335 755.616 306.111C759.84 301.887 761.168 296.94 759.599 291.268C758.03 285.596 752.841 278.355 744.031 269.545C735.222 260.736 727.981 255.546 722.309 253.978C716.637 252.409 711.689 253.736 707.465 257.96C703.242 262.184 701.914 267.132 703.483 272.804C705.052 278.476 710.241 285.716 719.051 294.526C727.86 303.336 735.101 308.525 740.773 310.094ZM780.746 166.758L791.879 155.625L821.747 257.901L810.614 269.034L780.746 166.758ZM812.877 206.13C812.636 200.096 815.14 194.454 820.39 189.205C825.639 183.955 831.281 181.451 837.315 181.692C843.349 181.934 849.232 184.92 854.964 190.653C860.697 196.385 863.683 202.268 863.925 208.302C864.106 214.276 861.571 219.887 856.322 225.137C851.072 230.386 845.461 232.921 839.487 232.74C833.453 232.498 827.57 229.511 821.838 223.779C816.105 218.047 813.119 212.164 812.877 206.13ZM738.659 216.448C738.418 210.414 740.922 204.772 746.172 199.523C751.421 194.273 757.063 191.769 763.097 192.01C769.131 192.131 775.014 195.057 780.746 200.79C786.479 206.522 789.435 212.435 789.616 218.53C789.858 224.564 787.354 230.205 782.104 235.455C776.854 240.705 771.213 243.209 765.179 242.967C759.145 242.726 753.262 239.739 747.529 234.007C741.797 228.275 738.84 222.422 738.659 216.448ZM832.699 212.918C839.095 219.314 844.194 220.611 847.995 216.81C851.796 213.009 850.499 207.91 844.103 201.514C837.647 195.057 832.518 193.73 828.716 197.531C824.915 201.333 826.242 206.462 832.699 212.918ZM773.777 227.128C777.639 223.266 776.341 218.107 769.885 211.651C763.489 205.255 758.36 203.988 754.498 207.85C750.697 211.651 751.994 216.75 758.39 223.146C764.847 229.602 769.976 230.929 773.777 227.128Z" fill="black" fill-opacity="0.05"/>
<path d="M936.363 416.384L926.769 406.79L956.004 377.555L965.598 387.149L936.363 416.384ZM990.823 384.37C992.633 369.647 993.569 357.911 993.629 349.162C993.689 340.292 993.026 333.655 991.638 329.25C990.25 324.845 987.987 321.074 984.849 317.936C978.152 311.238 971.213 311.48 964.032 318.66C958.964 323.729 955.283 331.573 952.99 342.193L939.504 335.404C940.47 330.336 942.37 325.237 945.206 320.108C948.042 314.859 951.421 310.273 955.343 306.351C962.403 299.291 969.553 295.58 976.794 295.218C984.035 294.735 990.672 297.511 996.706 303.545C1002.38 309.217 1006.03 316.488 1007.66 325.358C1009.35 334.168 1009.32 348.136 1007.57 367.264L1007.75 367.445L1034.27 340.926L1044.5 351.153L1001.05 394.598L990.823 384.37ZM1002.56 275.247C1001.41 265.653 1005.09 256.602 1013.6 248.094C1022.11 239.587 1031.13 235.936 1040.66 237.143C1050.26 238.289 1061 244.806 1072.88 256.693C1084.77 268.58 1091.29 279.32 1092.43 288.914C1093.64 298.448 1089.99 307.469 1081.48 315.977C1072.97 324.485 1063.92 328.165 1054.33 327.019C1044.8 325.812 1034.09 319.265 1022.2 307.378C1010.31 295.491 1003.76 284.781 1002.56 275.247ZM1056.77 310.094C1062.44 311.662 1067.39 310.335 1071.62 306.111C1075.84 301.887 1077.17 296.94 1075.6 291.268C1074.03 285.596 1068.84 278.355 1060.03 269.545C1051.22 260.736 1043.98 255.546 1038.31 253.978C1032.64 252.409 1027.69 253.736 1023.47 257.96C1019.24 262.184 1017.91 267.132 1019.48 272.804C1021.05 278.476 1026.24 285.716 1035.05 294.526C1043.86 303.336 1051.1 308.525 1056.77 310.094ZM1096.75 166.758L1107.88 155.625L1137.75 257.901L1126.61 269.034L1096.75 166.758ZM1128.88 206.13C1128.64 200.096 1131.14 194.454 1136.39 189.205C1141.64 183.955 1147.28 181.451 1153.31 181.692C1159.35 181.934 1165.23 184.92 1170.96 190.653C1176.7 196.385 1179.68 202.268 1179.92 208.302C1180.11 214.276 1177.57 219.887 1172.32 225.137C1167.07 230.386 1161.46 232.921 1155.49 232.74C1149.45 232.498 1143.57 229.511 1137.84 223.779C1132.11 218.047 1129.12 212.164 1128.88 206.13ZM1054.66 216.448C1054.42 210.414 1056.92 204.772 1062.17 199.523C1067.42 194.273 1073.06 191.769 1079.1 192.01C1085.13 192.131 1091.01 195.057 1096.75 200.79C1102.48 206.522 1105.44 212.435 1105.62 218.53C1105.86 224.564 1103.35 230.205 1098.1 235.455C1092.85 240.705 1087.21 243.209 1081.18 242.967C1075.14 242.726 1069.26 239.739 1063.53 234.007C1057.8 228.275 1054.84 222.422 1054.66 216.448ZM1148.7 212.918C1155.09 219.314 1160.19 220.611 1163.99 216.81C1167.8 213.009 1166.5 207.91 1160.1 201.514C1153.65 195.057 1148.52 193.73 1144.72 197.531C1140.92 201.333 1142.24 206.462 1148.7 212.918ZM1089.78 227.128C1093.64 223.266 1092.34 218.107 1085.89 211.651C1079.49 205.255 1074.36 203.988 1070.5 207.85C1066.7 211.651 1067.99 216.75 1074.39 223.146C1080.85 229.602 1085.98 230.929 1089.78 227.128Z" fill="black" fill-opacity="0.05"/>
<path d="M1234.36 383.384L1224.77 373.79L1254 344.555L1263.6 354.149L1234.36 383.384ZM1288.82 351.37C1290.63 336.647 1291.57 324.911 1291.63 316.162C1291.69 307.292 1291.03 300.655 1289.64 296.25C1288.25 291.845 1285.99 288.074 1282.85 284.936C1276.15 278.238 1269.21 278.48 1262.03 285.66C1256.96 290.729 1253.28 298.573 1250.99 309.193L1237.5 302.404C1238.47 297.336 1240.37 292.237 1243.21 287.108C1246.04 281.859 1249.42 277.273 1253.34 273.351C1260.4 266.291 1267.55 262.58 1274.79 262.218C1282.03 261.735 1288.67 264.511 1294.71 270.545C1300.38 276.217 1304.03 283.488 1305.66 292.358C1307.35 301.168 1307.32 315.136 1305.57 334.264L1305.75 334.445L1332.27 307.926L1342.5 318.153L1299.05 361.598L1288.82 351.37ZM1300.56 242.247C1299.41 232.653 1303.09 223.602 1311.6 215.094C1320.11 206.587 1329.13 202.936 1338.66 204.143C1348.26 205.289 1359 211.806 1370.88 223.693C1382.77 235.58 1389.29 246.32 1390.43 255.914C1391.64 265.448 1387.99 274.469 1379.48 282.977C1370.97 291.485 1361.92 295.165 1352.33 294.019C1342.8 292.812 1332.09 286.265 1320.2 274.378C1308.31 262.491 1301.76 251.781 1300.56 242.247ZM1354.77 277.094C1360.44 278.662 1365.39 277.335 1369.62 273.111C1373.84 268.887 1375.17 263.94 1373.6 258.268C1372.03 252.596 1366.84 245.355 1358.03 236.545C1349.22 227.736 1341.98 222.546 1336.31 220.978C1330.64 219.409 1325.69 220.736 1321.47 224.96C1317.24 229.184 1315.91 234.132 1317.48 239.804C1319.05 245.476 1324.24 252.716 1333.05 261.526C1341.86 270.336 1349.1 275.525 1354.77 277.094ZM1394.75 133.758L1405.88 122.625L1435.75 224.901L1424.61 236.034L1394.75 133.758ZM1426.88 173.13C1426.64 167.096 1429.14 161.454 1434.39 156.205C1439.64 150.955 1445.28 148.451 1451.31 148.692C1457.35 148.934 1463.23 151.92 1468.96 157.653C1474.7 163.385 1477.68 169.268 1477.92 175.302C1478.11 181.276 1475.57 186.887 1470.32 192.137C1465.07 197.386 1459.46 199.921 1453.49 199.74C1447.45 199.498 1441.57 196.511 1435.84 190.779C1430.11 185.047 1427.12 179.164 1426.88 173.13ZM1352.66 183.448C1352.42 177.414 1354.92 171.772 1360.17 166.523C1365.42 161.273 1371.06 158.769 1377.1 159.01C1383.13 159.131 1389.01 162.057 1394.75 167.79C1400.48 173.522 1403.44 179.435 1403.62 185.53C1403.86 191.564 1401.35 197.205 1396.1 202.455C1390.85 207.705 1385.21 210.209 1379.18 209.967C1373.14 209.726 1367.26 206.739 1361.53 201.007C1355.8 195.275 1352.84 189.422 1352.66 183.448ZM1446.7 179.918C1453.09 186.314 1458.19 187.611 1461.99 183.81C1465.8 180.009 1464.5 174.91 1458.1 168.514C1451.65 162.057 1446.52 160.73 1442.72 164.531C1438.92 168.333 1440.24 173.462 1446.7 179.918ZM1387.78 194.128C1391.64 190.266 1390.34 185.107 1383.89 178.651C1377.49 172.255 1372.36 170.988 1368.5 174.85C1364.7 178.651 1365.99 183.75 1372.39 190.146C1378.85 196.602 1383.98 197.929 1387.78 194.128Z" fill="black" fill-opacity="0.05"/>
<path d="M4.36318 235.384L-5.23084 225.79L24.0038 196.555L33.5978 206.149L4.36318 235.384ZM58.8231 203.37C60.6333 188.647 61.5686 176.911 61.6289 168.162C61.6893 159.292 61.0255 152.655 59.6377 148.25C58.2499 143.845 55.9872 140.074 52.8495 136.936C46.1518 130.238 39.2127 130.48 32.0323 137.66C26.9637 142.729 23.283 150.573 20.9901 161.193L7.50415 154.404C8.46959 149.336 10.3703 144.237 13.2063 139.108C16.0422 133.859 19.4213 129.273 23.3433 125.351C30.4031 118.291 37.5534 114.58 44.7941 114.218C52.0349 113.735 58.6723 116.511 64.7063 122.545C70.3782 128.217 74.0288 135.488 75.6579 144.358C77.3474 153.168 77.3173 167.136 75.5674 186.264L75.7484 186.445L102.268 159.926L112.495 170.153L69.0507 213.598L58.8231 203.37ZM70.5576 94.2474C69.4111 84.6534 73.0918 75.6024 81.5997 67.0945C90.1077 58.5866 99.1284 54.936 108.662 56.1428C118.256 57.2893 128.997 63.806 140.884 75.6929C152.771 87.5798 159.287 98.3203 160.434 107.914C161.64 117.448 157.99 126.469 149.482 134.977C140.974 143.485 131.923 147.165 122.329 146.019C112.795 144.812 102.085 138.265 90.1982 126.378C78.3112 114.491 71.7644 103.781 70.5576 94.2474ZM124.773 129.094C130.445 130.662 135.393 129.335 139.616 125.111C143.84 120.887 145.168 115.94 143.599 110.268C142.03 104.596 136.841 97.3549 128.031 88.5453C119.222 79.7357 111.981 74.5465 106.309 72.9776C100.637 71.4088 95.6891 72.7363 91.4653 76.96C87.2415 81.1838 85.914 86.1317 87.4829 91.8036C89.0517 97.4756 94.2409 104.716 103.051 113.526C111.86 122.336 119.101 127.525 124.773 129.094ZM164.746 -14.2419L175.879 -25.3746L205.747 76.9014L194.614 88.034L164.746 -14.2419ZM196.877 25.1298C196.636 19.0959 199.14 13.4541 204.39 8.20452C209.639 2.95496 215.281 0.450861 221.315 0.692219C227.349 0.933579 233.232 3.9204 238.964 9.65268C244.697 15.385 247.683 21.2681 247.925 27.3021C248.106 33.2757 245.571 38.8873 240.322 44.1369C235.072 49.3864 229.461 51.9207 223.487 51.7397C217.453 51.4983 211.57 48.5115 205.838 42.7792C200.105 37.0469 197.119 31.1638 196.877 25.1298ZM122.659 35.4479C122.418 29.414 124.922 23.7722 130.172 18.5226C135.421 13.2731 141.063 10.769 147.097 11.0103C153.131 11.131 159.014 14.0575 164.746 19.7898C170.479 25.522 173.435 31.4353 173.616 37.5297C173.858 43.5636 171.354 49.2054 166.104 54.455C160.854 59.7045 155.213 62.2086 149.179 61.9673C143.145 61.7259 137.262 58.7391 131.529 53.0068C125.797 47.2745 122.84 41.4216 122.659 35.4479ZM216.699 31.9181C223.095 38.3141 228.194 39.6114 231.995 35.81C235.796 32.0086 234.499 26.9099 228.103 20.5138C221.647 14.0575 216.518 12.73 212.716 16.5314C208.915 20.3328 210.242 25.4617 216.699 31.9181ZM157.777 46.1281C161.639 42.2663 160.341 37.1073 153.885 30.6509C147.489 24.2549 142.36 22.9878 138.498 26.8495C134.697 30.6509 135.994 35.7496 142.39 42.1456C148.847 48.602 153.976 49.9295 157.777 46.1281Z" fill="black" fill-opacity="0.05"/>
<path d="M299.363 235.384L289.769 225.79L319.004 196.555L328.598 206.149L299.363 235.384ZM353.823 203.37C355.633 188.647 356.569 176.911 356.629 168.162C356.689 159.292 356.026 152.655 354.638 148.25C353.25 143.845 350.987 140.074 347.849 136.936C341.152 130.238 334.213 130.48 327.032 137.66C321.964 142.729 318.283 150.573 315.99 161.193L302.504 154.404C303.47 149.336 305.37 144.237 308.206 139.108C311.042 133.859 314.421 129.273 318.343 125.351C325.403 118.291 332.553 114.58 339.794 114.218C347.035 113.735 353.672 116.511 359.706 122.545C365.378 128.217 369.029 135.488 370.658 144.358C372.347 153.168 372.317 167.136 370.567 186.264L370.748 186.445L397.268 159.926L407.495 170.153L364.051 213.598L353.823 203.37ZM365.558 94.2474C364.411 84.6534 368.092 75.6024 376.6 67.0945C385.108 58.5866 394.128 54.936 403.662 56.1428C413.256 57.2893 423.997 63.806 435.884 75.6929C447.771 87.5798 454.287 98.3203 455.434 107.914C456.64 117.448 452.99 126.469 444.482 134.977C435.974 143.485 426.923 147.165 417.329 146.019C407.795 144.812 397.085 138.265 385.198 126.378C373.311 114.491 366.764 103.781 365.558 94.2474ZM419.773 129.094C425.445 130.662 430.393 129.335 434.616 125.111C438.84 120.887 440.168 115.94 438.599 110.268C437.03 104.596 431.841 97.3549 423.031 88.5453C414.222 79.7357 406.981 74.5465 401.309 72.9776C395.637 71.4088 390.689 72.7363 386.465 76.96C382.242 81.1838 380.914 86.1317 382.483 91.8036C384.052 97.4756 389.241 104.716 398.051 113.526C406.86 122.336 414.101 127.525 419.773 129.094ZM459.746 -14.2419L470.879 -25.3746L500.747 76.9014L489.614 88.034L459.746 -14.2419ZM491.877 25.1298C491.636 19.0959 494.14 13.4541 499.39 8.20452C504.639 2.95496 510.281 0.450861 516.315 0.692219C522.349 0.933579 528.232 3.9204 533.964 9.65268C539.697 15.385 542.683 21.2681 542.925 27.3021C543.106 33.2757 540.571 38.8873 535.322 44.1369C530.072 49.3864 524.461 51.9207 518.487 51.7397C512.453 51.4983 506.57 48.5115 500.838 42.7792C495.105 37.0469 492.119 31.1638 491.877 25.1298ZM417.659 35.4479C417.418 29.414 419.922 23.7722 425.172 18.5226C430.421 13.2731 436.063 10.769 442.097 11.0103C448.131 11.131 454.014 14.0575 459.746 19.7898C465.479 25.522 468.435 31.4353 468.616 37.5297C468.858 43.5636 466.354 49.2054 461.104 54.455C455.854 59.7045 450.213 62.2086 444.179 61.9673C438.145 61.7259 432.262 58.7391 426.529 53.0068C420.797 47.2745 417.84 41.4216 417.659 35.4479ZM511.699 31.9181C518.095 38.3141 523.194 39.6114 526.995 35.81C530.796 32.0086 529.499 26.9099 523.103 20.5138C516.647 14.0575 511.518 12.73 507.716 16.5314C503.915 20.3328 505.242 25.4617 511.699 31.9181ZM452.777 46.1281C456.639 42.2663 455.341 37.1073 448.885 30.6509C442.489 24.2549 437.36 22.9878 433.498 26.8495C429.697 30.6509 430.994 35.7496 437.39 42.1456C443.847 48.602 448.976 49.9295 452.777 46.1281Z" fill="black" fill-opacity="0.05"/>
<path d="M620.363 235.384L610.769 225.79L640.004 196.555L649.598 206.149L620.363 235.384ZM674.823 203.37C676.633 188.647 677.569 176.911 677.629 168.162C677.689 159.292 677.026 152.655 675.638 148.25C674.25 143.845 671.987 140.074 668.849 136.936C662.152 130.238 655.213 130.48 648.032 137.66C642.964 142.729 639.283 150.573 636.99 161.193L623.504 154.404C624.47 149.336 626.37 144.237 629.206 139.108C632.042 133.859 635.421 129.273 639.343 125.351C646.403 118.291 653.553 114.58 660.794 114.218C668.035 113.735 674.672 116.511 680.706 122.545C686.378 128.217 690.029 135.488 691.658 144.358C693.347 153.168 693.317 167.136 691.567 186.264L691.748 186.445L718.268 159.926L728.495 170.153L685.051 213.598L674.823 203.37ZM686.558 94.2474C685.411 84.6534 689.092 75.6024 697.6 67.0945C706.108 58.5866 715.128 54.936 724.662 56.1428C734.256 57.2893 744.997 63.806 756.884 75.6929C768.771 87.5798 775.287 98.3203 776.434 107.914C777.64 117.448 773.99 126.469 765.482 134.977C756.974 143.485 747.923 147.165 738.329 146.019C728.795 144.812 718.085 138.265 706.198 126.378C694.311 114.491 687.764 103.781 686.558 94.2474ZM740.773 129.094C746.445 130.662 751.393 129.335 755.616 125.111C759.84 120.887 761.168 115.94 759.599 110.268C758.03 104.596 752.841 97.3549 744.031 88.5453C735.222 79.7357 727.981 74.5465 722.309 72.9776C716.637 71.4088 711.689 72.7363 707.465 76.96C703.242 81.1838 701.914 86.1317 703.483 91.8036C705.052 97.4756 710.241 104.716 719.051 113.526C727.86 122.336 735.101 127.525 740.773 129.094ZM780.746 -14.2419L791.879 -25.3746L821.747 76.9014L810.614 88.034L780.746 -14.2419ZM812.877 25.1298C812.636 19.0959 815.14 13.4541 820.39 8.20452C825.639 2.95496 831.281 0.450861 837.315 0.692219C843.349 0.933579 849.232 3.9204 854.964 9.65268C860.697 15.385 863.683 21.2681 863.925 27.3021C864.106 33.2757 861.571 38.8873 856.322 44.1369C851.072 49.3864 845.461 51.9207 839.487 51.7397C833.453 51.4983 827.57 48.5115 821.838 42.7792C816.105 37.0469 813.119 31.1638 812.877 25.1298ZM738.659 35.4479C738.418 29.414 740.922 23.7722 746.172 18.5226C751.421 13.2731 757.063 10.769 763.097 11.0103C769.131 11.131 775.014 14.0575 780.746 19.7898C786.479 25.522 789.435 31.4353 789.616 37.5297C789.858 43.5636 787.354 49.2054 782.104 54.455C776.854 59.7045 771.213 62.2086 765.179 61.9673C759.145 61.7259 753.262 58.7391 747.529 53.0068C741.797 47.2745 738.84 41.4216 738.659 35.4479ZM832.699 31.9181C839.095 38.3141 844.194 39.6114 847.995 35.81C851.796 32.0086 850.499 26.9099 844.103 20.5138C837.647 14.0575 832.518 12.73 828.716 16.5314C824.915 20.3328 826.242 25.4617 832.699 31.9181ZM773.777 46.1281C777.639 42.2663 776.341 37.1073 769.885 30.6509C763.489 24.2549 758.36 22.9878 754.498 26.8495C750.697 30.6509 751.994 35.7496 758.39 42.1456C764.847 48.602 769.976 49.9295 773.777 46.1281Z" fill="black" fill-opacity="0.05"/>
<path d="M956.363 235.384L946.769 225.79L976.004 196.555L985.598 206.149L956.363 235.384ZM1010.82 203.37C1012.63 188.647 1013.57 176.911 1013.63 168.162C1013.69 159.292 1013.03 152.655 1011.64 148.25C1010.25 143.845 1007.99 140.074 1004.85 136.936C998.152 130.238 991.213 130.48 984.032 137.66C978.964 142.729 975.283 150.573 972.99 161.193L959.504 154.404C960.47 149.336 962.37 144.237 965.206 139.108C968.042 133.859 971.421 129.273 975.343 125.351C982.403 118.291 989.553 114.58 996.794 114.218C1004.03 113.735 1010.67 116.511 1016.71 122.545C1022.38 128.217 1026.03 135.488 1027.66 144.358C1029.35 153.168 1029.32 167.136 1027.57 186.264L1027.75 186.445L1054.27 159.926L1064.5 170.153L1021.05 213.598L1010.82 203.37ZM1022.56 94.2474C1021.41 84.6534 1025.09 75.6024 1033.6 67.0945C1042.11 58.5866 1051.13 54.936 1060.66 56.1428C1070.26 57.2893 1081 63.806 1092.88 75.6929C1104.77 87.5798 1111.29 98.3203 1112.43 107.914C1113.64 117.448 1109.99 126.469 1101.48 134.977C1092.97 143.485 1083.92 147.165 1074.33 146.019C1064.8 144.812 1054.09 138.265 1042.2 126.378C1030.31 114.491 1023.76 103.781 1022.56 94.2474ZM1076.77 129.094C1082.44 130.662 1087.39 129.335 1091.62 125.111C1095.84 120.887 1097.17 115.94 1095.6 110.268C1094.03 104.596 1088.84 97.3549 1080.03 88.5453C1071.22 79.7357 1063.98 74.5465 1058.31 72.9776C1052.64 71.4088 1047.69 72.7363 1043.47 76.96C1039.24 81.1838 1037.91 86.1317 1039.48 91.8036C1041.05 97.4756 1046.24 104.716 1055.05 113.526C1063.86 122.336 1071.1 127.525 1076.77 129.094ZM1116.75 -14.2419L1127.88 -25.3746L1157.75 76.9014L1146.61 88.034L1116.75 -14.2419ZM1148.88 25.1298C1148.64 19.0959 1151.14 13.4541 1156.39 8.20452C1161.64 2.95496 1167.28 0.450861 1173.31 0.692219C1179.35 0.933579 1185.23 3.9204 1190.96 9.65268C1196.7 15.385 1199.68 21.2681 1199.92 27.3021C1200.11 33.2757 1197.57 38.8873 1192.32 44.1369C1187.07 49.3864 1181.46 51.9207 1175.49 51.7397C1169.45 51.4983 1163.57 48.5115 1157.84 42.7792C1152.11 37.0469 1149.12 31.1638 1148.88 25.1298ZM1074.66 35.4479C1074.42 29.414 1076.92 23.7722 1082.17 18.5226C1087.42 13.2731 1093.06 10.769 1099.1 11.0103C1105.13 11.131 1111.01 14.0575 1116.75 19.7898C1122.48 25.522 1125.44 31.4353 1125.62 37.5297C1125.86 43.5636 1123.35 49.2054 1118.1 54.455C1112.85 59.7045 1107.21 62.2086 1101.18 61.9673C1095.14 61.7259 1089.26 58.7391 1083.53 53.0068C1077.8 47.2745 1074.84 41.4216 1074.66 35.4479ZM1168.7 31.9181C1175.09 38.3141 1180.19 39.6114 1183.99 35.81C1187.8 32.0086 1186.5 26.9099 1180.1 20.5138C1173.65 14.0575 1168.52 12.73 1164.72 16.5314C1160.92 20.3328 1162.24 25.4617 1168.7 31.9181ZM1109.78 46.1281C1113.64 42.2663 1112.34 37.1073 1105.89 30.6509C1099.49 24.2549 1094.36 22.9878 1090.5 26.8495C1086.7 30.6509 1087.99 35.7496 1094.39 42.1456C1100.85 48.602 1105.98 49.9295 1109.78 46.1281Z" fill="black" fill-opacity="0.05"/>
<path d="M1194.36 219.384L1184.77 209.79L1214 180.555L1223.6 190.149L1194.36 219.384ZM1248.82 187.37C1250.63 172.647 1251.57 160.911 1251.63 152.162C1251.69 143.292 1251.03 136.655 1249.64 132.25C1248.25 127.845 1245.99 124.074 1242.85 120.936C1236.15 114.238 1229.21 114.48 1222.03 121.66C1216.96 126.729 1213.28 134.573 1210.99 145.193L1197.5 138.404C1198.47 133.336 1200.37 128.237 1203.21 123.108C1206.04 117.859 1209.42 113.273 1213.34 109.351C1220.4 102.291 1227.55 98.5802 1234.79 98.2182C1242.03 97.7355 1248.67 100.511 1254.71 106.545C1260.38 112.217 1264.03 119.488 1265.66 128.358C1267.35 137.168 1267.32 151.136 1265.57 170.264L1265.75 170.445L1292.27 143.926L1302.5 154.153L1259.05 197.598L1248.82 187.37ZM1260.56 78.2474C1259.41 68.6534 1263.09 59.6024 1271.6 51.0945C1280.11 42.5866 1289.13 38.936 1298.66 40.1428C1308.26 41.2893 1319 47.806 1330.88 59.6929C1342.77 71.5798 1349.29 82.3203 1350.43 91.9143C1351.64 101.448 1347.99 110.469 1339.48 118.977C1330.97 127.485 1321.92 131.165 1312.33 130.019C1302.8 128.812 1292.09 122.265 1280.2 110.378C1268.31 98.4914 1261.76 87.7811 1260.56 78.2474ZM1314.77 113.094C1320.44 114.662 1325.39 113.335 1329.62 109.111C1333.84 104.887 1335.17 99.9395 1333.6 94.2676C1332.03 88.5957 1326.84 81.3549 1318.03 72.5453C1309.22 63.7357 1301.98 58.5465 1296.31 56.9776C1290.64 55.4088 1285.69 56.7363 1281.47 60.96C1277.24 65.1838 1275.91 70.1317 1277.48 75.8036C1279.05 81.4756 1284.24 88.7163 1293.05 97.5259C1301.86 106.336 1309.1 111.525 1314.77 113.094ZM1354.75 -30.2419L1365.88 -41.3746L1395.75 60.9014L1384.61 72.034L1354.75 -30.2419ZM1386.88 9.12983C1386.64 3.09585 1389.14 -2.54592 1394.39 -7.79548C1399.64 -13.045 1405.28 -15.5491 1411.31 -15.3078C1417.35 -15.0664 1423.23 -12.0796 1428.96 -6.34732C1434.7 -0.615044 1437.68 5.26808 1437.92 11.3021C1438.11 17.2757 1435.57 22.8873 1430.32 28.1369C1425.07 33.3864 1419.46 35.9207 1413.49 35.7397C1407.45 35.4983 1401.57 32.5115 1395.84 26.7792C1390.11 21.0469 1387.12 15.1638 1386.88 9.12983ZM1312.66 19.4479C1312.42 13.414 1314.92 7.77219 1320.17 2.52263C1325.42 -2.72693 1331.06 -5.23104 1337.1 -4.98968C1343.13 -4.869 1349.01 -1.94252 1354.75 3.78976C1360.48 9.52204 1363.44 15.4353 1363.62 21.5297C1363.86 27.5636 1361.35 33.2054 1356.1 38.455C1350.85 43.7045 1345.21 46.2086 1339.18 45.9673C1333.14 45.7259 1327.26 42.7391 1321.53 37.0068C1315.8 31.2745 1312.84 25.4216 1312.66 19.4479ZM1406.7 15.9181C1413.09 22.3141 1418.19 23.6114 1421.99 19.81C1425.8 16.0086 1424.5 10.9099 1418.1 4.51384C1411.65 -1.94252 1406.52 -3.26999 1402.72 0.531413C1398.92 4.33282 1400.24 9.4617 1406.7 15.9181ZM1347.78 30.1281C1351.64 26.2663 1350.34 21.1073 1343.89 14.6509C1337.49 8.2549 1332.36 6.98777 1328.5 10.8495C1324.7 14.6509 1325.99 19.7496 1332.39 26.1456C1338.85 32.602 1343.98 33.9295 1347.78 30.1281Z" fill="black" fill-opacity="0.05"/>
<path d="M337.67 108.92L342.77 125.41C333.477 129.603 323.843 131.7 313.87 131.7C299.703 131.7 288.313 127.563 279.7 119.29C271.087 111.017 266.78 99.8533 266.78 85.8C266.78 71.4067 270.917 60.1867 279.19 52.14C287.577 43.98 299.137 39.9 313.87 39.9C323.843 39.9 333.477 41.9967 342.77 46.19L337.67 63.02C330.53 58.94 322.937 56.9 314.89 56.9C306.843 56.9 300.553 59.3933 296.02 64.38C291.6 69.3667 289.39 76.5067 289.39 85.8C289.39 94.8667 291.713 102.007 296.36 107.22C301.12 112.433 307.297 115.04 314.89 115.04C323.05 115.04 330.643 113 337.67 108.92ZM400.237 39.9C413.723 39.9 423.413 42.5633 429.307 47.89C435.2 53.1033 438.147 61.6033 438.147 73.39V106.2C438.147 114.247 438.997 122.18 440.697 130H419.787C419.107 126.26 418.597 121.897 418.257 116.91H417.917C414.743 121.557 410.437 125.183 404.997 127.79C399.67 130.397 393.833 131.7 387.487 131.7C379.213 131.7 372.583 129.433 367.597 124.9C362.723 120.253 360.287 113.85 360.287 105.69C360.287 95.83 364.423 87.9533 372.697 82.06C381.083 76.0533 393.097 73.05 408.737 73.05H416.047V72.54C416.047 66.5333 414.857 62.34 412.477 59.96C410.097 57.58 405.847 56.39 399.727 56.39C388.62 56.39 378.137 58.94 368.277 64.04L365.047 47.55C375.813 42.45 387.543 39.9 400.237 39.9ZM381.027 103.99C381.027 107.617 382.103 110.45 384.257 112.49C386.41 114.53 389.357 115.55 393.097 115.55C399.557 115.55 404.997 113.453 409.417 109.26C413.837 105.067 416.047 99.7967 416.047 93.45V87.67H408.737C399.783 87.67 392.927 89.2 388.167 92.26C383.407 95.2067 381.027 99.1167 381.027 103.99ZM543.746 72.2L523.516 107.73H504.816L484.586 72.2H484.416V130H462.486V41.6H486.966L513.996 91.92H514.336L541.366 41.6H566.186V130H544.086V72.2H543.746ZM595.434 52.31C603.367 44.0367 614.077 39.9 627.564 39.9C641.05 39.9 651.76 44.0367 659.694 52.31C667.627 60.5833 671.594 71.7467 671.594 85.8C671.594 99.8533 667.627 111.017 659.694 119.29C651.76 127.563 641.05 131.7 627.564 131.7C614.077 131.7 603.367 127.563 595.434 119.29C587.614 111.017 583.704 99.8533 583.704 85.8C583.704 71.7467 587.614 60.5833 595.434 52.31ZM627.564 114.87C634.477 114.87 639.86 112.433 643.714 107.56C647.567 102.573 649.494 95.32 649.494 85.8C649.494 76.28 647.567 69.0833 643.714 64.21C639.86 59.2233 634.477 56.73 627.564 56.73C620.764 56.73 615.437 59.2233 611.584 64.21C607.73 69.0833 605.804 76.28 605.804 85.8C605.804 95.32 607.73 102.573 611.584 107.56C615.437 112.433 620.764 114.87 627.564 114.87ZM711.707 116.06C714.314 116.4 716.921 116.57 719.527 116.57C733.127 116.57 739.927 112.037 739.927 102.97C739.927 94.6967 732.957 90.56 719.017 90.56H711.707V116.06ZM711.707 76.62H718.677C724.231 76.62 728.594 75.6 731.767 73.56C734.941 71.52 736.527 68.7433 736.527 65.23C736.527 58.43 730.691 55.03 719.017 55.03C716.524 55.03 714.087 55.2 711.707 55.54V76.62ZM761.517 104.5C761.517 122.293 747.237 131.19 718.677 131.19C708.591 131.19 698.731 130.567 689.097 129.32V42.28C698.164 41.0333 707.514 40.41 717.147 40.41C744.121 40.41 757.607 47.7767 757.607 62.51C757.607 67.61 755.737 71.9733 751.997 75.6C748.371 79.1133 743.327 81.4367 736.867 82.57V82.74C744.574 83.76 750.581 86.2533 754.887 90.22C759.307 94.0733 761.517 98.8333 761.517 104.5ZM864.058 130V41.6H886.158V130H864.058ZM779.908 41.6H802.008V66.25C806.428 65.4567 810.678 65.06 814.758 65.06C827.338 65.06 836.971 67.95 843.658 73.73C850.458 79.51 853.858 87.3867 853.858 97.36C853.858 108.92 850.288 117.533 843.148 123.2C836.008 128.867 824.844 131.7 809.658 131.7C799.231 131.7 789.314 130.85 779.908 129.15V41.6ZM802.008 82.74V114.02C804.841 114.813 808.071 115.21 811.698 115.21C818.951 115.21 824.221 113.793 827.508 110.96C830.908 108.013 832.608 103.48 832.608 97.36C832.608 92.3733 830.794 88.52 827.168 85.8C823.654 82.9667 818.384 81.55 811.358 81.55C808.298 81.55 805.181 81.9467 802.008 82.74ZM932.176 116.06C934.783 116.4 937.389 116.57 939.996 116.57C953.596 116.57 960.396 112.037 960.396 102.97C960.396 94.6967 953.426 90.56 939.486 90.56H932.176V116.06ZM932.176 76.62H939.146C944.699 76.62 949.063 75.6 952.236 73.56C955.409 71.52 956.996 68.7433 956.996 65.23C956.996 58.43 951.159 55.03 939.486 55.03C936.993 55.03 934.556 55.2 932.176 55.54V76.62ZM981.986 104.5C981.986 122.293 967.706 131.19 939.146 131.19C929.059 131.19 919.199 130.567 909.566 129.32V42.28C918.633 41.0333 927.983 40.41 937.616 40.41C964.589 40.41 978.076 47.7767 978.076 62.51C978.076 67.61 976.206 71.9733 972.466 75.6C968.839 79.1133 963.796 81.4367 957.336 82.57V82.74C965.043 83.76 971.049 86.2533 975.356 90.22C979.776 94.0733 981.986 98.8333 981.986 104.5ZM1006.16 52.31C1014.09 44.0367 1024.8 39.9 1038.29 39.9C1051.77 39.9 1062.48 44.0367 1070.42 52.31C1078.35 60.5833 1082.32 71.7467 1082.32 85.8C1082.32 99.8533 1078.35 111.017 1070.42 119.29C1062.48 127.563 1051.77 131.7 1038.29 131.7C1024.8 131.7 1014.09 127.563 1006.16 119.29C998.336 111.017 994.426 99.8533 994.426 85.8C994.426 71.7467 998.336 60.5833 1006.16 52.31ZM1038.29 114.87C1045.2 114.87 1050.58 112.433 1054.44 107.56C1058.29 102.573 1060.22 95.32 1060.22 85.8C1060.22 76.28 1058.29 69.0833 1054.44 64.21C1050.58 59.2233 1045.2 56.73 1038.29 56.73C1031.49 56.73 1026.16 59.2233 1022.31 64.21C1018.45 69.0833 1016.53 76.28 1016.53 85.8C1016.53 95.32 1018.45 102.573 1022.31 107.56C1026.16 112.433 1031.49 114.87 1038.29 114.87ZM1151.5 83.42V83.76C1158.07 84.6667 1163.4 87.2733 1167.48 91.58C1171.67 95.7733 1173.77 100.647 1173.77 106.2C1173.77 113.907 1170.09 120.083 1162.72 124.73C1155.47 129.377 1145.04 131.7 1131.44 131.7C1119.65 131.7 1107.41 129.49 1094.72 125.07L1099.65 109.6C1110.42 113.227 1120.67 115.04 1130.42 115.04C1144.36 115.04 1151.33 111.13 1151.33 103.31C1151.33 99.3433 1148.89 96.3967 1144.02 94.47C1139.15 92.5433 1130.53 91.58 1118.18 91.58H1111.72V76.45H1118.18C1129.74 76.45 1137.96 75.5433 1142.83 73.73C1147.7 71.9167 1150.14 69.2533 1150.14 65.74C1150.14 59.28 1143.17 56.05 1129.23 56.05C1121.18 56.05 1111.83 58.0333 1101.18 62L1096.08 46.53C1107.87 42.11 1119.65 39.9 1131.44 39.9C1144.25 39.9 1154.28 42.11 1161.53 46.53C1168.9 50.8367 1172.58 56.1067 1172.58 62.34C1172.58 67.2133 1170.77 71.52 1167.14 75.26C1163.51 79 1158.3 81.72 1151.5 83.42Z" fill="black"/>
<path d="M98.08 489.128C102.496 484.456 108.32 482.12 115.552 482.12C122.784 482.12 128.576 484.456 132.928 489.128C137.344 493.8 139.552 500.104 139.552 508.04C139.552 515.976 137.344 522.28 132.928 526.952C128.576 531.624 122.784 533.96 115.552 533.96C108.32 533.96 102.496 531.624 98.08 526.952C93.728 522.28 91.552 515.976 91.552 508.04C91.552 500.104 93.728 493.8 98.08 489.128ZM105.184 521.48C107.744 524.68 111.2 526.28 115.552 526.28C119.904 526.28 123.36 524.68 125.92 521.48C128.48 518.28 129.76 513.8 129.76 508.04C129.76 502.28 128.48 497.8 125.92 494.6C123.36 491.4 119.904 489.8 115.552 489.8C111.2 489.8 107.744 491.4 105.184 494.6C102.624 497.8 101.344 502.28 101.344 508.04C101.344 513.8 102.624 518.28 105.184 521.48ZM192.277 490.856H174.901V533H164.533V490.856H147.157V483.08H192.277V490.856ZM241.677 483.08V519.368H241.869L266.445 483.08H276.813V533H266.829V496.712H266.637L242.157 533H231.693V483.08H241.677ZM332.902 490.856H315.526V533H305.158V490.856H287.782V483.08H332.902V490.856ZM346.986 489.128C351.402 484.456 357.226 482.12 364.458 482.12C371.69 482.12 377.482 484.456 381.834 489.128C386.25 493.8 388.458 500.104 388.458 508.04C388.458 515.976 386.25 522.28 381.834 526.952C377.482 531.624 371.69 533.96 364.458 533.96C357.226 533.96 351.402 531.624 346.986 526.952C342.634 522.28 340.458 515.976 340.458 508.04C340.458 500.104 342.634 493.8 346.986 489.128ZM354.09 521.48C356.65 524.68 360.106 526.28 364.458 526.28C368.81 526.28 372.266 524.68 374.826 521.48C377.386 518.28 378.666 513.8 378.666 508.04C378.666 502.28 377.386 497.8 374.826 494.6C372.266 491.4 368.81 489.8 364.458 489.8C360.106 489.8 356.65 491.4 354.09 494.6C351.53 497.8 350.25 502.28 350.25 508.04C350.25 513.8 351.53 518.28 354.09 521.48ZM409.023 533H398.943V483.08H436.383V491.24H409.023V533ZM450.018 489.128C454.434 484.456 460.258 482.12 467.49 482.12C474.722 482.12 480.514 484.456 484.866 489.128C489.282 493.8 491.49 500.104 491.49 508.04C491.49 515.976 489.282 522.28 484.866 526.952C480.514 531.624 474.722 533.96 467.49 533.96C460.258 533.96 454.434 531.624 450.018 526.952C445.666 522.28 443.49 515.976 443.49 508.04C443.49 500.104 445.666 493.8 450.018 489.128ZM457.122 521.48C459.682 524.68 463.138 526.28 467.49 526.28C471.842 526.28 475.298 524.68 477.858 521.48C480.418 518.28 481.698 513.8 481.698 508.04C481.698 502.28 480.418 497.8 477.858 494.6C475.298 491.4 471.842 489.8 467.49 489.8C463.138 489.8 459.682 491.4 457.122 494.6C454.562 497.8 453.282 502.28 453.282 508.04C453.282 513.8 454.562 518.28 457.122 521.48ZM511.959 526.568C514.071 526.888 516.119 527.048 518.103 527.048C527.255 527.048 531.831 524.008 531.831 517.928C531.831 512.424 527.063 509.672 517.527 509.672H511.959V526.568ZM511.959 503.336H517.335C521.239 503.336 524.247 502.696 526.359 501.416C528.535 500.072 529.623 498.216 529.623 495.848C529.623 491.304 525.655 489.032 517.719 489.032C515.927 489.032 514.007 489.192 511.959 489.512V503.336ZM541.527 518.6C541.527 528.648 533.591 533.672 517.719 533.672C512.343 533.672 507.095 533.32 501.975 532.616V483.464C506.775 482.76 511.735 482.408 516.855 482.408C531.639 482.408 539.031 486.504 539.031 494.696C539.031 497.576 538.007 500.04 535.959 502.088C533.975 504.072 531.191 505.384 527.607 506.024V506.12C532.023 506.76 535.447 508.2 537.879 510.44C540.311 512.616 541.527 515.336 541.527 518.6ZM555.674 489.128C560.09 484.456 565.914 482.12 573.146 482.12C580.378 482.12 586.17 484.456 590.522 489.128C594.938 493.8 597.146 500.104 597.146 508.04C597.146 515.976 594.938 522.28 590.522 526.952C586.17 531.624 580.378 533.96 573.146 533.96C565.914 533.96 560.09 531.624 555.674 526.952C551.322 522.28 549.146 515.976 549.146 508.04C549.146 500.104 551.322 493.8 555.674 489.128ZM562.778 521.48C565.338 524.68 568.794 526.28 573.146 526.28C577.498 526.28 580.954 524.68 583.514 521.48C586.074 518.28 587.354 513.8 587.354 508.04C587.354 502.28 586.074 497.8 583.514 494.6C580.954 491.4 577.498 489.8 573.146 489.8C568.794 489.8 565.338 491.4 562.778 494.6C560.218 497.8 558.938 502.28 558.938 508.04C558.938 513.8 560.218 518.28 562.778 521.48ZM617.615 483.08V519.368H617.807L642.383 483.08H652.751V533H642.767V496.712H642.575L618.095 533H607.631V483.08H617.615ZM611.471 461.48H619.631C619.759 463.784 620.847 465.736 622.895 467.336C624.943 468.872 627.375 469.64 630.191 469.64C633.007 469.64 635.439 468.872 637.487 467.336C639.535 465.736 640.623 463.784 640.751 461.48H648.911C648.911 465.832 647.151 469.48 643.631 472.424C640.111 475.368 635.631 476.84 630.191 476.84C624.751 476.84 620.271 475.368 616.751 472.424C613.231 469.48 611.471 465.832 611.471 461.48ZM730.62 493.352C726.46 491.112 722.14 489.992 717.66 489.992C712.732 489.992 708.86 491.56 706.044 494.696C703.228 497.832 701.82 502.28 701.82 508.04C701.82 513.672 703.292 518.12 706.236 521.384C709.244 524.648 713.052 526.28 717.66 526.28C722.14 526.28 726.46 525.16 730.62 522.92L733.02 530.6C727.9 532.84 722.62 533.96 717.18 533.96C709.628 533.96 703.484 531.624 698.748 526.952C694.076 522.28 691.74 515.976 691.74 508.04C691.74 499.912 693.98 493.576 698.46 489.032C702.94 484.424 709.18 482.12 717.18 482.12C722.62 482.12 727.9 483.24 733.02 485.48L730.62 493.352ZM753.304 483.08L767.128 521.48H767.32L780.184 483.08H790.552L771.832 533C768.568 541.704 764.984 547.56 761.08 550.568C757.24 553.576 751.544 555.08 743.992 555.08L743.512 547.208C748.76 547.208 752.664 546.248 755.224 544.328C757.784 542.472 760.12 538.696 762.232 533L742.552 483.08H753.304ZM847.8 496.52L833.4 519.368H824.856L810.456 496.52H810.264V533H800.568V483.08H811.704L829.08 512.168H829.176L846.552 483.08H857.784V533H847.896V496.52H847.8ZM918.863 496.52L904.463 519.368H895.919L881.519 496.52H881.327V533H871.631V483.08H882.767L900.143 512.168H900.239L917.615 483.08H928.847V533H918.959V496.52H918.863ZM990.213 533V483.08H999.525V533H990.213ZM942.693 483.08H952.293V497.672C954.533 497.224 957.253 497 960.453 497C967.749 497 973.317 498.6 977.157 501.8C981.061 504.936 983.013 509.256 983.013 514.76C983.013 521.224 980.997 526.056 976.965 529.256C972.997 532.392 966.853 533.96 958.533 533.96C952.965 533.96 947.685 533.48 942.693 532.52V483.08ZM952.293 505.352V525.512C954.661 526.024 956.965 526.28 959.205 526.28C964.133 526.28 967.749 525.352 970.053 523.496C972.421 521.576 973.605 518.664 973.605 514.76C973.605 511.56 972.389 509.096 969.957 507.368C967.525 505.576 963.877 504.68 959.013 504.68C956.389 504.68 954.149 504.904 952.293 505.352ZM1069.53 506.696C1073.3 507.336 1076.34 508.872 1078.65 511.304C1080.95 513.672 1082.1 516.424 1082.1 519.56C1082.1 523.912 1080.09 527.4 1076.06 530.024C1072.09 532.648 1066.36 533.96 1058.87 533.96C1052.22 533.96 1045.59 532.744 1039 530.312L1041.3 523.208C1047.38 525.256 1053.08 526.28 1058.39 526.28C1067.48 526.28 1072.02 523.656 1072.02 518.408C1072.02 515.72 1070.55 513.736 1067.61 512.456C1064.66 511.112 1059.51 510.44 1052.15 510.44H1048.31V503.048H1052.15C1064.95 503.048 1071.35 500.712 1071.35 496.04C1071.35 491.752 1066.87 489.608 1057.91 489.608C1052.86 489.608 1047.54 490.696 1041.98 492.872L1039.67 485.768C1046.01 483.336 1052.41 482.12 1058.87 482.12C1065.98 482.12 1071.51 483.304 1075.48 485.672C1079.45 488.04 1081.43 491.016 1081.43 494.6C1081.43 497.288 1080.38 499.72 1078.26 501.896C1076.15 504.072 1073.24 505.608 1069.53 506.504V506.696ZM1122.83 508.232H1118.03C1112.27 508.232 1107.82 509.224 1104.68 511.208C1101.61 513.192 1100.08 515.816 1100.08 519.08C1100.08 521.448 1100.78 523.336 1102.19 524.744C1103.66 526.088 1105.58 526.76 1107.95 526.76C1111.98 526.76 1115.47 525.384 1118.41 522.632C1121.36 519.816 1122.83 516.392 1122.83 512.36V508.232ZM1090.67 519.56C1090.67 513.992 1093 509.544 1097.68 506.216C1102.41 502.824 1109.2 501.128 1118.03 501.128H1122.83V500.648C1122.83 496.616 1122 493.8 1120.33 492.2C1118.73 490.6 1115.88 489.8 1111.79 489.8C1105.71 489.8 1100.11 491.24 1094.99 494.12L1093.55 486.44C1098.92 483.56 1105 482.12 1111.79 482.12C1119.02 482.12 1124.27 483.592 1127.53 486.536C1130.8 489.416 1132.43 494.024 1132.43 500.36V519.56C1132.43 524.104 1132.91 528.584 1133.87 533H1124.75C1124.24 530.184 1123.95 527.624 1123.88 525.32H1123.69C1121.9 528.008 1119.4 530.12 1116.2 531.656C1113.07 533.192 1109.52 533.96 1105.55 533.96C1101 533.96 1097.39 532.68 1094.7 530.12C1092.01 527.56 1090.67 524.04 1090.67 519.56ZM1157.06 503.624L1177.7 483.08H1189.8L1165.03 506.984L1190.66 533H1178.57L1157.06 510.44H1156.87V533H1146.69V483.08H1156.87V503.624H1157.06ZM1231.39 508.232H1226.59C1220.83 508.232 1216.38 509.224 1213.25 511.208C1210.17 513.192 1208.64 515.816 1208.64 519.08C1208.64 521.448 1209.34 523.336 1210.75 524.744C1212.22 526.088 1214.14 526.76 1216.51 526.76C1220.54 526.76 1224.03 525.384 1226.97 522.632C1229.92 519.816 1231.39 516.392 1231.39 512.36V508.232ZM1199.23 519.56C1199.23 513.992 1201.57 509.544 1206.24 506.216C1210.97 502.824 1217.76 501.128 1226.59 501.128H1231.39V500.648C1231.39 496.616 1230.56 493.8 1228.89 492.2C1227.29 490.6 1224.45 489.8 1220.35 489.8C1214.27 489.8 1208.67 491.24 1203.55 494.12L1202.11 486.44C1207.49 483.56 1213.57 482.12 1220.35 482.12C1227.58 482.12 1232.83 483.592 1236.09 486.536C1239.36 489.416 1240.99 494.024 1240.99 500.36V519.56C1240.99 524.104 1241.47 528.584 1242.43 533H1233.31C1232.8 530.184 1232.51 527.624 1232.45 525.32H1232.25C1230.46 528.008 1227.97 530.12 1224.77 531.656C1221.63 533.192 1218.08 533.96 1214.11 533.96C1209.57 533.96 1205.95 532.68 1203.26 530.12C1200.57 527.56 1199.23 524.04 1199.23 519.56ZM1282.9 506.696C1286.68 507.336 1289.72 508.872 1292.02 511.304C1294.33 513.672 1295.48 516.424 1295.48 519.56C1295.48 523.912 1293.46 527.4 1289.43 530.024C1285.46 532.648 1279.74 533.96 1272.25 533.96C1265.59 533.96 1258.97 532.744 1252.38 530.312L1254.68 523.208C1260.76 525.256 1266.46 526.28 1271.77 526.28C1280.86 526.28 1285.4 523.656 1285.4 518.408C1285.4 515.72 1283.93 513.736 1280.98 512.456C1278.04 511.112 1272.89 510.44 1265.53 510.44H1261.69V503.048H1265.53C1278.33 503.048 1284.73 500.712 1284.73 496.04C1284.73 491.752 1280.25 489.608 1271.29 489.608C1266.23 489.608 1260.92 490.696 1255.35 492.872L1253.05 485.768C1259.38 483.336 1265.78 482.12 1272.25 482.12C1279.35 482.12 1284.89 483.304 1288.86 485.672C1292.82 488.04 1294.81 491.016 1294.81 494.6C1294.81 497.288 1293.75 499.72 1291.64 501.896C1289.53 504.072 1286.62 505.608 1282.9 506.504V506.696ZM1336.2 508.232H1331.4C1325.64 508.232 1321.2 509.224 1318.06 511.208C1314.99 513.192 1313.45 515.816 1313.45 519.08C1313.45 521.448 1314.16 523.336 1315.56 524.744C1317.04 526.088 1318.96 526.76 1321.32 526.76C1325.36 526.76 1328.84 525.384 1331.79 522.632C1334.73 519.816 1336.2 516.392 1336.2 512.36V508.232ZM1304.04 519.56C1304.04 513.992 1306.38 509.544 1311.05 506.216C1315.79 502.824 1322.57 501.128 1331.4 501.128H1336.2V500.648C1336.2 496.616 1335.37 493.8 1333.71 492.2C1332.11 490.6 1329.26 489.8 1325.16 489.8C1319.08 489.8 1313.48 491.24 1308.36 494.12L1306.92 486.44C1312.3 483.56 1318.38 482.12 1325.16 482.12C1332.4 482.12 1337.64 483.592 1340.91 486.536C1344.17 489.416 1345.8 494.024 1345.8 500.36V519.56C1345.8 524.104 1346.28 528.584 1347.24 533H1338.12C1337.61 530.184 1337.32 527.624 1337.26 525.32H1337.07C1335.28 528.008 1332.78 530.12 1329.58 531.656C1326.44 533.192 1322.89 533.96 1318.92 533.96C1314.38 533.96 1310.76 532.68 1308.08 530.12C1305.39 527.56 1304.04 524.04 1304.04 519.56Z" fill="black"/>
<path d="M354.864 669.064L356.784 675.272C353.285 676.851 349.659 677.64 345.904 677.64C340.571 677.64 336.283 676.083 333.04 672.968C329.797 669.853 328.176 665.651 328.176 660.36C328.176 654.941 329.733 650.717 332.848 647.688C336.005 644.616 340.357 643.08 345.904 643.08C349.659 643.08 353.285 643.869 356.784 645.448L354.864 651.784C352.176 650.248 349.317 649.48 346.288 649.48C343.259 649.48 340.891 650.419 339.184 652.296C337.52 654.173 336.688 656.861 336.688 660.36C336.688 663.773 337.563 666.461 339.312 668.424C341.104 670.387 343.429 671.368 346.288 671.368C349.36 671.368 352.219 670.6 354.864 669.064ZM373.747 657.032L385.203 643.72H395.251L380.659 659.656L395.826 677H385.779L373.747 662.344H373.619V677H364.979V643.72H373.619V657.032H373.747ZM411.241 643.72V665.416H411.305L425.065 643.72H433.705V677H425.257V655.304H425.129L411.369 677H402.729V643.72H411.241ZM452.333 670.792H465.261V649.928H455.981C455.981 657.565 455.81 662.323 455.469 664.2C455.17 666.035 454.125 668.232 452.333 670.792ZM443.053 670.792C444.76 668.744 445.89 667.101 446.445 665.864C447 664.584 447.362 662.941 447.533 660.936C447.746 658.888 447.853 655.219 447.853 649.928V643.72H473.453V670.792H477.869V684.68H469.613V677H448.493V684.68H440.301V670.792H443.053ZM493.247 657.032L504.703 643.72H514.751L500.159 659.656L515.326 677H505.279L493.247 662.344H493.119V677H484.479V643.72H493.119V657.032H493.247ZM530.741 643.72V665.416H530.805L544.565 643.72H553.205V677H544.757V655.304H544.629L530.869 677H522.229V643.72H530.741ZM590.119 662.536V677H581.479V643.72H590.119V656.52H603.623V643.72H612.326V677H603.623V662.536H590.119ZM627.246 657.672H642.862C642.819 654.899 642.115 652.787 640.75 651.336C639.427 649.843 637.55 649.096 635.118 649.096C632.771 649.096 630.894 649.843 629.486 651.336C628.121 652.829 627.374 654.941 627.246 657.672ZM627.246 663.368C627.459 665.885 628.419 667.891 630.126 669.384C631.875 670.835 634.073 671.56 636.718 671.56C639.875 671.56 643.011 670.771 646.126 669.192L648.046 675.08C644.206 676.787 640.153 677.64 635.886 677.64C630.851 677.64 626.755 676.083 623.598 672.968C620.483 669.853 618.926 665.651 618.926 660.36C618.926 654.984 620.377 650.76 623.278 647.688C626.179 644.616 630.105 643.08 635.054 643.08C640.003 643.08 643.843 644.552 646.574 647.496C649.347 650.44 650.734 654.664 650.734 660.168C650.734 661.235 650.67 662.301 650.542 663.368H627.246ZM701.552 669.064L703.472 675.272C699.973 676.851 696.346 677.64 692.592 677.64C687.258 677.64 682.97 676.083 679.728 672.968C676.485 669.853 674.864 665.651 674.864 660.36C674.864 654.941 676.421 650.717 679.536 647.688C682.693 644.616 687.045 643.08 692.592 643.08C696.346 643.08 699.973 643.869 703.472 645.448L701.552 651.784C698.864 650.248 696.005 649.48 692.976 649.48C689.946 649.48 687.578 650.419 685.872 652.296C684.208 654.173 683.376 656.861 683.376 660.36C683.376 663.773 684.25 666.461 686 668.424C687.792 670.387 690.117 671.368 692.976 671.368C696.048 671.368 698.906 670.6 701.552 669.064ZM710.898 691.72L710.386 685.192C713.927 685.192 716.53 684.637 718.194 683.528C719.858 682.419 721.266 680.243 722.418 677L709.426 643.72H718.706L726.386 668.232H726.514L734.258 643.72H743.154L730.674 677.192C728.626 682.739 726.173 686.536 723.314 688.584C720.455 690.675 716.317 691.72 710.898 691.72ZM780.008 655.24L772.392 668.616H765.352L757.736 655.24H757.672V677H749.416V643.72H758.632L768.808 662.664H768.936L779.112 643.72H788.456V677H780.136V655.24H780.008ZM827.883 655.24L820.267 668.616H813.227L805.611 655.24H805.547V677H797.291V643.72H806.507L816.683 662.664H816.811L826.987 643.72H836.331V677H828.011V655.24H827.883ZM853.678 643.72V665.416H853.742L867.502 643.72H876.142V677H867.694V655.304H867.566L853.806 677H845.166V643.72H853.678ZM908.531 660.36C908.531 656.776 907.848 654.088 906.483 652.296C905.16 650.504 903.283 649.608 900.851 649.608C898.589 649.608 896.755 650.547 895.347 652.424C893.981 654.259 893.299 656.797 893.299 660.04V660.68C893.299 664.008 893.981 666.589 895.347 668.424C896.755 670.216 898.589 671.112 900.851 671.112C903.112 671.112 904.947 670.195 906.355 668.36C907.805 666.483 908.531 663.816 908.531 660.36ZM916.531 660.36C916.531 665.864 915.293 670.131 912.819 673.16C910.387 676.147 907.187 677.64 903.219 677.64C899.123 677.64 895.859 676.083 893.427 672.968H893.299V691.08H884.979V643.72H892.787L892.915 648.392H893.043C895.603 644.851 898.995 643.08 903.219 643.08C907.357 643.08 910.6 644.552 912.947 647.496C915.336 650.44 916.531 654.728 916.531 660.36ZM922.648 691.72L922.136 685.192C925.677 685.192 928.28 684.637 929.944 683.528C931.608 682.419 933.016 680.243 934.168 677L921.176 643.72H930.456L938.136 668.232H938.264L946.008 643.72H954.904L942.424 677.192C940.376 682.739 937.923 686.536 935.064 688.584C932.205 690.675 928.067 691.72 922.648 691.72ZM961.166 643.72H969.358V657.288H974.542C975.097 652.808 976.739 649.331 979.47 646.856C982.201 644.339 985.742 643.08 990.094 643.08C994.915 643.08 998.734 644.616 1001.55 647.688C1004.37 650.717 1005.77 654.941 1005.77 660.36C1005.77 665.779 1004.37 670.024 1001.55 673.096C998.734 676.125 994.915 677.64 990.094 677.64C985.742 677.64 982.201 676.403 979.47 673.928C976.739 671.411 975.097 667.912 974.542 663.432H969.358V677H961.166V643.72ZM982.606 660.36C982.606 667.741 985.102 671.432 990.094 671.432C995.086 671.432 997.582 667.741 997.582 660.36C997.582 652.979 995.086 649.288 990.094 649.288C985.102 649.288 982.606 652.979 982.606 660.36ZM1041.59 650.248H1030.59V677H1021.75V650.248H1010.75V643.72H1041.59V650.248ZM1072.93 669.064L1074.85 675.272C1071.35 676.851 1067.72 677.64 1063.97 677.64C1058.63 677.64 1054.35 676.083 1051.1 672.968C1047.86 669.853 1046.24 665.651 1046.24 660.36C1046.24 654.941 1047.8 650.717 1050.91 647.688C1054.07 644.616 1058.42 643.08 1063.97 643.08C1067.72 643.08 1071.35 643.869 1074.85 645.448L1072.93 651.784C1070.24 650.248 1067.38 649.48 1064.35 649.48C1061.32 649.48 1058.95 650.419 1057.25 652.296C1055.58 654.173 1054.75 656.861 1054.75 660.36C1054.75 663.773 1055.63 666.461 1057.37 668.424C1059.17 670.387 1061.49 671.368 1064.35 671.368C1067.42 671.368 1070.28 670.6 1072.93 669.064ZM1090.02 661.832V661.768C1087.63 661.171 1085.67 660.104 1084.13 658.568C1082.64 657.032 1081.89 655.197 1081.89 653.064C1081.89 646.536 1087.07 643.272 1097.44 643.272C1101.71 643.272 1105.78 643.507 1109.67 643.976V677H1101.15V664.456H1098.53C1096.87 664.456 1095.71 664.669 1095.07 665.096C1094.48 665.48 1093.79 666.504 1093.03 668.168L1089.19 677H1080.8L1085.09 667.72C1085.9 665.971 1086.67 664.669 1087.39 663.816C1088.12 662.963 1088.99 662.301 1090.02 661.832ZM1101.15 658.568V649.544C1100.09 649.416 1098.98 649.352 1097.83 649.352C1092.62 649.352 1090.02 650.867 1090.02 653.896C1090.02 657.011 1092.75 658.568 1098.21 658.568H1101.15Z" fill="#E68888"/>
<rect x="474.417" y="175" width="535" height="197" rx="98.5" transform="rotate(8 474.417 175)" fill="#E81D1D"/>
<path d="M559.144 306.203L561.424 289.979L604.141 295.982L601.86 312.207L559.144 306.203ZM619.1 326.133C637.54 315.713 649.819 307.744 655.937 302.228C662.152 296.638 665.675 290.886 666.506 284.97C667.599 277.196 663.835 272.703 655.216 271.492C648.287 270.518 639.662 272.408 629.343 277.162L626.315 259.158C631.029 256.89 636.552 255.297 642.886 254.377C649.316 253.385 655.319 253.281 660.897 254.065C671.122 255.502 678.636 259.057 683.44 264.73C688.256 270.319 690.058 277.423 688.846 286.042C687.801 293.478 684.432 300.286 678.738 306.466C673.14 312.573 662.695 320.369 647.402 329.852L647.366 330.106L682.477 335.04L680.037 352.406L616.659 343.499L619.1 326.133ZM714.263 272.94C721.392 266.359 731.168 263.941 743.59 265.687C756.012 267.433 764.7 272.445 769.655 280.725C774.694 289.016 776.032 301.57 773.668 318.386C771.305 335.202 766.559 346.9 759.429 353.482C752.385 360.075 742.651 362.498 730.229 360.753C717.807 359.007 709.077 353.988 704.038 345.697C699.083 337.417 697.788 324.87 700.151 308.054C702.514 291.238 707.218 279.533 714.263 272.94ZM722.226 335.844C724.023 340.836 727.457 343.689 732.527 344.401C737.598 345.114 741.642 343.313 744.662 338.997C747.765 334.694 750.125 326.796 751.74 315.304C753.355 303.812 753.264 295.569 751.467 290.577C749.754 285.597 746.362 282.751 741.292 282.038C736.222 281.326 732.135 283.121 729.031 287.424C726.012 291.739 723.695 299.643 722.079 311.135C720.464 322.628 720.513 330.864 722.226 335.844ZM860.202 283.368L877.567 285.809L815.129 371.392L797.764 368.951L860.202 283.368ZM850.466 332.41C855.405 328.537 861.719 327.141 869.409 328.222C877.099 329.303 882.742 332.379 886.337 337.452C890.03 342.452 891.306 349.008 890.165 357.12C889.025 365.232 885.986 371.225 881.047 375.098C876.192 378.983 869.92 380.385 862.23 379.304C854.54 378.223 848.855 375.141 845.175 370.056C841.579 364.984 840.352 358.392 841.492 350.279C842.632 342.167 845.623 336.211 850.466 332.41ZM794.158 279.644C799.097 275.771 805.411 274.375 813.101 275.456C820.791 276.537 826.433 279.613 830.029 284.686C833.625 289.758 834.853 296.351 833.713 304.463C832.572 312.575 829.575 318.574 824.72 322.458C819.878 326.259 813.612 327.619 805.922 326.538C798.232 325.457 792.541 322.417 788.849 317.417C785.253 312.345 784.025 305.752 785.166 297.64C786.306 289.528 789.303 283.529 794.158 279.644ZM858.604 352.684C857.44 360.966 859.266 365.445 864.083 366.122C868.899 366.799 871.89 362.996 873.054 354.715C874.206 346.518 872.373 342.081 867.557 341.405C862.74 340.728 859.756 344.487 858.604 352.684ZM807.774 313.355C810.141 313.688 812.046 313.008 813.49 311.315C814.934 309.622 815.971 306.537 816.601 302.058C817.765 293.777 815.98 289.303 811.248 288.638C806.432 287.961 803.441 291.764 802.277 300.045C801.125 308.242 802.958 312.679 807.774 313.355Z" fill="white"/>
</g>
<rect x="3" y="3" width="1445" height="694" stroke="#FDFD3E" stroke-width="6"/>
<defs>
<clipPath id="clip0_927_319">
<rect width="1451" height="700" fill="white"/>
</clipPath>
</defs>
</svg>
